<?xml version="1.0" encoding="UTF-8" standalone="no"?>
<svg
   width="230mm"
   height="100mm"
   viewBox="-115 -50 230 100"
   version="1.1"
   id="svg2698"
   sodipodi:docname="logo.svg"
   inkscape:version="1.2.2 (732a01da63, 2022-12-09)"
   xmlns:inkscape="http://www.inkscape.org/namespaces/inkscape"
   xmlns:sodipodi="http://sodipodi.sourceforge.net/DTD/sodipodi-0.dtd"
   xmlns="http://www.w3.org/2000/svg"
   xmlns:svg="http://www.w3.org/2000/svg">
  <defs
     id="defs2702" />
  <sodipodi:namedview
     id="namedview2700"
     pagecolor="#505050"
     bordercolor="#eeeeee"
     borderopacity="1"
     inkscape:showpageshadow="0"
     inkscape:pageopacity="0"
     inkscape:pagecheckerboard="0"
     inkscape:deskcolor="#505050"
     inkscape:document-units="mm"
     showgrid="false"
     inkscape:zoom="1.3919384"
     inkscape:cx="435.00488"
     inkscape:cy="188.94514"
     inkscape:window-width="1920"
     inkscape:window-height="1027"
     inkscape:window-x="-8"
     inkscape:window-y="-8"
     inkscape:window-maximized="1"
     inkscape:current-layer="svg2698" />
  <title
     id="title2694">OpenSCAD Model</title>
  <path
     d=" M 92.7554,29.164 L 93.1069,29.1083 L 93.4507,29.0162 L 93.7829,28.8887 L 94.1935,28.6711 L 95.2895,27.9906  L 95.3875,27.9274 L 97.4742,26.5303 L 97.5758,26.4595 L 99.5394,25.0388 L 99.6446,24.9595 L 101.484,23.5168  L 101.592,23.4279 L 103.304,21.9672 L 103.416,21.8676 L 104.999,20.3913 L 105.113,20.2797 L 106.567,18.7912  L 106.683,18.6663 L 108.004,17.1692 L 108.121,17.0298 L 109.311,15.5268 L 109.427,15.3716 L 110.486,13.8661  L 110.599,13.6942 L 111.527,12.1889 L 111.635,11.9996 L 112.433,10.4974 L 112.534,10.2905 L 113.204,8.79276  L 113.294,8.56883 L 113.838,7.07693 L 113.915,6.83725 L 114.335,5.35207 L 114.396,5.09874 L 114.694,3.61879  L 114.736,3.35492 L 114.914,1.87981 L 114.935,1.60936 L 114.995,0.136414 L 114.995,-0.136414 L 114.935,-1.60936  L 114.914,-1.87981 L 114.736,-3.35492 L 114.694,-3.61879 L 114.396,-5.09874 L 114.335,-5.35207 L 113.915,-6.83725  L 113.838,-7.07693 L 113.294,-8.56883 L 113.204,-8.79276 L 112.534,-10.2905 L 112.433,-10.4974 L 111.635,-11.9996  L 111.527,-12.1889 L 110.599,-13.6942 L 110.486,-13.8661 L 109.427,-15.3716 L 109.311,-15.5268 L 108.121,-17.0298  L 108.004,-17.1692 L 106.683,-18.6663 L 106.567,-18.7912 L 105.113,-20.2797 L 104.999,-20.3913 L 103.416,-21.8676  L 103.304,-21.9672 L 101.592,-23.4279 L 101.484,-23.5168 L 99.6446,-24.9595 L 99.5394,-25.0388 L 97.5758,-26.4595  L 97.4742,-26.5303 L 95.3875,-27.9274 L 95.2895,-27.9906 L 93.0838,-29.3602 L 92.9894,-29.4167 L 90.6661,-30.7572  L 90.5752,-30.8078 L 88.1385,-32.1161 L 88.0511,-32.1614 L 85.5038,-33.4354 L 85.4196,-33.4761 L 82.7643,-34.7141  L 82.6833,-34.7507 L 79.9245,-35.9501 L 79.8463,-35.983 L 76.9874,-37.1421 L 76.912,-37.1716 L 73.957,-38.2885  L 73.8841,-38.3151 L 70.836,-39.3882 L 70.7655,-39.4122 L 67.6298,-40.4395 L 67.5614,-40.4612 L 64.3397,-41.442  L 64.2733,-41.4615 L 60.9732,-42.3932 L 60.9087,-42.4108 L 57.5311,-43.2931 L 57.4683,-43.3089 L 54.02,-44.14  L 53.9587,-44.1541 L 50.4421,-44.9332 L 50.3823,-44.9459 L 46.8046,-45.6712 L 46.7461,-45.6825 L 43.1085,-46.3539  L 43.0511,-46.364 L 39.3604,-46.9799 L 39.3041,-46.9888 L 35.5639,-47.5488 L 35.5085,-47.5566 L 31.7256,-48.0594  L 31.671,-48.0663 L 27.8481,-48.5116 L 27.7942,-48.5175 L 23.9369,-48.9047 L 23.8837,-48.9096 L 19.9958,-49.2382  L 19.943,-49.2422 L 16.0314,-49.5116 L 15.9791,-49.5148 L 12.046,-49.7247 L 11.9939,-49.7271 L 8.04869,-49.8772  L 7.99692,-49.8788 L 4.03885,-49.9689 L 3.98721,-49.9697 L 0.0258179,-49.9998 L -0.0258179,-49.9998 L -3.98721,-49.9697  L -4.03885,-49.9689 L -7.99692,-49.8788 L -8.04869,-49.8772 L -11.9939,-49.7271 L -12.046,-49.7247 L -15.9791,-49.5148  L -16.0314,-49.5116 L -19.943,-49.2422 L -19.9958,-49.2382 L -23.8837,-48.9096 L -23.9369,-48.9047 L -27.7942,-48.5175  L -27.8481,-48.5116 L -31.671,-48.0663 L -31.7256,-48.0594 L -35.5085,-47.5566 L -35.5639,-47.5488 L -39.3041,-46.9888  L -39.3604,-46.9799 L -43.0511,-46.364 L -43.1085,-46.3539 L -46.7461,-45.6825 L -46.8046,-45.6712 L -50.3823,-44.9459  L -50.4421,-44.9332 L -53.9587,-44.1541 L -54.02,-44.14 L -57.3966,-43.3262 L -57.7377,-43.2248 L -58.0664,-43.0883  L -58.379,-42.9183 L -58.6721,-42.7164 L -58.9426,-42.4851 L -59.1873,-42.2267 L -59.4037,-41.9442 L -59.5894,-41.6406  L -59.7423,-41.3192 L -59.8608,-40.9836 L -59.9436,-40.6375 L -59.9898,-40.2846 L -60,-40.0208 L -60,-39.815  L -59.9814,-39.4596 L -59.9257,-39.1081 L -59.8336,-38.7643 L -59.7061,-38.4321 L -59.5445,-38.115 L -59.3507,-37.8165  L -59.1267,-37.54 L -58.875,-37.2883 L -58.5985,-37.0643 L -58.3,-36.8705 L -57.9829,-36.709 L -57.6507,-36.5814  L -57.3069,-36.4893 L -56.9554,-36.4336 L -56.6,-36.415 L -56.2446,-36.4336 L -55.7951,-36.5134 L -55.7947,-36.5118  L -52.4283,-37.3231 L -52.3962,-37.3306 L -48.9754,-38.0884 L -48.9448,-38.0949 L -45.4593,-38.8015 L -45.4283,-38.8075  L -41.8814,-39.4621 L -41.8549,-39.4668 L -38.2513,-40.0682 L -38.2252,-40.0724 L -34.5703,-40.6195 L -34.5444,-40.6232  L -30.8456,-41.1149 L -30.8178,-41.1183 L -27.0804,-41.5537 L -27.0523,-41.5568 L -23.2786,-41.9356 L -23.2524,-41.938  L -19.4472,-42.2596 L -19.4218,-42.2615 L -15.5912,-42.5253 L -15.5657,-42.5269 L -11.7131,-42.7325 L -11.6888,-42.7336  L -7.82253,-42.8807 L -7.79581,-42.8815 L -3.91939,-42.9698 L -3.89484,-42.9702 L -0.0120544,-42.9997 L 0.0120544,-42.9997  L 3.89484,-42.9702 L 3.91939,-42.9698 L 7.79581,-42.8815 L 7.82253,-42.8807 L 11.6888,-42.7336 L 11.7131,-42.7325  L 15.5657,-42.5269 L 15.5912,-42.5253 L 19.4218,-42.2615 L 19.4472,-42.2596 L 23.2524,-41.938 L 23.2786,-41.9356  L 27.0523,-41.5568 L 27.0804,-41.5537 L 30.8178,-41.1183 L 30.8456,-41.1149 L 34.5444,-40.6232 L 34.5703,-40.6195  L 38.2252,-40.0724 L 38.2513,-40.0682 L 41.8549,-39.4668 L 41.8814,-39.4621 L 45.4283,-38.8075 L 45.4593,-38.8015  L 48.9448,-38.0949 L 48.9754,-38.0884 L 52.3962,-37.3306 L 52.4283,-37.3231 L 55.7786,-36.5157 L 55.8106,-36.5077  L 59.0889,-35.6512 L 59.1212,-35.6425 L 62.3195,-34.7394 L 62.3528,-34.7296 L 65.4695,-33.7808 L 65.5036,-33.77  L 68.5305,-32.7783 L 68.5658,-32.7663 L 71.502,-31.7325 L 71.5391,-31.719 L 74.3777,-30.6461 L 74.4159,-30.6312  L 77.1559,-29.5203 L 77.1937,-29.5044 L 79.8285,-28.3589 L 79.869,-28.3406 L 82.3959,-27.1624 L 82.4368,-27.1427  L 84.8515,-25.935 L 84.8947,-25.9126 L 87.1928,-24.6787 L 87.2381,-24.6535 L 89.4172,-23.3961 L 89.4634,-23.3685  L 91.5202,-22.0913 L 91.5687,-22.0601 L 93.4998,-20.7672 L 93.5501,-20.7322 L 95.3533,-19.4274 L 95.4051,-19.3884  L 97.0778,-18.0763 L 97.1319,-18.0321 L 98.6717,-16.7181 L 98.7273,-16.6685 L 100.135,-15.3564 L 100.192,-15.3004  L 101.465,-13.9965 L 101.523,-13.9337 L 102.663,-12.6428 L 102.722,-12.5726 L 103.73,-11.2992 L 103.788,-11.2218  L 104.668,-9.97072 L 104.724,-9.88509 L 105.478,-8.66124 L 105.532,-8.56676 L 106.166,-7.37271 L 106.217,-7.26932  L 106.736,-6.1078 L 106.781,-5.99608 L 107.193,-4.8656 L 107.232,-4.74602 L 107.543,-3.64519 L 107.573,-3.5184  L 107.79,-2.44215 L 107.811,-2.31062 L 107.939,-1.2524 L 107.95,-1.11688 L 107.992,-0.0680237 L 107.992,0.0680237  L 107.95,1.11688 L 107.939,1.2524 L 107.811,2.31062 L 107.79,2.44215 L 107.573,3.5184 L 107.543,3.64519  L 107.232,4.74602 L 107.193,4.8656 L 106.781,5.99608 L 106.736,6.1078 L 106.217,7.26932 L 106.166,7.37271  L 105.532,8.56676 L 105.478,8.66124 L 104.724,9.88509 L 104.668,9.97072 L 103.788,11.2218 L 103.73,11.2992  L 102.722,12.5726 L 102.663,12.6428 L 101.523,13.9337 L 101.465,13.9965 L 100.192,15.3004 L 100.135,15.3564  L 98.7273,16.6685 L 98.6717,16.7181 L 97.1319,18.0321 L 97.0778,18.0763 L 95.4051,19.3884 L 95.3533,19.4274  L 93.5501,20.7322 L 93.4998,20.7672 L 91.5687,22.0601 L 91.5205,22.0912 L 90.6065,22.6587 L 90.3144,22.862  L 90.0451,23.0947 L 89.8017,23.3543 L 89.5867,23.6379 L 89.4025,23.9425 L 89.2512,24.2646 L 89.1344,24.6008  L 89.0533,24.9473 L 89.009,25.3004 L 89,25.5472 L 89,25.7826 L 89.0186,26.138 L 89.0743,26.4895  L 89.1664,26.8333 L 89.2939,27.1655 L 89.4555,27.4826 L 89.6493,27.7811 L 89.8733,28.0577 L 90.125,28.3093  L 90.4015,28.5333 L 90.7,28.7271 L 91.0171,28.8887 L 91.3493,29.0162 L 91.6931,29.1083 L 92.0446,29.164  L 92.4,29.1826 z M -56.8413,17.4226 L -56.8333,17.422 L -56.6003,17.3932 L -56.5875,17.3911 L -56.3685,17.3433 L -56.3466,17.3375  L -56.1373,17.2719 L -56.1036,17.2597 L -55.9136,17.182 L -55.8659,17.1601 L -55.694,17.0732 L -55.6326,17.0392  L -55.4774,16.9456 L -55.4185,16.9071 L -55.261,16.7951 L -55.2186,16.7625 L -55.062,16.6313 L -55.0337,16.6056  L -54.8798,16.4529 L -54.8622,16.4338 L -54.7191,16.2644 L -54.7082,16.2503 L -54.5752,16.0604 L -54.5677,16.0485  L -54.4543,15.8497 L -54.4473,15.8362 L -54.3529,15.6288 L -54.3177,15.5412 L -54.3049,15.5083 L -37.339,-28.5544  L -37.2579,-28.8031 L -37.2032,-29.0591 L -37.1756,-29.3193 L -37.1753,-29.581 L -37.2024,-29.8412 L -37.2565,-30.0972  L -37.3372,-30.3462 L -37.4433,-30.5854 L -37.5739,-30.8121 L -37.7275,-31.024 L -37.9025,-31.2186 L -38.0967,-31.3939  L -38.3083,-31.548 L -38.5348,-31.679 L -38.7737,-31.7857 L -39.0225,-31.8668 L -39.2809,-31.9219 L -41.6993,-32.3049  L -41.8128,-32.3203 L -41.8704,-32.3267 L -42.1033,-32.3417 L -42.1115,-32.3419 L -42.3428,-32.3353 L -42.3509,-32.3347  L -42.5858,-32.3059 L -42.5988,-32.3036 L -42.8195,-32.2555 L -42.8416,-32.2497 L -43.0496,-32.1845 L -43.0834,-32.1723  L -43.2731,-32.0948 L -43.3211,-32.0728 L -43.4931,-31.9859 L -43.5542,-31.9521 L -43.7109,-31.8575 L -43.769,-31.8195  L -43.9268,-31.7073 L -43.969,-31.6747 L -44.1252,-31.5438 L -44.1535,-31.518 L -44.3069,-31.3658 L -44.3245,-31.3467  L -44.4694,-31.1751 L -44.4803,-31.1608 L -44.6112,-30.9737 L -44.6188,-30.9618 L -44.7333,-30.7611 L -44.7402,-30.7475  L -44.834,-30.5414 L -44.8697,-30.4524 L -44.8826,-30.4196 L -57.6186,2.66269 L -67.4226,-33.8595 L -67.4419,-33.9277  L -67.5696,-34.3546 L -67.6429,-34.565 L -67.7596,-34.8574 L -67.8728,-35.1019 L -67.9796,-35.3034 L -68.1496,-35.5791  L -68.2323,-35.6957 L -68.4771,-35.99 L -68.5235,-36.0378 L -68.7153,-36.2157 L -68.8544,-36.3238 L -68.8582,-36.3265  L -69.0781,-36.4683 L -69.3117,-36.5864 L -69.5563,-36.6794 L -69.7067,-36.7226 L -69.7881,-36.7432 L -70.0116,-36.7892  L -72.1587,-37.1292 L -72.2725,-37.1446 L -72.3299,-37.151 L -72.5608,-37.166 L -72.5691,-37.1661 L -72.8047,-37.1594  L -72.8128,-37.1588 L -73.0453,-37.1301 L -73.0583,-37.1279 L -73.2788,-37.0798 L -73.3008,-37.074 L -73.5081,-37.0092  L -73.5419,-36.9969 L -73.7331,-36.9188 L -73.7812,-36.8968 L -73.9524,-36.8103 L -74.0132,-36.7766 L -74.1706,-36.6816  L -74.229,-36.6434 L -74.3856,-36.5321 L -74.4278,-36.4996 L -74.5848,-36.368 L -74.6131,-36.3422 L -74.7664,-36.1901  L -74.784,-36.171 L -74.9288,-35.9994 L -74.9398,-35.9851 L -75.0706,-35.798 L -75.0782,-35.7861 L -75.1927,-35.5854  L -75.1997,-35.5718 L -75.2933,-35.3659 L -75.329,-35.2769 L -75.342,-35.244 L -92.3069,8.81773 L -92.388,9.06654  L -92.4427,9.32245 L -92.4703,9.58266 L -92.4706,9.84435 L -92.4435,10.1046 L -92.3894,10.3606 L -92.3087,10.6096  L -92.2025,10.8487 L -92.0719,11.0755 L -91.9184,11.2874 L -91.7434,11.482 L -91.5491,11.6573 L -91.3376,11.8113  L -91.1111,11.9424 L -90.8722,12.0491 L -90.6234,12.1302 L -90.365,12.1853 L -87.9467,12.5683 L -87.833,12.5836  L -87.7755,12.59 L -87.5434,12.6051 L -87.5353,12.6052 L -87.2987,12.5983 L -87.2906,12.5977 L -87.0629,12.5696  L -87.05,12.5675 L -86.8256,12.5186 L -86.8039,12.5128 L -86.5971,12.448 L -86.5632,12.4357 L -86.3723,12.3577  L -86.3248,12.3359 L -86.1528,12.249 L -86.0917,12.2151 L -85.9362,12.1213 L -85.8777,12.083 L -85.7196,11.9706  L -85.6774,11.938 L -85.5212,11.8071 L -85.4929,11.7813 L -85.3395,11.629 L -85.3219,11.61 L -85.1768,11.4381  L -85.1658,11.4238 L -85.034,11.2352 L -85.0265,11.2233 L -84.9142,11.0265 L -84.9073,11.0129 L -84.8125,10.8047  L -84.777,10.7164 L -84.7634,10.6816 L -72.006,-22.5366 L -62.2238,14.1203 L -62.2037,14.1913 L -62.0764,14.6174  L -62.0031,14.8278 L -61.8865,15.1203 L -61.7734,15.3648 L -61.6666,15.5663 L -61.4965,15.8424 L -61.4139,15.9588  L -61.1695,16.2528 L -61.1232,16.3006 L -60.9314,16.4786 L -60.7921,16.5869 L -60.7886,16.5894 L -60.5687,16.7313  L -60.3352,16.8494 L -60.0906,16.9425 L -59.9396,16.9859 L -59.8583,17.0065 L -59.6348,17.0524 L -57.4877,17.3925  L -57.3741,17.4078 L -57.3165,17.4143 L -57.0857,17.4293 L -57.0777,17.4294 z M 3.98721,49.9697 L 4.03885,49.9689 L 7.99692,49.8788 L 8.04869,49.8772 L 11.9939,49.7271 L 12.046,49.7247  L 15.9791,49.5148 L 16.0314,49.5116 L 19.943,49.2422 L 19.9958,49.2382 L 23.8837,48.9096 L 23.9369,48.9047  L 27.7942,48.5175 L 27.8481,48.5116 L 31.671,48.0663 L 31.7256,48.0594 L 35.5085,47.5566 L 35.5639,47.5488  L 39.3041,46.9888 L 39.3604,46.9799 L 43.0511,46.364 L 43.1085,46.3539 L 46.7461,45.6825 L 46.8046,45.6712  L 47.2756,45.5757 L 47.6202,45.4869 L 47.9536,45.3625 L 48.2722,45.2039 L 48.5725,45.0129 L 48.8512,44.7915  L 49.1052,44.5423 L 49.3317,44.2678 L 49.5284,43.9712 L 49.6929,43.6556 L 49.8236,43.3246 L 49.9189,42.9817  L 49.9779,42.6307 L 50,42.2435 L 50,42.0394 L 49.9814,41.684 L 49.9257,41.3325 L 49.8336,40.9888  L 49.7061,40.6565 L 49.5445,40.3394 L 49.3507,40.041 L 49.1267,39.7644 L 48.875,39.5127 L 48.5985,39.2888  L 48.3,39.0949 L 47.9829,38.9334 L 47.6507,38.8058 L 47.3069,38.7137 L 46.9554,38.6581 L 46.6,38.6394  L 46.2446,38.6581 L 45.9244,38.7072 L 45.4593,38.8015 L 45.4283,38.8075 L 41.8814,39.4621 L 41.8549,39.4668  L 38.2513,40.0682 L 38.2252,40.0724 L 34.5703,40.6195 L 34.5444,40.6232 L 30.8456,41.1149 L 30.8178,41.1183  L 27.0804,41.5537 L 27.0523,41.5568 L 23.2786,41.9356 L 23.2524,41.938 L 19.4472,42.2596 L 19.4218,42.2615  L 15.5912,42.5253 L 15.5657,42.5269 L 11.7131,42.7325 L 11.6888,42.7336 L 7.82253,42.8807 L 7.79581,42.8815  L 3.91939,42.9698 L 3.89484,42.9702 L 0.0120544,42.9997 L -0.0120544,42.9997 L -3.89484,42.9702 L -3.91939,42.9698  L -7.79581,42.8815 L -7.82253,42.8807 L -11.6888,42.7336 L -11.7131,42.7325 L -15.5657,42.5269 L -15.5912,42.5253  L -19.4218,42.2615 L -19.4472,42.2596 L -23.2524,41.938 L -23.2786,41.9356 L -27.0523,41.5568 L -27.0804,41.5537  L -30.8178,41.1183 L -30.8456,41.1149 L -34.5444,40.6232 L -34.5703,40.6195 L -38.2252,40.0724 L -38.2513,40.0682  L -41.8549,39.4668 L -41.8814,39.4621 L -45.4283,38.8075 L -45.4593,38.8015 L -48.9448,38.0949 L -48.9754,38.0884  L -52.3962,37.3306 L -52.4283,37.3231 L -55.7786,36.5157 L -55.8106,36.5077 L -59.0889,35.6512 L -59.1212,35.6425  L -62.3195,34.7394 L -62.3528,34.7296 L -65.4695,33.7808 L -65.5036,33.77 L -68.5305,32.7783 L -68.5658,32.7663  L -71.502,31.7325 L -71.5391,31.719 L -74.3777,30.6461 L -74.4159,30.6312 L -77.1559,29.5203 L -77.1937,29.5044  L -79.8285,28.3589 L -79.869,28.3406 L -82.3959,27.1624 L -82.4368,27.1427 L -84.8515,25.935 L -84.8947,25.9126  L -87.1928,24.6787 L -87.2381,24.6535 L -89.4172,23.3961 L -89.4634,23.3685 L -91.5202,22.0913 L -91.5687,22.0601  L -93.4998,20.7672 L -93.5501,20.7322 L -95.3533,19.4274 L -95.4051,19.3884 L -97.0778,18.0763 L -97.1319,18.0321  L -98.6717,16.7181 L -98.7273,16.6685 L -100.135,15.3564 L -100.192,15.3004 L -101.465,13.9965 L -101.523,13.9337  L -102.663,12.6428 L -102.722,12.5726 L -103.73,11.2992 L -103.788,11.2218 L -104.668,9.97072 L -104.724,9.88509  L -105.478,8.66124 L -105.532,8.56676 L -106.166,7.37271 L -106.217,7.26932 L -106.736,6.1078 L -106.781,5.99608  L -107.193,4.8656 L -107.232,4.74602 L -107.543,3.64519 L -107.573,3.5184 L -107.79,2.44215 L -107.811,2.31062  L -107.939,1.2524 L -107.95,1.11688 L -107.992,0.0680237 L -107.992,-0.0680237 L -107.95,-1.11688 L -107.939,-1.2524  L -107.811,-2.31062 L -107.79,-2.44215 L -107.573,-3.5184 L -107.543,-3.64519 L -107.232,-4.74602 L -107.193,-4.8656  L -106.781,-5.99608 L -106.736,-6.1078 L -106.217,-7.26932 L -106.166,-7.37271 L -105.532,-8.56676 L -105.478,-8.66124  L -104.724,-9.88509 L -104.668,-9.97072 L -103.788,-11.2218 L -103.73,-11.2992 L -102.722,-12.5726 L -102.663,-12.6428  L -101.523,-13.9337 L -101.465,-13.9965 L -100.192,-15.3004 L -100.135,-15.3564 L -98.7273,-16.6685 L -98.6717,-16.7181  L -97.1319,-18.0321 L -97.0778,-18.0763 L -95.4051,-19.3884 L -95.3533,-19.4274 L -93.5501,-20.7322 L -93.4998,-20.7672  L -91.5687,-22.0601 L -91.5202,-22.0913 L -89.4634,-23.3685 L -89.4169,-23.3963 L -88.7008,-23.8095 L -88.4023,-24.0033  L -88.1256,-24.2272 L -87.8739,-24.4787 L -87.6499,-24.7552 L -87.456,-25.0537 L -87.2943,-25.3707 L -87.1667,-25.7029  L -87.0745,-26.0467 L -87.0187,-26.3981 L -87,-26.7545 L -87,-26.9854 L -87.0186,-27.3408 L -87.0743,-27.6923  L -87.1664,-28.036 L -87.2939,-28.3683 L -87.4555,-28.6854 L -87.6493,-28.9838 L -87.8733,-29.2604 L -88.125,-29.5121  L -88.4015,-29.736 L -88.7,-29.9299 L -89.0171,-30.0914 L -89.3493,-30.219 L -89.6931,-30.3111 L -90.0446,-30.3667  L -90.4,-30.3854 L -90.7554,-30.3667 L -91.1069,-30.3111 L -91.4507,-30.219 L -91.7829,-30.0914 L -92.0992,-29.9303  L -92.9895,-29.4167 L -93.0838,-29.3602 L -95.2895,-27.9906 L -95.3875,-27.9274 L -97.4742,-26.5303 L -97.5758,-26.4595  L -99.5394,-25.0388 L -99.6446,-24.9595 L -101.484,-23.5168 L -101.592,-23.4279 L -103.304,-21.9672 L -103.416,-21.8676  L -104.999,-20.3913 L -105.113,-20.2797 L -106.567,-18.7912 L -106.683,-18.6663 L -108.004,-17.1692 L -108.121,-17.0298  L -109.311,-15.5268 L -109.427,-15.3716 L -110.486,-13.8661 L -110.599,-13.6942 L -111.527,-12.1889 L -111.635,-11.9996  L -112.433,-10.4974 L -112.534,-10.2905 L -113.204,-8.79276 L -113.294,-8.56883 L -113.838,-7.07693 L -113.915,-6.83725  L -114.335,-5.35207 L -114.396,-5.09874 L -114.694,-3.61879 L -114.736,-3.35492 L -114.914,-1.87981 L -114.935,-1.60936  L -114.995,-0.136414 L -114.995,0.136414 L -114.935,1.60936 L -114.914,1.87981 L -114.736,3.35492 L -114.694,3.61879  L -114.396,5.09874 L -114.335,5.35207 L -113.915,6.83725 L -113.838,7.07693 L -113.294,8.56883 L -113.204,8.79276  L -112.534,10.2905 L -112.433,10.4974 L -111.635,11.9996 L -111.527,12.1889 L -110.599,13.6942 L -110.486,13.8661  L -109.427,15.3716 L -109.311,15.5268 L -108.121,17.0298 L -108.004,17.1692 L -106.683,18.6663 L -106.567,18.7912  L -105.113,20.2797 L -104.999,20.3913 L -103.416,21.8676 L -103.304,21.9672 L -101.592,23.4279 L -101.484,23.5168  L -99.6446,24.9595 L -99.5394,25.0388 L -97.5758,26.4595 L -97.4742,26.5303 L -95.3875,27.9274 L -95.2895,27.9906  L -93.0838,29.3602 L -92.9894,29.4167 L -90.6661,30.7572 L -90.5752,30.8078 L -88.1385,32.1161 L -88.0511,32.1614  L -85.5038,33.4354 L -85.4196,33.4761 L -82.7643,34.7141 L -82.6833,34.7507 L -79.9245,35.9501 L -79.8463,35.983  L -76.9874,37.1421 L -76.912,37.1716 L -73.957,38.2885 L -73.8841,38.3151 L -70.836,39.3882 L -70.7655,39.4122  L -67.6298,40.4395 L -67.5614,40.4612 L -64.3397,41.442 L -64.2733,41.4615 L -60.9732,42.3932 L -60.9087,42.4108  L -57.5311,43.2931 L -57.4683,43.3089 L -54.02,44.14 L -53.9587,44.1541 L -50.4421,44.9332 L -50.3823,44.9459  L -46.8046,45.6712 L -46.7461,45.6825 L -43.1085,46.3539 L -43.0511,46.364 L -39.3604,46.9799 L -39.3041,46.9888  L -35.5639,47.5488 L -35.5085,47.5566 L -31.7256,48.0594 L -31.671,48.0663 L -27.8481,48.5116 L -27.7942,48.5175  L -23.9369,48.9047 L -23.8837,48.9096 L -19.9958,49.2382 L -19.943,49.2422 L -16.0314,49.5116 L -15.9791,49.5148  L -12.046,49.7247 L -11.9939,49.7271 L -8.04869,49.8772 L -7.99692,49.8788 L -4.03885,49.9689 L -3.98721,49.9697  L -0.0258179,49.9998 L 0.0258179,49.9998 z M -19.2917,23.4258 L -19.067,23.4081 L -17.1739,23.1729 L -16.9332,23.131 L -15.1595,22.7317 L -14.9086,22.6613  L -13.2491,22.1009 L -12.9961,21.9998 L -11.4433,21.2787 L -11.1978,21.1476 L -9.73093,20.2561 L -9.53241,20.122  L -8.12636,19.0708 L -7.97192,18.9454 L -6.62917,17.764 L -6.4881,17.6298 L -5.21988,16.3254 L -5.09373,16.1855  L -3.89905,14.7555 L -3.78848,14.6129 L -2.66718,13.0549 L -2.57204,12.9126 L -1.52438,11.2242 L -1.44392,11.0847  L -0.470886,9.26448 L -0.4039,9.12953 L 0.503159,7.15503 L 0.536636,7.07887 L 1.10333,5.72861 L 1.11205,5.70758  L 1.69093,4.29228 L 1.69902,4.27226 L 2.28052,2.81482 L 2.28807,2.79565 L 2.87183,1.2968 L 2.87886,1.2785  L 3.46428,-0.260208 L 3.47089,-0.277786 L 4.05878,-1.85864 L 4.06496,-1.87541 L 4.65504,-3.49757 L 4.66083,-3.51366  L 5.25685,-5.18767 L 5.39697,-5.57521 L 5.42117,-5.64539 L 5.54643,-6.02686 L 5.56749,-6.09418 L 5.68614,-6.49319  L 5.70441,-6.55774 L 5.81612,-6.97397 L 5.83182,-7.03558 L 5.93657,-7.46964 L 5.95006,-7.52866 L 6.04729,-7.97914  L 6.05879,-8.03561 L 6.14859,-8.50372 L 6.15831,-8.55763 L 6.23743,-9.02527 L 6.25185,-9.12193 L 6.38091,-10.1208  L 6.39552,-10.2681 L 6.46202,-11.226 L 6.46796,-11.3801 L 6.47504,-12.3152 L 6.47115,-12.4749 L 6.41963,-13.3884  L 6.40503,-13.5518 L 6.29555,-14.4449 L 6.26965,-14.6102 L 6.10243,-15.4849 L 6.06514,-15.6496 L 5.84018,-16.5075  L 5.79181,-16.6694 L 5.50935,-17.5103 L 5.44841,-17.6728 L 5.1118,-18.4836 L 5.03607,-18.6488 L 4.64731,-19.4213  L 4.55852,-19.5827 L 4.11662,-20.3201 L 4.01604,-20.4747 L 3.51956,-21.1795 L 3.40887,-21.325 L 2.85632,-21.9988  L 2.73772,-22.1333 L 2.12718,-22.7775 L 2.0031,-22.8996 L 1.33278,-23.5149 L 1.20557,-23.624 L 0.475754,-24.2088  L 0.341949,-24.3088 L -0.438492,-24.8527 L -0.581131,-24.9451 L -1.40695,-25.4409 L -1.55183,-25.5215 L -2.427,-25.9708  L -2.57176,-26.0394 L -3.49756,-26.442 L -3.64034,-26.499 L -4.61852,-26.8547 L -4.75769,-26.9007 L -5.78918,-27.2087  L -5.92334,-27.2447 L -7.00958,-27.5043 L -7.13779,-27.5314 L -8.27673,-27.7411 L -8.40392,-27.7612 L -9.80045,-27.9447  L -9.937,-27.9588 L -11.2993,-28.0621 L -11.4429,-28.0689 L -12.7724,-28.0931 L -12.9221,-28.0913 L -14.2196,-28.0372  L -14.374,-28.026 L -15.6409,-27.8943 L -15.7984,-27.8729 L -17.0358,-27.6641 L -17.1945,-27.632 L -18.4043,-27.3463  L -18.5623,-27.3035 L -19.7502,-26.9395 L -19.8945,-26.8904 L -21.0571,-26.455 L -21.19,-26.4008 L -22.3142,-25.9045  L -22.4463,-25.8415 L -23.5284,-25.2859 L -23.6581,-25.2144 L -24.6996,-24.5992 L -24.8255,-24.5196 L -25.8276,-23.844  L -25.9483,-23.7574 L -26.9115,-23.0212 L -27.0258,-22.9283 L -27.9517,-22.13 L -28.0588,-22.0322 L -28.9497,-21.1691  L -29.0429,-21.0739 L -29.8968,-20.1535 L -29.9789,-20.0605 L -30.7872,-19.0976 L -30.8645,-19.0007 L -31.6258,-17.9966  L -31.6978,-17.8966 L -32.412,-16.8514 L -32.4783,-16.749 L -33.1461,-15.6615 L -33.2065,-15.5575 L -33.8272,-14.428  L -33.8815,-14.3234 L -34.4563,-13.1496 L -34.5046,-13.045 L -35.0452,-11.7987 L -35.0569,-11.7713 L -35.6326,-10.3994  L -35.6413,-10.3784 L -36.2202,-8.96318 L -36.2283,-8.94312 L -36.8099,-7.48547 L -36.8174,-7.46632 L -37.3997,-5.97119  L -37.4068,-5.95285 L -37.9935,-4.41063 L -38.0001,-4.39314 L -38.5881,-2.81219 L -38.5943,-2.79536 L -39.1841,-1.174  L -39.1898,-1.15791 L -39.776,0.488388 L -39.796,0.546906 L -39.9135,0.904663 L -39.931,0.960129 L -40.0422,1.32726  L -40.058,1.3817 L -40.1625,1.75728 L -40.1767,1.8107 L -40.2747,2.19583 L -40.2874,2.24799 L -40.3788,2.6422  L -40.39,2.69321 L -40.4747,3.09679 L -40.4847,3.14673 L -40.5623,3.55809 L -40.571,3.60657 L -40.6387,4.00912  L -40.653,4.10518 L -40.7837,5.12112 L -40.7984,5.27106 L -40.8645,6.24551 L -40.8702,6.40228 L -40.8749,7.35399  L -40.8704,7.5161 L -40.8146,8.44679 L -40.7991,8.61238 L -40.6833,9.52328 L -40.6563,9.69016 L -40.4807,10.5834  L -40.4421,10.7494 L -40.2066,11.6267 L -40.157,11.7894 L -39.8612,12.652 L -39.8006,12.8109 L -39.4488,13.6468  L -39.3761,13.804 L -38.9728,14.6027 L -38.8882,14.7567 L -38.4332,15.5193 L -38.3374,15.6676 L -37.8297,16.3963  L -37.7242,16.5369 L -37.1624,17.2332 L -37.0491,17.3641 L -36.4317,18.0292 L -36.3126,18.1491 L -35.6378,18.784  L -35.5151,18.8921 L -34.7838,19.4952 L -34.654,19.5952 L -33.8766,20.1549 L -33.7367,20.2487 L -32.9218,20.7557  L -32.7773,20.839 L -31.9218,21.2952 L -31.775,21.3674 L -30.8764,21.7734 L -30.7293,21.8343 L -29.7868,22.1898  L -29.6415,22.2397 L -28.6527,22.5447 L -28.5107,22.584 L -27.4756,22.8376 L -27.3383,22.8672 L -26.2628,23.0675  L -26.1115,23.0909 L -23.8395,23.3714 L -23.6548,23.3873 L -21.5132,23.4917 L -21.3079,23.4933 z M -22.1022,15.9282 L -23.4939,15.8586 L -23.5486,15.8539 L -24.9871,15.6766 L -25.042,15.6677 L -25.9511,15.4861  L -26.0126,15.471 L -26.8591,15.2257 L -26.923,15.204 L -27.7113,14.8957 L -27.7766,14.8666 L -28.5092,14.4962  L -28.5735,14.4597 L -29.2546,14.0265 L -29.3158,13.9831 L -29.9483,13.4859 L -30.0046,13.4369 L -30.5914,12.8729  L -30.6411,12.8203 L -31.1789,12.1926 L -31.2273,12.1297 L -31.6911,11.4558 L -31.737,11.3799 L -32.1135,10.6647  L -32.1498,10.5846 L -32.4453,9.8168 L -32.4712,9.73624 L -32.6858,8.91045 L -32.7017,8.83217 L -32.834,7.94371  L -32.8412,7.87065 L -32.8885,6.9162 L -32.8888,6.84932 L -32.848,5.82729 L -32.8432,5.76709 L -32.7098,4.66266  L -32.7046,4.62685 L -32.6401,4.24564 L -32.6372,4.22928 L -32.5627,3.84007 L -32.5597,3.82509 L -32.4777,3.44292  L -32.4744,3.42822 L -32.3854,3.05521 L -32.3812,3.03851 L -32.2859,2.67691 L -32.2807,2.65785 L -32.1784,2.30484  L -32.173,2.28711 L -32.0633,1.94064 L -32.0574,1.9229 L -31.9395,1.58141 L -31.9351,1.56891 L -31.3809,0.0346832  L -30.8253,-1.47548 L -30.266,-2.96739 L -29.7115,-4.41878 L -29.1557,-5.84567 L -29.1522,-5.85454 L -28.5957,-7.25514  L -28.039,-8.62836 L -27.4904,-9.95445 L -27.4779,-9.98289 L -26.8031,-11.4405 L -26.7804,-11.4854 L -26.0531,-12.8135  L -26.0246,-12.8611 L -25.2401,-14.0732 L -25.206,-14.1216 L -24.3652,-15.2192 L -24.3243,-15.2681 L -23.4283,-16.2527  L -23.3808,-16.3004 L -22.4286,-17.1753 L -22.3751,-17.2201 L -21.366,-17.9875 L -21.3072,-18.028 L -20.2372,-18.6916  L -20.1772,-18.7251 L -19.0538,-19.2861 L -18.9926,-19.3133 L -17.8286,-19.7697 L -17.7654,-19.7913 L -16.5602,-20.1431  L -16.4958,-20.1588 L -15.2472,-20.4063 L -15.1838,-20.4161 L -13.8892,-20.5589 L -13.8279,-20.5632 L -12.4851,-20.6004  L -12.4268,-20.5998 L -11.0351,-20.5302 L -10.9803,-20.5255 L -9.54202,-20.3482 L -9.48712,-20.3393 L -8.57816,-20.1577  L -8.51595,-20.1425 L -7.67021,-19.8973 L -7.60583,-19.8755 L -6.81757,-19.5672 L -6.7527,-19.5382 L -6.01978,-19.1677  L -5.95575,-19.1312 L -5.27477,-18.6981 L -5.21342,-18.6546 L -4.58096,-18.1572 L -4.52475,-18.1083 L -3.93813,-17.5443  L -3.88835,-17.4916 L -3.35043,-16.8635 L -3.30249,-16.8012 L -2.83832,-16.127 L -2.7925,-16.0513 L -2.4157,-15.3358  L -2.37955,-15.2561 L -2.08389,-14.4881 L -2.05804,-14.4077 L -1.84334,-13.5818 L -1.82736,-13.5035 L -1.69511,-12.6155  L -1.68782,-12.542 L -1.64053,-11.5877 L -1.6402,-11.5209 L -1.68095,-10.499 L -1.68579,-10.4386 L -1.81915,-9.33421  L -1.82433,-9.29845 L -1.88885,-8.91702 L -1.89169,-8.90125 L -1.9662,-8.51204 L -1.96942,-8.49617 L -2.0511,-8.11525  L -2.05482,-8.09882 L -2.14325,-7.72801 L -2.14769,-7.71033 L -2.24344,-7.347 L -2.24821,-7.32973 L -2.3506,-6.97621  L -2.35612,-6.95799 L -2.46529,-6.61343 L -2.47121,-6.59552 L -2.59138,-6.24744 L -3.13356,-4.70074 L -3.67769,-3.1899  L -4.22929,-1.69946 L -4.78156,-0.247803 L -5.34076,1.18176 L -5.90306,2.57933 L -6.47232,3.95444 L -6.47469,3.96007  L -7.03862,5.28352 L -7.04848,5.30571 L -7.72577,6.76855 L -7.74846,6.81354 L -8.47614,8.14207 L -8.50426,8.18921  L -9.28882,9.40121 L -9.32307,9.44978 L -10.1638,10.5473 L -10.2045,10.5959 L -11.1012,11.5812 L -11.1483,11.6286  L -12.1006,12.5035 L -12.154,12.5482 L -13.1632,13.3156 L -13.222,13.3561 L -14.2925,14.02 L -14.3524,14.0535  L -15.4758,14.6145 L -15.5365,14.6415 L -16.7006,15.098 L -16.7641,15.1197 L -17.9689,15.4715 L -18.0334,15.4872  L -19.2817,15.7347 L -19.3455,15.7445 L -20.6398,15.8873 L -20.7016,15.8916 L -22.0435,15.9288 z M 7.92802,27.6807 L 7.93617,27.6801 L 8.1658,27.6517 L 8.17851,27.6496 L 8.39896,27.6016 L 8.42079,27.5958  L 8.63039,27.5302 L 8.66426,27.5179 L 8.85449,27.4401 L 8.90202,27.4183 L 9.07367,27.3315 L 9.1347,27.2977  L 9.29094,27.2034 L 9.34959,27.165 L 9.50681,27.0532 L 9.54898,27.0207 L 9.70554,26.8895 L 9.73386,26.8637  L 9.88727,26.7115 L 9.90485,26.6924 L 10.0499,26.5205 L 10.0609,26.5062 L 10.1927,26.3176 L 10.2002,26.3058  L 10.3125,26.1089 L 10.3195,26.0953 L 10.4142,25.8873 L 10.4494,25.7997 L 10.4635,25.7636 L 16.79,9.2675  L 30.4821,11.4361 L 30.5618,11.4474 L 32.3563,11.6727 L 32.527,11.6882 L 34.2158,11.7834 L 34.4007,11.787  L 36.0154,11.7584 L 36.2133,11.747 L 37.7553,11.597 L 37.9633,11.5679 L 39.4355,11.2985 L 39.6497,11.2495  L 41.0556,10.862 L 41.2711,10.792 L 42.6151,10.2867 L 42.8263,10.196 L 44.1088,9.57404 L 44.3189,9.45946  L 45.5279,8.7227 L 45.7337,8.58278 L 46.863,7.72981 L 47.0517,7.57213 L 48.1081,6.59727 L 48.2752,6.42758  L 49.2614,5.32602 L 49.405,5.15027 L 50.3219,3.91724 L 50.4415,3.74113 L 51.2886,2.37254 L 51.3858,2.2007  L 52.1614,0.693314 L 52.2385,0.529129 L 52.939,-1.11552 L 53.0023,-1.27974 L 53.1321,-1.65613 L 53.1457,-1.69662  L 53.2791,-2.10574 L 53.2931,-2.15001 L 53.4125,-2.54056 L 53.4268,-2.58926 L 53.5318,-2.95969 L 53.5464,-3.01329  L 53.6372,-3.36313 L 53.6518,-3.42229 L 53.7287,-3.75095 L 53.7431,-3.81667 L 53.8064,-4.12451 L 53.8203,-4.1974  L 53.867,-4.46472 L 53.8857,-4.59035 L 53.9873,-5.41693 L 54.003,-5.5999 L 54.0407,-6.37164 L 54.0426,-6.56744  L 54.0209,-7.30342 L 54.0063,-7.50946 L 53.9271,-8.21254 L 53.8938,-8.42522 L 53.7586,-9.09804 L 53.7054,-9.31287  L 53.5145,-9.95993 L 53.4417,-10.1715 L 53.1946,-10.7967 L 53.1035,-11.0002 L 52.7941,-11.616 L 52.6999,-11.7866  L 52.3324,-12.3947 L 52.2383,-12.5389 L 51.8273,-13.1241 L 51.7229,-13.2621 L 51.2729,-13.8167 L 51.1596,-13.9469  L 50.6691,-14.4727 L 50.5487,-14.5931 L 50.0164,-15.091 L 49.8911,-15.2006 L 49.3151,-15.6714 L 49.1868,-15.7695  L 48.5653,-16.2139 L 48.4362,-16.3003 L 47.7639,-16.7204 L 47.6457,-16.7898 L 46.9295,-17.1845 L 46.8199,-17.2414  L 46.0752,-17.6051 L 45.9643,-17.6559 L 45.1949,-17.9862 L 45.0837,-18.0308 L 44.2881,-18.328 L 44.1774,-18.3665  L 43.3566,-18.63 L 43.2472,-18.6624 L 42.3985,-18.8928 L 42.291,-18.9195 L 41.4158,-19.1159 L 41.3108,-19.1371  L 40.388,-19.303 L 40.3366,-19.3117 L 23.0681,-22.0468 L 22.9543,-22.0621 L 22.8968,-22.0685 L 22.6659,-22.0836  L 22.6576,-22.0837 L 22.4221,-22.077 L 22.4139,-22.0763 L 22.1814,-22.0477 L 22.1685,-22.0455 L 21.9479,-21.9974  L 21.9259,-21.9916 L 21.7187,-21.9267 L 21.6849,-21.9145 L 21.4937,-21.8364 L 21.4456,-21.8143 L 21.2743,-21.7278  L 21.2135,-21.6942 L 21.0561,-21.5992 L 20.9977,-21.5609 L 20.8411,-21.4496 L 20.799,-21.4171 L 20.642,-21.2856  L 20.6136,-21.2598 L 20.4598,-21.107 L 20.4423,-21.0881 L 20.2984,-20.9176 L 20.2874,-20.9033 L 20.1561,-20.7156  L 20.1485,-20.7036 L 20.0343,-20.5036 L 20.0274,-20.49 L 19.9334,-20.2833 L 19.8977,-20.1944 L 19.8848,-20.1616  L 2.91983,23.9002 L 2.83871,24.149 L 2.78404,24.4049 L 2.75642,24.6651 L 2.75616,24.9268 L 2.78325,25.1871  L 2.83739,25.4431 L 2.91801,25.692 L 3.0242,25.9312 L 3.1548,26.1579 L 3.3084,26.3698 L 3.48331,26.5645  L 3.6776,26.7397 L 3.88914,26.8938 L 4.11563,27.0248 L 4.35457,27.1315 L 4.60338,27.2126 L 4.86179,27.2677  L 7.28009,27.6507 L 7.39371,27.666 L 7.45126,27.6725 L 7.6834,27.6875 L 7.69144,27.6877 z M 34.1579,4.28047 L 34.1095,4.27863 L 32.9584,4.19751 L 32.9143,4.19308 L 31.6898,4.03365 L 31.6705,4.03087  L 19.5291,2.10786 L 25.7441,-14.0294 L 38.8129,-11.9596 L 38.8295,-11.9567 L 39.8185,-11.7777 L 39.8538,-11.7704  L 40.7478,-11.5632 L 40.7881,-11.5526 L 41.5986,-11.3167 L 41.6437,-11.3019 L 42.3703,-11.0392 L 42.4207,-11.0189  L 43.0634,-10.7319 L 43.1191,-10.7042 L 43.6776,-10.3965 L 43.7382,-10.3592 L 44.2147,-10.0341 L 44.2787,-9.98515  L 44.6758,-9.64638 L 44.7409,-9.58372 L 45.0658,-9.23065 L 45.1272,-9.15445 L 45.3891,-8.78204 L 45.4415,-8.69565  L 45.6479,-8.29715 L 45.6881,-8.2048 L 45.8428,-7.77214 L 45.8693,-7.67932 L 45.9728,-7.20375 L 45.9865,-7.11496  L 46.0359,-6.59041 L 46.0391,-6.50851 L 46.0302,-5.93077 L 46.0255,-5.85782 L 45.9518,-5.2072 L 45.9457,-5.16428  L 45.8965,-4.87796 L 45.893,-4.85895 L 45.8321,-4.55325 L 45.8283,-4.53535 L 45.7592,-4.23038 L 45.755,-4.21257  L 45.6779,-3.90929 L 45.6732,-3.89159 L 45.588,-3.58977 L 45.5827,-3.57159 L 45.4893,-3.27034 L 45.4835,-3.25252  L 45.3824,-2.9537 L 45.3755,-2.9343 L 45.2712,-2.64995 L 45.2578,-2.61604 L 44.8485,-1.64552 L 44.8222,-1.58958  L 44.3682,-0.72052 L 44.3346,-0.662628 L 43.831,0.122437 L 43.7898,0.180374 L 43.2368,0.884628 L 43.1876,0.941147  L 42.5851,1.56775 L 42.5286,1.62071 L 41.8746,2.17336 L 41.8121,2.22076 L 41.1038,2.70238 L 41.0379,2.74237  L 40.2697,3.15601 L 40.2043,3.18723 L 39.3783,3.53394 L 39.315,3.55719 L 38.4365,3.83621 L 38.3744,3.85304  L 37.4446,4.06247 L 37.3845,4.07347 L 36.4012,4.21234 L 36.3441,4.21822 L 35.3053,4.28525 L 35.2526,4.2868  z M 78.4048,38.8432 L 78.4129,38.8425 L 78.6407,38.8145 L 78.6535,38.8123 L 78.8779,38.7635 L 78.8996,38.7577  L 79.1068,38.6928 L 79.1406,38.6805 L 79.331,38.6026 L 79.3787,38.5808 L 79.5506,38.4939 L 79.612,38.4598  L 79.7671,38.3663 L 79.8259,38.3278 L 79.9833,38.216 L 80.0258,38.1832 L 80.1831,38.0515 L 80.2112,38.0259  L 80.3645,37.8738 L 80.3821,37.8548 L 80.5266,37.6836 L 80.5376,37.6694 L 80.6694,37.481 L 80.6768,37.4692  L 80.7897,37.2716 L 80.7965,37.2582 L 80.8916,37.0494 L 80.9311,36.9512 L 80.9365,36.9377 L 81.7288,34.929  L 81.812,34.6808 L 81.8687,34.4254 L 81.8985,34.1654 L 81.9009,33.9037 L 81.8759,33.6432 L 81.8239,33.3868  L 81.7453,33.1372 L 81.6411,32.8972 L 81.5123,32.6693 L 81.3605,32.4562 L 81.1872,32.2601 L 80.9944,32.0833  L 80.7841,31.9275 L 80.5587,31.7946 L 80.3206,31.686 L 80.0725,31.6028 L 79.7943,31.5423 L 56.9715,27.9276  L 62.3632,13.78 L 83.7453,17.1666 L 83.8582,17.1818 L 83.9171,17.1884 L 84.149,17.2035 L 84.162,17.2038  L 84.39,17.1976 L 84.4058,17.1964 L 84.6288,17.1701 L 84.6519,17.1663 L 84.8657,17.1215 L 84.8998,17.1128  L 85.0984,17.0532 L 85.146,17.0368 L 85.3272,16.9661 L 85.3891,16.9391 L 85.5524,16.8608 L 85.6258,16.8223  L 85.7798,16.7344 L 85.8462,16.6933 L 86.0073,16.5847 L 86.0528,16.5514 L 86.2156,16.4214 L 86.2444,16.3964  L 86.4061,16.2428 L 86.4221,16.2262 L 86.5744,16.0525 L 86.582,16.0431 L 86.7216,15.85 L 86.7251,15.8447  L 86.8497,15.6316 L 86.8521,15.6269 L 86.9518,15.4106 L 86.9879,15.3215 L 86.996,15.3013 L 87.7879,13.2936  L 87.8711,13.0455 L 87.9279,12.79 L 87.9576,12.53 L 87.96,12.2684 L 87.9351,12.0079 L 87.883,11.7514  L 87.8044,11.5018 L 87.7002,11.2618 L 87.5715,11.034 L 87.4196,10.8209 L 87.2463,10.6248 L 87.0535,10.4479  L 86.8432,10.2922 L 86.6178,10.1593 L 86.3797,10.0506 L 86.1316,9.96747 L 85.8534,9.907 L 65.1008,6.6201  L 70.3275,-6.96814 L 93.2802,-3.33279 L 93.393,-3.31755 L 93.4526,-3.31087 L 93.6841,-3.29578 L 93.6969,-3.29553  L 93.9251,-3.3017 L 93.9411,-3.30286 L 94.1654,-3.32941 L 94.1887,-3.33324 L 94.4009,-3.37769 L 94.435,-3.38637  L 94.6332,-3.44579 L 94.6805,-3.46214 L 94.8626,-3.5331 L 94.9246,-3.56013 L 95.0884,-3.63864 L 95.1615,-3.67706  L 95.3158,-3.76514 L 95.3817,-3.80597 L 95.5425,-3.91444 L 95.5883,-3.94797 L 95.7522,-4.0789 L 95.781,-4.10396  L 95.9416,-4.25667 L 95.9576,-4.27338 L 96.1084,-4.4451 L 96.1159,-4.4545 L 96.2611,-4.65582 L 96.2644,-4.66087  L 96.3824,-4.86292 L 96.3847,-4.86742 L 96.4872,-5.08932 L 96.5231,-5.17818 L 96.5305,-5.19662 L 97.3233,-7.20525  L 97.4064,-7.45335 L 97.4633,-7.70879 L 97.4931,-7.96877 L 97.4955,-8.23044 L 97.4706,-8.49094 L 97.4186,-8.74739  L 97.3401,-8.99701 L 97.2359,-9.23706 L 97.1072,-9.46489 L 96.9554,-9.67804 L 96.7821,-9.87415 L 96.5893,-10.0511  L 96.3791,-10.2068 L 96.1537,-10.3398 L 95.9156,-10.4485 L 95.6675,-10.5317 L 95.3889,-10.5923 L 67.6513,-14.9855  L 67.5375,-15.0008 L 67.48,-15.0073 L 67.2491,-15.0223 L 67.2408,-15.0224 L 67.0053,-15.0157 L 66.9971,-15.0151  L 66.7646,-14.9864 L 66.7517,-14.9842 L 66.5311,-14.9361 L 66.5091,-14.9303 L 66.3019,-14.8654 L 66.2681,-14.8532  L 66.0769,-14.7751 L 66.0288,-14.7531 L 65.8575,-14.6665 L 65.7968,-14.6329 L 65.6393,-14.5379 L 65.5809,-14.4996  L 65.4243,-14.3883 L 65.3822,-14.3559 L 65.2252,-14.2243 L 65.1969,-14.1985 L 65.0436,-14.0463 L 65.026,-14.0273  L 64.8811,-13.8557 L 64.8702,-13.8414 L 64.7393,-13.6543 L 64.7318,-13.6424 L 64.6172,-13.4417 L 64.6103,-13.4281  L 64.5166,-13.2221 L 64.4809,-13.1332 L 64.468,-13.1003 L 47.503,30.9615 L 47.4219,31.2103 L 47.3672,31.4662  L 47.3396,31.7264 L 47.3394,31.9881 L 47.3665,32.2484 L 47.4206,32.5043 L 47.5012,32.7533 L 47.6074,32.9925  L 47.738,33.2192 L 47.8916,33.4311 L 48.0665,33.6257 L 48.2608,33.801 L 48.4724,33.9551 L 48.6989,34.0861  L 48.9378,34.1928 L 49.1866,34.2739 L 49.445,34.329 L 77.7569,38.8131 L 77.8705,38.8285 L 77.928,38.8349  L 78.1602,38.8499 L 78.1682,38.8501 z "
     stroke="black"
     fill="lightgray"
     stroke-width="0.5"
     id="path2696"
     style="fill:none;stroke-width:0.1;stroke-dasharray:none" />
</svg>
