<?xml version="1.0" encoding="UTF-8" standalone="no"?>
<svg
   width="234mm"
   height="104mm"
   viewBox="-117 -52 234 104"
   version="1.1"
   id="svg3566"
   sodipodi:docname="part_clearance.svg"
   inkscape:version="1.2.2 (732a01da63, 2022-12-09)"
   xmlns:inkscape="http://www.inkscape.org/namespaces/inkscape"
   xmlns:sodipodi="http://sodipodi.sourceforge.net/DTD/sodipodi-0.dtd"
   xmlns="http://www.w3.org/2000/svg"
   xmlns:svg="http://www.w3.org/2000/svg">
  <defs
     id="defs3570" />
  <sodipodi:namedview
     id="namedview3568"
     pagecolor="#505050"
     bordercolor="#eeeeee"
     borderopacity="1"
     inkscape:showpageshadow="0"
     inkscape:pageopacity="0"
     inkscape:pagecheckerboard="0"
     inkscape:deskcolor="#505050"
     inkscape:document-units="mm"
     showgrid="false"
     inkscape:zoom="1.3681446"
     inkscape:cx="442.57018"
     inkscape:cy="196.61665"
     inkscape:window-width="1920"
     inkscape:window-height="1027"
     inkscape:window-x="-8"
     inkscape:window-y="-8"
     inkscape:window-maximized="1"
     inkscape:current-layer="svg3566" />
  <title
     id="title3562">OpenSCAD Model</title>
  <path
     d=" M 92.86,31.1613 L 93.0683,31.1394 L 93.4198,31.0837 L 93.6245,31.0402 L 93.9682,30.9481 L 94.1674,30.8834  L 94.4997,30.7558 L 94.7193,30.6559 L 95.13,30.4383 L 95.2486,30.3702 L 96.3445,29.6897 L 96.3734,29.6714  L 96.4714,29.6082 L 96.5002,29.5893 L 98.5869,28.1922 L 98.617,28.1717 L 98.7186,28.1009 L 98.7483,28.0798  L 100.712,26.6591 L 100.743,26.6361 L 100.848,26.5568 L 100.879,26.5331 L 102.718,25.0905 L 102.75,25.0646  L 102.859,24.9757 L 102.891,24.9493 L 104.603,23.4886 L 104.636,23.4596 L 104.747,23.36 L 104.78,23.3304  L 106.363,21.8541 L 106.397,21.8217 L 106.511,21.7101 L 106.545,21.6768 L 107.998,20.1883 L 108.032,20.1519  L 108.148,20.0271 L 108.182,19.99 L 109.504,18.4929 L 109.538,18.4524 L 109.655,18.313 L 109.689,18.2715  L 110.879,16.7685 L 110.914,16.7233 L 111.03,16.5681 L 111.063,16.5221 L 112.122,15.0165 L 112.156,14.9665  L 112.269,14.7946 L 112.302,14.7435 L 113.229,13.2382 L 113.262,13.1831 L 113.371,12.9938 L 113.402,12.9376  L 114.199,11.4354 L 114.23,11.375 L 114.331,11.1681 L 114.36,11.1068 L 115.029,9.60902 L 115.057,9.5437  L 115.148,9.31978 L 115.173,9.25339 L 115.717,7.76149 L 115.741,7.69138 L 115.818,7.45169 L 115.84,7.38081  L 116.259,5.89563 L 116.279,5.82153 L 116.34,5.56821 L 116.356,5.49329 L 116.654,4.01334 L 116.668,3.9359  L 116.711,3.67203 L 116.722,3.59425 L 116.899,2.11914 L 116.907,2.03975 L 116.929,1.7693 L 116.934,1.68961  L 116.993,0.21666 L 116.995,0.136414 L 116.995,-0.136414 L 116.993,-0.21666 L 116.934,-1.68961 L 116.929,-1.7693  L 116.907,-2.03975 L 116.899,-2.11914 L 116.722,-3.59425 L 116.711,-3.67203 L 116.668,-3.9359 L 116.654,-4.01334  L 116.356,-5.49329 L 116.34,-5.56821 L 116.279,-5.82153 L 116.259,-5.89563 L 115.84,-7.38081 L 115.818,-7.45169  L 115.741,-7.69138 L 115.717,-7.76149 L 115.173,-9.25339 L 115.148,-9.31978 L 115.057,-9.5437 L 115.029,-9.60902  L 114.36,-11.1068 L 114.331,-11.1681 L 114.23,-11.375 L 114.199,-11.4354 L 113.402,-12.9376 L 113.371,-12.9938  L 113.262,-13.1831 L 113.229,-13.2382 L 112.302,-14.7435 L 112.269,-14.7946 L 112.156,-14.9665 L 112.122,-15.0165  L 111.063,-16.5221 L 111.03,-16.5681 L 110.914,-16.7233 L 110.879,-16.7685 L 109.689,-18.2715 L 109.655,-18.313  L 109.538,-18.4524 L 109.504,-18.4929 L 108.182,-19.99 L 108.148,-20.0271 L 108.032,-20.1519 L 107.998,-20.1883  L 106.545,-21.6768 L 106.511,-21.7101 L 106.397,-21.8217 L 106.363,-21.8541 L 104.78,-23.3304 L 104.747,-23.36  L 104.636,-23.4596 L 104.603,-23.4886 L 102.891,-24.9493 L 102.859,-24.9757 L 102.75,-25.0646 L 102.718,-25.0905  L 100.879,-26.5331 L 100.848,-26.5568 L 100.743,-26.6361 L 100.712,-26.6591 L 98.7483,-28.0798 L 98.7186,-28.1009  L 98.617,-28.1717 L 98.5869,-28.1922 L 96.5002,-29.5893 L 96.4716,-29.6081 L 96.3736,-29.6713 L 96.3445,-29.6897  L 94.1388,-31.0593 L 94.1111,-31.0762 L 94.0167,-31.1327 L 93.989,-31.149 L 91.6656,-32.4895 L 91.6391,-32.5045  L 91.5483,-32.5551 L 91.5213,-32.5699 L 89.0846,-33.8782 L 89.0588,-33.8918 L 88.9713,-33.9371 L 88.9458,-33.9501  L 86.3985,-35.2242 L 86.374,-35.2362 L 86.2898,-35.2769 L 86.2648,-35.2888 L 83.6095,-36.5268 L 83.5857,-36.5377  L 83.5046,-36.5742 L 83.4807,-36.5848 L 80.7219,-37.7843 L 80.6989,-37.7941 L 80.6207,-37.827 L 80.5977,-37.8364  L 77.7389,-38.9955 L 77.7168,-39.0043 L 77.6414,-39.0339 L 77.6191,-39.0424 L 74.6641,-40.1593 L 74.6425,-40.1673  L 74.5696,-40.1939 L 74.5482,-40.2016 L 71.5002,-41.2747 L 71.4795,-41.2819 L 71.409,-41.3058 L 71.3882,-41.3128  L 68.2525,-42.3401 L 68.2327,-42.3465 L 68.1643,-42.3681 L 68.1439,-42.3745 L 64.9222,-43.3553 L 64.9027,-43.3611  L 64.8364,-43.3806 L 64.8168,-43.3862 L 61.5167,-44.318 L 61.4975,-44.3233 L 61.433,-44.3408 L 61.4143,-44.3458  L 58.0366,-45.2282 L 58.0181,-45.233 L 57.9553,-45.2487 L 57.9369,-45.2532 L 54.4886,-46.0843 L 54.4707,-46.0885  L 54.4095,-46.1027 L 54.3913,-46.1068 L 50.8747,-46.8858 L 50.8573,-46.8896 L 50.7975,-46.9023 L 50.7797,-46.906  L 47.202,-47.6313 L 47.1847,-47.6348 L 47.1262,-47.6461 L 47.1091,-47.6493 L 43.4715,-48.3207 L 43.4547,-48.3237  L 43.3973,-48.3338 L 43.3804,-48.3367 L 39.6896,-48.9527 L 39.6731,-48.9553 L 39.6168,-48.9642 L 39.6002,-48.9668  L 35.86,-49.5267 L 35.8432,-49.5292 L 35.7878,-49.537 L 35.772,-49.5392 L 31.9891,-50.042 L 31.9731,-50.0441  L 31.9185,-50.0509 L 31.9025,-50.0528 L 28.0795,-50.4982 L 28.0637,-50.5 L 28.0098,-50.5058 L 27.9939,-50.5075  L 24.1366,-50.8947 L 24.1213,-50.8961 L 24.068,-50.9011 L 24.0521,-50.9025 L 20.1642,-51.2311 L 20.1486,-51.2323  L 20.0959,-51.2364 L 20.0804,-51.2375 L 16.1688,-51.5068 L 16.1537,-51.5078 L 16.1014,-51.511 L 16.0857,-51.5119  L 12.1526,-51.7219 L 12.1368,-51.7227 L 12.0848,-51.7251 L 12.07,-51.7257 L 8.12471,-51.8757 L 8.10997,-51.8762  L 8.0582,-51.8778 L 8.04248,-51.8782 L 4.08441,-51.9684 L 4.06898,-51.9687 L 4.01735,-51.9695 L 4.0024,-51.9697  L 0.0410004,-51.9997 L 0.0258179,-51.9998 L -0.0258179,-51.9998 L -0.0410004,-51.9997 L -4.0024,-51.9697 L -4.01735,-51.9695  L -4.06898,-51.9687 L -4.08441,-51.9684 L -8.04248,-51.8782 L -8.0582,-51.8778 L -8.10997,-51.8762 L -8.12471,-51.8757  L -12.07,-51.7257 L -12.0848,-51.7251 L -12.1368,-51.7227 L -12.1526,-51.7219 L -16.0857,-51.5119 L -16.1014,-51.511  L -16.1537,-51.5078 L -16.1688,-51.5068 L -20.0804,-51.2375 L -20.0959,-51.2364 L -20.1486,-51.2323 L -20.1642,-51.2311  L -24.0521,-50.9025 L -24.068,-50.9011 L -24.1213,-50.8961 L -24.1366,-50.8947 L -27.9939,-50.5075 L -28.0098,-50.5058  L -28.0637,-50.5 L -28.0795,-50.4982 L -31.9025,-50.0528 L -31.9185,-50.0509 L -31.9731,-50.0441 L -31.9891,-50.042  L -35.772,-49.5392 L -35.7878,-49.537 L -35.8432,-49.5292 L -35.86,-49.5267 L -39.6002,-48.9668 L -39.6168,-48.9642  L -39.6731,-48.9553 L -39.6896,-48.9527 L -43.3804,-48.3367 L -43.3973,-48.3338 L -43.4547,-48.3237 L -43.4715,-48.3207  L -47.1091,-47.6493 L -47.1262,-47.6461 L -47.1847,-47.6348 L -47.202,-47.6313 L -50.7797,-46.906 L -50.7975,-46.9023  L -50.8573,-46.8896 L -50.8747,-46.8858 L -54.3913,-46.1068 L -54.4095,-46.1027 L -54.4707,-46.0885 L -54.4885,-46.0843  L -57.8652,-45.2705 L -57.9663,-45.2433 L -58.3074,-45.142 L -58.5048,-45.0719 L -58.8335,-44.9354 L -59.0222,-44.8452  L -59.3348,-44.6751 L -59.5133,-44.5655 L -59.8064,-44.3636 L -59.9723,-44.2361 L -60.2428,-44.0048 L -60.3945,-43.8605  L -60.6393,-43.6022 L -60.7751,-43.4428 L -60.9915,-43.1603 L -61.1099,-42.9877 L -61.2956,-42.6841 L -61.3953,-42.5  L -61.5483,-42.1786 L -61.6282,-41.9852 L -61.7467,-41.6496 L -61.806,-41.4488 L -61.8888,-41.1027 L -61.9267,-40.8968  L -61.9729,-40.5439 L -61.9883,-40.3622 L -61.9985,-40.0984 L -62,-40.0208 L -62,-39.815 L -61.9973,-39.7104  L -61.9787,-39.355 L -61.9568,-39.1467 L -61.9011,-38.7952 L -61.8576,-38.5905 L -61.7655,-38.2467 L -61.7007,-38.0475  L -61.5732,-37.7153 L -61.4881,-37.5242 L -61.3265,-37.2071 L -61.2218,-37.0257 L -61.028,-36.7272 L -60.9049,-36.5578  L -60.681,-36.2813 L -60.5409,-36.1257 L -60.2893,-35.8741 L -60.1337,-35.7341 L -59.8572,-35.5101 L -59.6878,-35.387  L -59.3893,-35.1932 L -59.2079,-35.0885 L -58.8909,-34.9269 L -58.6997,-34.8418 L -58.3675,-34.7143 L -58.1683,-34.6495  L -57.8245,-34.5574 L -57.6198,-34.5139 L -57.2683,-34.4583 L -57.06,-34.4364 L -56.7046,-34.4177 L -56.4954,-34.4177  L -56.14,-34.4364 L -55.8951,-34.4644 L -55.4456,-34.5442 L -55.452,-34.5802 L -55.3262,-34.5675 L -51.9683,-35.3767  L -51.9535,-35.3802 L -48.5529,-36.1335 L -48.5379,-36.1367 L -45.0711,-36.8396 L -45.0562,-36.8424 L -41.5268,-37.4938  L -41.5183,-37.4953 L -37.931,-38.094 L -37.9194,-38.0958 L -34.2832,-38.6402 L -34.2731,-38.6416 L -30.5911,-39.1311  L -30.5769,-39.1329 L -26.8571,-39.5662 L -26.8457,-39.5675 L -23.0861,-39.9448 L -23.0751,-39.9459 L -19.2876,-40.2659  L -19.2763,-40.2668 L -15.4626,-40.5294 L -15.4518,-40.5301 L -11.613,-40.735 L -11.6061,-40.7354 L -7.75485,-40.8818  L -7.74277,-40.8822 L -3.88084,-40.9702 L -3.87276,-40.9703 L -0.00489807,-40.9997 L 0.00489807,-40.9997 L 3.87276,-40.9703  L 3.88084,-40.9702 L 7.74277,-40.8822 L 7.75485,-40.8818 L 11.6061,-40.7354 L 11.613,-40.735 L 15.4518,-40.5301  L 15.4626,-40.5294 L 19.2763,-40.2668 L 19.2876,-40.2659 L 23.0751,-39.9459 L 23.0861,-39.9448 L 26.8457,-39.5675  L 26.8571,-39.5662 L 30.5769,-39.1329 L 30.5911,-39.1311 L 34.2731,-38.6416 L 34.2832,-38.6402 L 37.9194,-38.0958  L 37.931,-38.094 L 41.5183,-37.4953 L 41.5268,-37.4938 L 45.0562,-36.8424 L 45.0711,-36.8396 L 48.5379,-36.1367  L 48.5529,-36.1335 L 51.9535,-35.3802 L 51.9683,-35.3767 L 55.3007,-34.5736 L 55.3147,-34.5701 L 58.5742,-33.7186  L 58.5874,-33.715 L 61.7668,-32.8173 L 61.7791,-32.8137 L 64.8766,-31.8707 L 64.8918,-31.8659 L 67.8968,-30.8813  L 67.9118,-30.8763 L 70.8267,-29.85 L 70.8432,-29.8439 L 73.6597,-28.7794 L 73.6753,-28.7733 L 76.393,-27.6715  L 76.4077,-27.6653 L 79.0181,-26.5303 L 79.0364,-26.5221 L 81.5376,-25.3559 L 81.5547,-25.3477 L 83.9438,-24.1528  L 83.9618,-24.1434 L 86.2326,-22.9242 L 86.252,-22.9134 L 88.4039,-21.6718 L 88.422,-21.6609 L 90.4507,-20.4012  L 90.4704,-20.3885 L 92.3724,-19.1152 L 92.3921,-19.1014 L 94.1651,-17.8185 L 94.1861,-17.8027 L 95.8271,-16.5155  L 95.8492,-16.4974 L 97.3571,-15.2107 L 97.3795,-15.1908 L 98.7535,-13.9097 L 98.7774,-13.8862 L 100.016,-12.6175  L 100.041,-12.5911 L 101.146,-11.339 L 101.17,-11.3102 L 102.145,-10.0796 L 102.168,-10.0479 L 103.014,-8.84525  L 103.037,-8.81003 L 103.759,-7.63908 L 103.781,-7.60031 L 104.384,-6.46465 L 104.405,-6.42213 L 104.896,-5.32411  L 104.914,-5.27802 L 105.301,-4.21584 L 105.317,-4.16678 L 105.608,-3.13857 L 105.62,-3.0864 L 105.821,-2.08646  L 105.83,-2.03214 L 105.948,-1.05281 L 105.953,-0.996384 L 105.992,-0.0280609 L 105.992,0.0280609 L 105.953,0.996384  L 105.948,1.05281 L 105.83,2.03214 L 105.821,2.08646 L 105.62,3.0864 L 105.608,3.13857 L 105.317,4.16678  L 105.301,4.21584 L 104.914,5.27802 L 104.896,5.32411 L 104.405,6.42213 L 104.384,6.46474 L 103.781,7.60031  L 103.759,7.63908 L 103.037,8.81003 L 103.014,8.84525 L 102.168,10.0479 L 102.145,10.0796 L 101.17,11.3102  L 101.146,11.339 L 100.041,12.5911 L 100.016,12.6175 L 98.7774,13.8862 L 98.7535,13.9097 L 97.3795,15.1908  L 97.3571,15.2107 L 95.8492,16.4974 L 95.8271,16.5155 L 94.1861,17.8027 L 94.1651,17.8185 L 92.3921,19.1014  L 92.3724,19.1152 L 90.4704,20.3885 L 90.4508,20.4012 L 89.5514,20.9596 L 89.4639,21.0172 L 89.1718,21.2205  L 89.0066,21.3489 L 88.7373,21.5816 L 88.5863,21.7266 L 88.3428,21.9862 L 88.2078,22.1462 L 87.9928,22.4298  L 87.8753,22.603 L 87.6911,22.9075 L 87.5923,23.0921 L 87.441,23.4142 L 87.362,23.6082 L 87.2452,23.9443  L 87.1869,24.1453 L 87.1059,24.4919 L 87.069,24.6978 L 87.0246,25.051 L 87.0103,25.2279 L 87.0013,25.4747  L 87,25.5472 L 87,25.7826 L 87.0027,25.8873 L 87.0213,26.2426 L 87.0432,26.4509 L 87.0989,26.8024  L 87.1424,27.0071 L 87.2345,27.3509 L 87.2993,27.5501 L 87.4268,27.8823 L 87.5119,28.0735 L 87.6735,28.3906  L 87.7782,28.5719 L 87.972,28.8704 L 88.0951,29.0398 L 88.319,29.3164 L 88.4591,29.4719 L 88.7107,29.7235  L 88.8663,29.8636 L 89.1428,30.0876 L 89.3122,30.2106 L 89.6107,30.4045 L 89.7921,30.5092 L 90.1091,30.6707  L 90.3003,30.7558 L 90.6325,30.8834 L 90.8317,30.9481 L 91.1755,31.0402 L 91.3802,31.0837 L 91.7317,31.1394  L 91.94,31.1613 L 92.2954,31.1799 L 92.5046,31.1799 z M -57.0204,19.4286 L -56.784,19.4218 L -56.6899,19.4169 L -56.6819,19.4163 L -56.588,19.4069 L -56.3551,19.3782  L -56.2616,19.3644 L -56.2488,19.3622 L -56.1614,19.3451 L -55.9424,19.2974 L -55.8553,19.2763 L -55.8334,19.2705  L -55.749,19.2461 L -55.5397,19.1806 L -55.4563,19.1524 L -55.4226,19.1402 L -55.3464,19.1108 L -55.1564,19.0331  L -55.0804,19.0002 L -55.0327,18.9783 L -54.9637,18.9451 L -54.7917,18.8582 L -54.7238,18.8222 L -54.6624,18.7881  L -54.5995,18.7517 L -54.4443,18.6581 L -54.3829,18.6195 L -54.3241,18.581 L -54.26,18.5374 L -54.1025,18.4254  L -54.0404,18.3795 L -53.9981,18.3469 L -53.9344,18.2957 L -53.7777,18.1645 L -53.7161,18.1106 L -53.6878,18.0849  L -53.6251,18.0253 L -53.4712,17.8727 L -53.4105,17.8097 L -53.3928,17.7906 L -53.3345,17.7246 L -53.1914,17.5552  L -53.1355,17.486 L -53.1246,17.4719 L -53.0699,17.3974 L -52.9369,17.2075 L -52.8852,17.1299 L -52.8777,17.118  L -52.8306,17.0398 L -52.7172,16.841 L -52.6739,16.7609 L -52.667,16.7474 L -52.6271,16.6648 L -52.5327,16.4575  L -52.4968,16.3737 L -52.4617,16.2861 L -52.4563,16.2727 L -52.4435,16.2399 L -52.4384,16.227 L -35.4726,-27.8357  L -35.4375,-27.9344 L -35.3564,-28.1832 L -35.302,-28.3853 L -35.2473,-28.6412 L -35.2144,-28.848 L -35.1868,-29.1082  L -35.1756,-29.3173 L -35.1753,-29.579 L -35.1861,-29.7879 L -35.2131,-30.0481 L -35.2457,-30.2551 L -35.2998,-30.5111  L -35.3538,-30.7133 L -35.4344,-30.9623 L -35.5092,-31.1578 L -35.6154,-31.3969 L -35.7102,-31.5835 L -35.8408,-31.8103  L -35.9547,-31.986 L -36.1083,-32.1979 L -36.2399,-32.3608 L -36.4149,-32.5555 L -36.5627,-32.7036 L -36.757,-32.8789  L -36.9195,-33.0108 L -37.131,-33.1648 L -37.3065,-33.279 L -37.533,-33.41 L -37.7194,-33.5053 L -37.9583,-33.612  L -38.1537,-33.6872 L -38.4025,-33.7683 L -38.6058,-33.823 L -38.8642,-33.878 L -38.9681,-33.8973 L -41.3864,-34.2803  L -41.4316,-34.2869 L -41.5452,-34.3023 L -41.5906,-34.3079 L -41.6482,-34.3143 L -41.7415,-34.3225 L -41.9744,-34.3376  L -42.0696,-34.3414 L -42.0777,-34.3416 L -42.1683,-34.3411 L -42.3996,-34.3345 L -42.4925,-34.3297 L -42.5006,-34.3291  L -42.5945,-34.3198 L -42.8293,-34.291 L -42.9236,-34.2771 L -42.9366,-34.2749 L -43.0247,-34.2578 L -43.2455,-34.2096  L -43.3335,-34.1884 L -43.3556,-34.1825 L -43.4393,-34.1583 L -43.6473,-34.0931 L -43.7301,-34.0652 L -43.7638,-34.053  L -43.8401,-34.0236 L -44.0298,-33.946 L -44.1055,-33.9133 L -44.1535,-33.8913 L -44.2226,-33.8581 L -44.3946,-33.7712  L -44.463,-33.735 L -44.524,-33.7012 L -44.5871,-33.6647 L -44.7438,-33.5702 L -44.8059,-33.5311 L -44.8641,-33.493  L -44.9281,-33.4494 L -45.0859,-33.3372 L -45.1478,-33.2913 L -45.19,-33.2588 L -45.254,-33.2074 L -45.4101,-33.0764  L -45.4713,-33.023 L -45.4996,-32.9972 L -45.5624,-32.9375 L -45.7158,-32.7853 L -45.776,-32.7229 L -45.7936,-32.7039  L -45.853,-32.6366 L -45.9978,-32.465 L -46.0542,-32.3951 L -46.0652,-32.3808 L -46.1192,-32.3071 L -46.2501,-32.1201  L -46.3011,-32.0434 L -46.3087,-32.0315 L -46.3559,-31.9529 L -46.4705,-31.7522 L -46.5145,-31.6707 L -46.5214,-31.6571  L -46.5607,-31.5756 L -46.6544,-31.3696 L -46.6901,-31.2861 L -46.7258,-31.1972 L -46.7309,-31.1844 L -46.7438,-31.1516  L -46.7491,-31.1381 L -57.2789,-3.78632 L -65.491,-34.3781 L -65.4984,-34.4049 L -65.5177,-34.4731 L -65.5258,-34.5009  L -65.6535,-34.9277 L -65.6809,-35.0125 L -65.7541,-35.2228 L -65.7853,-35.3063 L -65.9021,-35.5988 L -65.9447,-35.6978  L -66.0579,-35.9423 L -66.1059,-36.0389 L -66.2127,-36.2404 L -66.2771,-36.3528 L -66.447,-36.6286 L -66.5185,-36.7365  L -66.6012,-36.8531 L -66.6948,-36.9748 L -66.9396,-37.2691 L -67.042,-37.383 L -67.0883,-37.4307 L -67.1632,-37.5039  L -67.355,-37.6819 L -67.4886,-37.7954 L -67.6277,-37.9034 L -67.6839,-37.9455 L -67.6877,-37.9482 L -67.7744,-38.0074  L -67.9943,-38.1492 L -68.1758,-38.2532 L -68.4094,-38.3713 L -68.6009,-38.4558 L -68.8455,-38.5488 L -69.0044,-38.6017  L -69.1548,-38.6449 L -69.215,-38.6612 L -69.2965,-38.6819 L -69.3854,-38.7023 L -69.6088,-38.7482 L -69.6987,-38.7645  L -71.8458,-39.1046 L -71.8913,-39.1113 L -72.005,-39.1266 L -72.0508,-39.1323 L -72.1083,-39.1387 L -72.2003,-39.1468  L -72.4312,-39.1618 L -72.524,-39.1656 L -72.5323,-39.1658 L -72.6262,-39.1653 L -72.8618,-39.1586 L -72.9572,-39.1536  L -72.9654,-39.153 L -73.0574,-39.1438 L -73.2899,-39.1151 L -73.3824,-39.1015 L -73.3953,-39.0993 L -73.4842,-39.082  L -73.7048,-39.034 L -73.7923,-39.0128 L -73.8143,-39.007 L -73.8981,-38.9827 L -74.1054,-38.9179 L -74.188,-38.89  L -74.2218,-38.8778 L -74.2984,-38.8483 L -74.4896,-38.7702 L -74.5658,-38.7372 L -74.6139,-38.7152 L -74.6829,-38.682  L -74.8542,-38.5955 L -74.922,-38.5596 L -74.9827,-38.5259 L -75.0463,-38.4891 L -75.2037,-38.3942 L -75.2663,-38.3548  L -75.3247,-38.3166 L -75.3879,-38.2734 L -75.5445,-38.1621 L -75.6066,-38.1161 L -75.6488,-38.0836 L -75.7123,-38.0325  L -75.8693,-37.901 L -75.9313,-37.8468 L -75.9596,-37.8211 L -76.0221,-37.7616 L -76.1754,-37.6094 L -76.2348,-37.5479  L -76.2524,-37.5288 L -76.3124,-37.4609 L -76.4573,-37.2893 L -76.5136,-37.2194 L -76.5246,-37.2051 L -76.5787,-37.1314  L -76.7096,-36.9443 L -76.7605,-36.8677 L -76.7681,-36.8558 L -76.8153,-36.7773 L -76.9299,-36.5765 L -76.9735,-36.4958  L -76.9805,-36.4822 L -77.0202,-36.3998 L -77.1139,-36.1938 L -77.1494,-36.1108 L -77.1851,-36.0219 L -77.1901,-36.0092  L -77.2031,-35.9764 L -77.2084,-35.9626 L -94.1734,8.09911 L -94.2084,8.19781 L -94.2895,8.44662 L -94.3439,8.64868  L -94.3986,8.90459 L -94.4315,9.11136 L -94.4592,9.37157 L -94.4703,9.58067 L -94.4706,9.84236 L -94.4598,10.0513  L -94.4328,10.3116 L -94.4002,10.5184 L -94.3461,10.7744 L -94.2921,10.9768 L -94.2114,11.2258 L -94.1366,11.4212  L -94.0305,11.6604 L -93.9356,11.847 L -93.805,12.0737 L -93.6912,12.2493 L -93.5377,12.4612 L -93.4059,12.6242  L -93.231,12.8188 L -93.0832,12.9669 L -92.8889,13.1422 L -92.7263,13.2742 L -92.5148,13.4282 L -92.3394,13.5423  L -92.1129,13.6734 L -91.9264,13.7687 L -91.6875,13.8754 L -91.4921,13.9506 L -91.2433,14.0317 L -91.0402,14.0863  L -90.7818,14.1413 L -90.6778,14.1606 L -88.2595,14.5436 L -88.2144,14.5503 L -88.1008,14.5656 L -88.0549,14.5713  L -87.9973,14.5777 L -87.9047,14.5859 L -87.6726,14.6009 L -87.5775,14.6048 L -87.5695,14.6049 L -87.4769,14.6044  L -87.2403,14.5974 L -87.1456,14.5924 L -87.1375,14.5918 L -87.0462,14.5827 L -86.8185,14.5547 L -86.7291,14.5416  L -86.7163,14.5394 L -86.6246,14.5217 L -86.4001,14.4728 L -86.3102,14.451 L -86.2885,14.4453 L -86.2059,14.4213  L -85.9991,14.3565 L -85.9167,14.3287 L -85.8827,14.3164 L -85.8059,14.2868 L -85.615,14.2088 L -85.5396,14.1761  L -85.4921,14.1543 L -85.4225,14.1208 L -85.2505,14.0339 L -85.1824,13.9978 L -85.1213,13.9639 L -85.0583,13.9274  L -84.9029,13.8336 L -84.8414,13.795 L -84.7828,13.7567 L -84.7188,13.713 L -84.5607,13.6006 L -84.4986,13.5546  L -84.4564,13.5221 L -84.3924,13.4706 L -84.2363,13.3397 L -84.1751,13.2863 L -84.1468,13.2605 L -84.084,13.2008  L -83.9306,13.0485 L -83.8699,12.9856 L -83.8523,12.9666 L -83.7935,12.8999 L -83.6484,12.728 L -83.5911,12.657  L -83.5801,12.6426 L -83.5264,12.5693 L -83.3946,12.3807 L -83.3443,12.3051 L -83.3368,12.2933 L -83.2894,12.2144  L -83.177,12.0175 L -83.1343,11.9385 L -83.1273,11.9249 L -83.0871,11.8417 L -82.9923,11.6335 L -82.9565,11.5498  L -82.921,11.4615 L -82.9154,11.4473 L -82.9017,11.4125 L -82.8963,11.3986 L -72.349,-16.065 L -64.1561,14.636  L -64.1483,14.6646 L -64.1282,14.7357 L -64.12,14.7638 L -63.9927,15.19 L -63.9652,15.2749 L -63.892,15.4853  L -63.8609,15.5686 L -63.7443,15.8611 L -63.7016,15.9601 L -63.5885,16.2046 L -63.5407,16.3011 L -63.4339,16.5027  L -63.3694,16.6154 L -63.1993,16.8915 L -63.1277,16.9996 L -63.0451,17.116 L -62.9519,17.2374 L -62.7075,17.5314  L -62.6049,17.6455 L -62.5585,17.6933 L -62.4841,17.7662 L -62.2923,17.9442 L -62.1586,18.0579 L -62.0193,18.1661  L -61.9664,18.2058 L -61.9629,18.2084 L -61.8729,18.27 L -61.6531,18.4118 L -61.4715,18.516 L -61.238,18.6341  L -61.0464,18.7187 L -60.8018,18.8118 L -60.6431,18.8647 L -60.492,18.9081 L -60.4312,18.9245 L -60.3499,18.9451  L -60.261,18.9655 L -60.0375,19.0115 L -59.9477,19.0278 L -57.8006,19.3679 L -57.7552,19.3745 L -57.6416,19.3899  L -57.5959,19.3955 L -57.5384,19.4019 L -57.4464,19.41 L -57.2155,19.4251 L -57.1198,19.429 L -57.1117,19.4291  z M 0.0410004,51.9997 L 4.0024,51.9697 L 4.01735,51.9695 L 4.06898,51.9687 L 4.08441,51.9684 L 8.04248,51.8782  L 8.0582,51.8778 L 8.10997,51.8762 L 8.12471,51.8757 L 12.07,51.7257 L 12.0848,51.7251 L 12.1368,51.7227  L 12.1526,51.7219 L 16.0857,51.5119 L 16.1014,51.511 L 16.1537,51.5078 L 16.1688,51.5068 L 20.0804,51.2375  L 20.0959,51.2364 L 20.1486,51.2323 L 20.1642,51.2311 L 24.0521,50.9025 L 24.068,50.9011 L 24.1213,50.8961  L 24.1366,50.8947 L 27.9939,50.5075 L 28.0098,50.5058 L 28.0637,50.5 L 28.0795,50.4982 L 31.9025,50.0528  L 31.9185,50.0509 L 31.9731,50.0441 L 31.9891,50.042 L 35.772,49.5392 L 35.7878,49.537 L 35.8432,49.5292  L 35.86,49.5267 L 39.6002,48.9668 L 39.6168,48.9642 L 39.6731,48.9553 L 39.6896,48.9527 L 43.3804,48.3367  L 43.3973,48.3338 L 43.4547,48.3237 L 43.4715,48.3207 L 47.1091,47.6493 L 47.1263,47.6461 L 47.1848,47.6348  L 47.2019,47.6313 L 47.6729,47.5359 L 47.775,47.5124 L 48.1196,47.4235 L 48.3193,47.3607 L 48.6527,47.2363  L 48.8448,47.1529 L 49.1634,46.9943 L 49.3456,46.8914 L 49.6459,46.7004 L 49.8164,46.579 L 50.0951,46.3576  L 50.252,46.219 L 50.506,45.9697 L 50.6475,45.8155 L 50.8741,45.541 L 50.9987,45.3728 L 51.1954,45.0762  L 51.3017,44.8959 L 51.4663,44.5804 L 51.5532,44.3899 L 51.6839,44.0588 L 51.7505,43.8604 L 51.8458,43.5175  L 51.8912,43.3132 L 51.9502,42.9622 L 51.9746,42.7448 L 51.9967,42.3575 L 52,42.2435 L 52,42.0394  L 51.9973,41.9348 L 51.9787,41.5794 L 51.9568,41.3711 L 51.9011,41.0196 L 51.8576,40.8149 L 51.7655,40.4712  L 51.7007,40.272 L 51.5732,39.9397 L 51.4881,39.7486 L 51.3265,39.4315 L 51.2218,39.2502 L 51.028,38.9517  L 50.9049,38.7823 L 50.681,38.5057 L 50.5409,38.3502 L 50.2893,38.0985 L 50.1337,37.9585 L 49.8572,37.7345  L 49.6878,37.6114 L 49.3893,37.4176 L 49.2079,37.3129 L 48.8909,37.1514 L 48.6997,37.0662 L 48.3675,36.9387  L 48.1683,36.874 L 47.8245,36.7819 L 47.6198,36.7384 L 47.2683,36.6827 L 47.06,36.6608 L 46.7046,36.6422  L 46.4954,36.6422 L 46.14,36.6608 L 45.941,36.6812 L 45.6208,36.7304 L 45.527,36.7471 L 45.0708,36.8396  L 45.0562,36.8424 L 41.5268,37.4938 L 41.518,37.4953 L 37.931,38.094 L 37.9194,38.0958 L 34.2832,38.6402  L 34.2731,38.6416 L 30.5911,39.1311 L 30.5769,39.1329 L 26.8571,39.5662 L 26.8457,39.5675 L 23.0861,39.9448  L 23.0751,39.9459 L 19.2876,40.2659 L 19.2763,40.2668 L 15.4626,40.5294 L 15.4518,40.5301 L 11.613,40.735  L 11.6061,40.7354 L 7.75485,40.8818 L 7.74277,40.8822 L 3.88084,40.9702 L 3.87276,40.9703 L 0.00489807,40.9997  L -0.00489807,40.9997 L -3.87276,40.9703 L -3.88084,40.9702 L -7.74277,40.8822 L -7.75485,40.8818 L -11.6061,40.7354  L -11.613,40.735 L -15.4518,40.5301 L -15.4626,40.5294 L -19.2763,40.2668 L -19.2876,40.2659 L -23.0751,39.9459  L -23.0861,39.9448 L -26.8457,39.5675 L -26.8571,39.5662 L -30.5769,39.1329 L -30.5911,39.1311 L -34.2731,38.6416  L -34.2832,38.6402 L -37.9194,38.0958 L -37.931,38.094 L -41.518,37.4953 L -41.5268,37.4938 L -45.0562,36.8424  L -45.0711,36.8396 L -48.5379,36.1367 L -48.5529,36.1335 L -51.9535,35.3802 L -51.9683,35.3767 L -55.3007,34.5736  L -55.3147,34.5701 L -58.5742,33.7186 L -58.5874,33.715 L -61.7668,32.8173 L -61.7791,32.8137 L -64.8766,31.8707  L -64.8918,31.8659 L -67.8968,30.8813 L -67.9118,30.8763 L -70.8267,29.85 L -70.8432,29.8439 L -73.6597,28.7794  L -73.6753,28.7733 L -76.393,27.6715 L -76.4077,27.6653 L -79.0181,26.5303 L -79.0364,26.5221 L -81.5376,25.3559  L -81.5547,25.3477 L -83.9438,24.1528 L -83.9618,24.1434 L -86.2326,22.9242 L -86.252,22.9134 L -88.4039,21.6718  L -88.422,21.6609 L -90.4507,20.4012 L -90.4704,20.3885 L -92.3724,19.1152 L -92.3921,19.1014 L -94.1651,17.8185  L -94.1861,17.8027 L -95.8271,16.5155 L -95.8492,16.4974 L -97.3571,15.2107 L -97.3795,15.1908 L -98.7535,13.9097  L -98.7774,13.8862 L -100.016,12.6175 L -100.041,12.5911 L -101.146,11.339 L -101.17,11.3102 L -102.145,10.0796  L -102.168,10.0479 L -103.014,8.84525 L -103.037,8.81003 L -103.759,7.63908 L -103.781,7.60031 L -104.384,6.46474  L -104.405,6.42213 L -104.896,5.32411 L -104.914,5.27802 L -105.301,4.21584 L -105.317,4.16678 L -105.608,3.13857  L -105.62,3.0864 L -105.821,2.08646 L -105.83,2.03214 L -105.948,1.05281 L -105.953,0.996384 L -105.992,0.0280609  L -105.992,-0.0280609 L -105.953,-0.996384 L -105.948,-1.05281 L -105.83,-2.03214 L -105.821,-2.08646 L -105.62,-3.0864  L -105.608,-3.13857 L -105.317,-4.16678 L -105.301,-4.21584 L -104.914,-5.27802 L -104.896,-5.32411 L -104.405,-6.42213  L -104.384,-6.46465 L -103.781,-7.60031 L -103.759,-7.63908 L -103.037,-8.81003 L -103.014,-8.84525 L -102.168,-10.0479  L -102.145,-10.0796 L -101.17,-11.3102 L -101.146,-11.339 L -100.041,-12.5911 L -100.016,-12.6175 L -98.7774,-13.8862  L -98.7535,-13.9097 L -97.3795,-15.1908 L -97.3571,-15.2107 L -95.8492,-16.4974 L -95.8271,-16.5155 L -94.1861,-17.8027  L -94.1651,-17.8185 L -92.3921,-19.1014 L -92.3724,-19.1152 L -90.4704,-20.3885 L -90.4507,-20.4012 L -88.422,-21.6609  L -88.403,-21.6723 L -87.7013,-22.0772 L -87.612,-22.1319 L -87.3135,-22.3256 L -87.144,-22.4487 L -86.8674,-22.6725  L -86.7118,-22.8126 L -86.4601,-23.0641 L -86.32,-23.2197 L -86.0959,-23.4962 L -85.9728,-23.6655 L -85.7789,-23.9639  L -85.6742,-24.1451 L -85.5126,-24.4622 L -85.4273,-24.6535 L -85.2997,-24.9857 L -85.235,-25.1847 L -85.1428,-25.5285  L -85.0992,-25.7333 L -85.0434,-26.0848 L -85.0215,-26.2932 L -85.0028,-26.6495 L -85,-26.7545 L -85,-26.9854  L -85.0027,-27.09 L -85.0213,-27.4454 L -85.0432,-27.6537 L -85.0989,-28.0052 L -85.1424,-28.2099 L -85.2345,-28.5536  L -85.2993,-28.7528 L -85.4268,-29.0851 L -85.5119,-29.2762 L -85.6735,-29.5933 L -85.7782,-29.7746 L -85.972,-30.0731  L -86.0951,-30.2425 L -86.319,-30.5191 L -86.4591,-30.6746 L -86.7107,-30.9263 L -86.8663,-31.0663 L -87.1428,-31.2903  L -87.3122,-31.4134 L -87.6107,-31.6072 L -87.7921,-31.7119 L -88.1091,-31.8734 L -88.3003,-31.9586 L -88.6325,-32.0861  L -88.8317,-32.1508 L -89.1755,-32.2429 L -89.3802,-32.2864 L -89.7317,-32.3421 L -89.94,-32.364 L -90.2954,-32.3826  L -90.5046,-32.3826 L -90.86,-32.364 L -91.0683,-32.3421 L -91.4198,-32.2864 L -91.6245,-32.2429 L -91.9682,-32.1508  L -92.1674,-32.0861 L -92.4997,-31.9586 L -92.6906,-31.8736 L -93.0069,-31.7125 L -93.0987,-31.6627 L -93.989,-31.149  L -94.0169,-31.1326 L -94.1112,-31.0761 L -94.1388,-31.0593 L -96.3445,-29.6897 L -96.3736,-29.6713 L -96.4716,-29.6081  L -96.5002,-29.5893 L -98.5869,-28.1922 L -98.617,-28.1717 L -98.7186,-28.1009 L -98.7483,-28.0798 L -100.712,-26.6591  L -100.743,-26.6361 L -100.848,-26.5568 L -100.879,-26.5331 L -102.718,-25.0905 L -102.75,-25.0646 L -102.859,-24.9757  L -102.891,-24.9493 L -104.603,-23.4886 L -104.636,-23.4596 L -104.747,-23.36 L -104.78,-23.3304 L -106.363,-21.8541  L -106.397,-21.8217 L -106.511,-21.7101 L -106.545,-21.6768 L -107.998,-20.1883 L -108.032,-20.1519 L -108.148,-20.0271  L -108.182,-19.99 L -109.504,-18.4929 L -109.538,-18.4524 L -109.655,-18.313 L -109.689,-18.2715 L -110.879,-16.7685  L -110.914,-16.7233 L -111.03,-16.5681 L -111.063,-16.5221 L -112.122,-15.0165 L -112.156,-14.9665 L -112.269,-14.7946  L -112.302,-14.7435 L -113.229,-13.2382 L -113.262,-13.1831 L -113.371,-12.9938 L -113.402,-12.9376 L -114.199,-11.4354  L -114.23,-11.375 L -114.331,-11.1681 L -114.36,-11.1068 L -115.029,-9.60902 L -115.057,-9.5437 L -115.148,-9.31978  L -115.173,-9.25339 L -115.717,-7.76149 L -115.741,-7.69138 L -115.818,-7.45169 L -115.84,-7.38081 L -116.259,-5.89563  L -116.279,-5.82153 L -116.34,-5.56821 L -116.356,-5.49329 L -116.654,-4.01334 L -116.668,-3.9359 L -116.711,-3.67203  L -116.722,-3.59425 L -116.899,-2.11914 L -116.907,-2.03975 L -116.929,-1.7693 L -116.934,-1.68961 L -116.993,-0.21666  L -116.995,-0.136414 L -116.995,0.136414 L -116.993,0.21666 L -116.934,1.68961 L -116.929,1.7693 L -116.907,2.03975  L -116.899,2.11914 L -116.722,3.59425 L -116.711,3.67203 L -116.668,3.9359 L -116.654,4.01334 L -116.356,5.49329  L -116.34,5.56821 L -116.279,5.82153 L -116.259,5.89563 L -115.84,7.38081 L -115.818,7.45169 L -115.741,7.69138  L -115.717,7.76149 L -115.173,9.25339 L -115.148,9.31978 L -115.057,9.5437 L -115.029,9.60902 L -114.36,11.1068  L -114.331,11.1681 L -114.23,11.375 L -114.199,11.4354 L -113.402,12.9376 L -113.371,12.9938 L -113.262,13.1831  L -113.229,13.2382 L -112.302,14.7435 L -112.269,14.7946 L -112.156,14.9665 L -112.122,15.0165 L -111.063,16.5221  L -111.03,16.5681 L -110.914,16.7233 L -110.879,16.7685 L -109.689,18.2715 L -109.655,18.313 L -109.538,18.4524  L -109.504,18.4929 L -108.182,19.99 L -108.148,20.0271 L -108.032,20.1519 L -107.998,20.1883 L -106.545,21.6768  L -106.511,21.7101 L -106.397,21.8217 L -106.363,21.8541 L -104.78,23.3304 L -104.747,23.36 L -104.636,23.4596  L -104.603,23.4886 L -102.891,24.9493 L -102.859,24.9757 L -102.75,25.0646 L -102.718,25.0905 L -100.879,26.5331  L -100.848,26.5568 L -100.743,26.6361 L -100.712,26.6591 L -98.7483,28.0798 L -98.7186,28.1009 L -98.617,28.1717  L -98.5869,28.1922 L -96.5002,29.5893 L -96.4716,29.6081 L -96.3736,29.6713 L -96.3445,29.6897 L -94.1388,31.0593  L -94.1111,31.0762 L -94.0167,31.1327 L -93.989,31.149 L -91.6656,32.4895 L -91.6391,32.5045 L -91.5483,32.5551  L -91.5213,32.5699 L -89.0846,33.8782 L -89.0588,33.8918 L -88.9713,33.9371 L -88.9458,33.9501 L -86.3985,35.2242  L -86.374,35.2362 L -86.2898,35.2769 L -86.2648,35.2888 L -83.6095,36.5268 L -83.5857,36.5377 L -83.5046,36.5742  L -83.4807,36.5848 L -80.7219,37.7843 L -80.6989,37.7941 L -80.6207,37.827 L -80.5977,37.8364 L -77.7389,38.9955  L -77.7168,39.0043 L -77.6414,39.0339 L -77.6191,39.0424 L -74.6641,40.1593 L -74.6425,40.1673 L -74.5696,40.1939  L -74.5482,40.2016 L -71.5002,41.2747 L -71.4795,41.2819 L -71.409,41.3058 L -71.3882,41.3128 L -68.2525,42.3401  L -68.2327,42.3465 L -68.1643,42.3681 L -68.1439,42.3745 L -64.9222,43.3553 L -64.9027,43.3611 L -64.8364,43.3806  L -64.8168,43.3862 L -61.5167,44.318 L -61.4975,44.3233 L -61.433,44.3408 L -61.4143,44.3458 L -58.0366,45.2282  L -58.0181,45.233 L -57.9553,45.2487 L -57.9369,45.2532 L -54.4886,46.0843 L -54.4707,46.0885 L -54.4095,46.1027  L -54.3913,46.1068 L -50.8747,46.8858 L -50.8573,46.8896 L -50.7975,46.9023 L -50.7797,46.906 L -47.202,47.6313  L -47.1847,47.6348 L -47.1262,47.6461 L -47.1091,47.6493 L -43.4715,48.3207 L -43.4547,48.3237 L -43.3973,48.3338  L -43.3804,48.3367 L -39.6896,48.9527 L -39.6731,48.9553 L -39.6168,48.9642 L -39.6002,48.9668 L -35.86,49.5267  L -35.8432,49.5292 L -35.7878,49.537 L -35.772,49.5392 L -31.9891,50.042 L -31.9731,50.0441 L -31.9185,50.0509  L -31.9025,50.0528 L -28.0795,50.4982 L -28.0637,50.5 L -28.0098,50.5058 L -27.9939,50.5075 L -24.1366,50.8947  L -24.1213,50.8961 L -24.068,50.9011 L -24.0521,50.9025 L -20.1642,51.2311 L -20.1486,51.2323 L -20.0959,51.2364  L -20.0804,51.2375 L -16.1688,51.5068 L -16.1537,51.5078 L -16.1014,51.511 L -16.0857,51.5119 L -12.1526,51.7219  L -12.1368,51.7227 L -12.0848,51.7251 L -12.07,51.7257 L -8.12471,51.8757 L -8.10997,51.8762 L -8.0582,51.8778  L -8.04248,51.8782 L -4.08441,51.9684 L -4.06898,51.9687 L -4.01735,51.9695 L -4.0024,51.9697 L -0.0410004,51.9997  L -0.0258179,51.9998 L 0.0258179,51.9998 z M -21.2411,25.4922 L -19.2249,25.4247 L -19.1348,25.4197 L -18.9101,25.402 L -18.8204,25.3929 L -16.9273,25.1577  L -16.8306,25.1432 L -16.5898,25.1013 L -16.494,25.0821 L -14.7203,24.6829 L -14.6193,24.6574 L -14.3684,24.587  L -14.2687,24.5562 L -12.6092,23.9957 L -12.5069,23.9581 L -12.2539,23.8569 L -12.1538,23.8137 L -10.601,23.0926  L -10.5014,23.043 L -10.256,22.912 L -10.1591,22.8567 L -8.69217,21.9652 L -8.61143,21.9134 L -8.41292,21.7793  L -8.33484,21.7238 L -6.92879,20.6726 L -6.86603,20.6237 L -6.71159,20.4984 L -6.65082,20.447 L -5.30806,19.2656  L -5.25066,19.2131 L -5.10959,19.0789 L -5.05414,19.024 L -3.78592,17.7196 L -3.73442,17.6646 L -3.60828,17.5247  L -3.55887,17.4678 L -2.36418,16.0377 L -2.31883,15.9814 L -2.20827,15.8389 L -2.16516,15.7812 L -1.04385,14.2231  L -1.00487,14.1669 L -0.909729,14.0247 L -0.872604,13.9671 L 0.175049,12.2787 L 0.20813,12.2234 L 0.288589,12.0839  L 0.319885,12.0276 L 1.29292,10.2074 L 1.32056,10.1537 L 1.38754,10.0188 L 1.4135,9.96442 L 2.32056,7.98991  L 2.33406,7.95988 L 2.36754,7.88373 L 2.3808,7.85286 L 2.95099,6.49422 L 2.96318,6.46474 L 3.54207,5.04944  L 3.55663,5.01341 L 4.13812,3.55597 L 4.15172,3.52148 L 4.7386,2.01454 L 4.74814,1.98969 L 5.3364,0.443466  L 5.34546,0.419327 L 5.93541,-1.16707 L 5.94446,-1.19171 L 6.53706,-2.82083 L 6.54497,-2.84282 L 7.13998,-4.51401  L 7.2778,-4.89517 L 7.2877,-4.92317 L 7.3119,-4.99335 L 7.32135,-5.02144 L 7.44661,-5.40291 L 7.45525,-5.42981  L 7.4763,-5.49713 L 7.48453,-5.52412 L 7.60318,-5.92314 L 7.61058,-5.94862 L 7.62885,-6.01317 L 7.63605,-6.03932  L 7.74776,-6.45555 L 7.75418,-6.48009 L 7.76988,-6.5417 L 7.776,-6.56639 L 7.88075,-7.00044 L 7.88629,-7.02403  L 7.89978,-7.08305 L 7.90504,-7.1067 L 8.00227,-7.55719 L 8.00703,-7.57988 L 8.01854,-7.63635 L 8.02298,-7.65883  L 8.11278,-8.12694 L 8.11685,-8.14885 L 8.12657,-8.20276 L 8.13028,-8.224 L 8.2094,-8.69164 L 8.21555,-8.73019  L 8.22997,-8.82686 L 8.23535,-8.86565 L 8.36441,-9.86452 L 8.37112,-9.92326 L 8.38574,-10.0705 L 8.39072,-10.1296  L 8.45721,-11.0875 L 8.46054,-11.149 L 8.46648,-11.3032 L 8.4679,-11.365 L 8.47498,-12.3 L 8.47444,-12.3639  L 8.47055,-12.5236 L 8.46797,-12.5875 L 8.41646,-13.501 L 8.4117,-13.5663 L 8.39709,-13.7298 L 8.39017,-13.7951  L 8.28069,-14.6883 L 8.27144,-14.7545 L 8.24554,-14.9198 L 8.23409,-14.9857 L 8.06686,-15.8604 L 8.05307,-15.9265  L 8.01578,-16.0912 L 7.99973,-16.1569 L 7.77477,-17.0148 L 7.75652,-17.0798 L 7.70815,-17.2418 L 7.6877,-17.3063  L 7.40524,-18.1471 L 7.38197,-18.2126 L 7.32103,-18.3751 L 7.29555,-18.4396 L 6.95894,-19.2504 L 6.92986,-19.317  L 6.85413,-19.4822 L 6.82263,-19.5478 L 6.43387,-20.3203 L 6.39955,-20.3855 L 6.31076,-20.5469 L 6.27406,-20.6108  L 5.83217,-21.3482 L 5.793,-21.4109 L 5.69241,-21.5655 L 5.65111,-21.6264 L 5.15463,-22.3313 L 5.11142,-22.3903  L 5.00073,-22.5358 L 4.9554,-22.5932 L 4.40285,-23.267 L 4.35641,-23.3216 L 4.23781,-23.4561 L 4.18933,-23.5091  L 3.5788,-24.1533 L 3.53004,-24.203 L 3.40596,-24.3251 L 3.35545,-24.3731 L 2.68513,-24.9883 L 2.63489,-25.0329  L 2.50768,-25.142 L 2.45616,-25.1848 L 1.72635,-25.7695 L 1.67345,-25.8105 L 1.53964,-25.9105 L 1.48549,-25.9496  L 0.705048,-26.4935 L 0.648682,-26.5314 L 0.506042,-26.6238 L 0.448318,-26.6598 L -0.377502,-27.1556 L -0.434967,-27.1888  L -0.579849,-27.2694 L -0.638306,-27.3006 L -1.51347,-27.75 L -1.57095,-27.7784 L -1.71571,-27.8469 L -1.77405,-27.8734  L -2.69984,-28.2761 L -2.75679,-28.2998 L -2.89957,-28.3567 L -2.95683,-28.3786 L -3.93501,-28.7343 L -3.99043,-28.7535  L -4.12961,-28.7995 L -4.18555,-28.8171 L -5.21704,-29.1251 L -5.27028,-29.1402 L -5.40443,-29.1762 L -5.45854,-29.19  L -6.54478,-29.4495 L -6.59575,-29.461 L -6.72395,-29.4881 L -6.77556,-29.4983 L -7.91451,-29.7081 L -7.96529,-29.7167  L -8.09247,-29.7368 L -8.1434,-29.7441 L -9.53993,-29.9276 L -9.59459,-29.934 L -9.73114,-29.9482 L -9.78574,-29.9531  L -11.1481,-30.0564 L -11.2055,-30.0599 L -11.349,-30.0667 L -11.4064,-30.0685 L -12.736,-30.0928 L -12.7961,-30.093  L -12.9457,-30.0912 L -13.0053,-30.0896 L -14.3029,-30.0355 L -14.3645,-30.032 L -14.5189,-30.0208 L -14.5808,-30.0153  L -15.8477,-29.8836 L -15.9108,-29.8761 L -16.0683,-29.8546 L -16.1311,-29.845 L -17.3685,-29.6363 L -17.4322,-29.6245  L -17.5909,-29.5924 L -17.6542,-29.5785 L -18.864,-29.2928 L -18.9275,-29.2767 L -19.0854,-29.2339 L -19.1483,-29.2158  L -20.3363,-28.8517 L -20.3941,-28.833 L -20.5385,-28.7839 L -20.596,-28.7634 L -21.7585,-28.328 L -21.812,-28.3071  L -21.9449,-28.2529 L -21.9978,-28.2304 L -23.122,-27.7341 L -23.175,-27.7097 L -23.3071,-27.6468 L -23.3597,-27.6207  L -24.4418,-27.0651 L -24.4941,-27.0373 L -24.6238,-26.9658 L -24.6753,-26.9364 L -25.7168,-26.3211 L -25.7677,-26.29  L -25.8937,-26.2105 L -25.9435,-26.178 L -26.9456,-25.5024 L -26.9944,-25.4684 L -27.1151,-25.3818 L -27.1628,-25.3464  L -28.126,-24.6102 L -28.1722,-24.5738 L -28.2866,-24.4809 L -28.3318,-24.4431 L -29.2577,-23.6447 L -29.3011,-23.6062  L -29.4081,-23.5084 L -29.4504,-23.4686 L -30.3413,-22.6055 L -30.3791,-22.568 L -30.4722,-22.4727 L -30.509,-22.4341  L -31.3629,-21.5137 L -31.3965,-21.4767 L -31.4785,-21.3837 L -31.5107,-21.3464 L -32.319,-20.3835 L -32.3503,-20.3452  L -32.4276,-20.2484 L -32.4581,-20.2091 L -33.2195,-19.205 L -33.2487,-19.1654 L -33.3208,-19.0653 L -33.3492,-19.0249  L -34.0633,-17.9798 L -34.0905,-17.939 L -34.1568,-17.8366 L -34.1827,-17.7954 L -34.8504,-16.7079 L -34.8751,-16.6666  L -34.9355,-16.5627 L -34.9592,-16.5208 L -35.58,-15.3913 L -35.6022,-15.3497 L -35.6565,-15.2451 L -35.6777,-15.203  L -36.2525,-14.0292 L -36.2724,-13.9874 L -36.3206,-13.8829 L -36.3394,-13.8409 L -36.88,-12.5946 L -36.8963,-12.5564  L -36.9011,-12.5452 L -37.48,-11.1658 L -37.4887,-11.1448 L -38.0748,-9.71204 L -38.086,-9.68425 L -38.6709,-8.21802  L -38.6811,-8.19215 L -39.2661,-6.69008 L -39.2761,-6.664 L -39.8655,-5.11467 L -39.8747,-5.0903 L -40.465,-3.50305  L -40.4738,-3.47905 L -41.0655,-1.85233 L -41.074,-1.82874 L -41.6601,-0.182434 L -41.6683,-0.158997 L -41.6883,-0.100479  L -41.6962,-0.0771332 L -41.8136,0.280624 L -41.821,0.303299 L -41.8384,0.358765 L -41.8451,0.380478 L -41.9563,0.747604  L -41.9627,0.769073 L -41.9785,0.823517 L -41.9848,0.845627 L -42.0893,1.22121 L -42.0952,1.24278 L -42.1094,1.2962  L -42.1149,1.3174 L -42.2129,1.70253 L -42.2181,1.72334 L -42.2308,1.7755 L -42.2357,1.7964 L -42.3271,2.19061  L -42.3316,2.21049 L -42.3429,2.26151 L -42.3474,2.28247 L -42.4321,2.68605 L -42.4362,2.70605 L -42.4461,2.756  L -42.45,2.77588 L -42.5276,3.18724 L -42.5312,3.2067 L -42.5398,3.25517 L -42.5432,3.27449 L -42.611,3.67705  L -42.617,3.71529 L -42.6313,3.81134 L -42.6367,3.84998 L -42.7674,4.86592 L -42.7742,4.92584 L -42.7889,5.07578  L -42.7938,5.13576 L -42.8599,6.11021 L -42.8632,6.17296 L -42.8689,6.32973 L -42.8701,6.39244 L -42.8748,7.34415  L -42.8741,7.40875 L -42.8697,7.57086 L -42.8668,7.63593 L -42.811,8.56662 L -42.8059,8.63304 L -42.7904,8.79863  L -42.7831,8.86464 L -42.6673,9.77554 L -42.6576,9.84248 L -42.6306,10.0094 L -42.6187,10.0759 L -42.4431,10.9692  L -42.4288,11.036 L -42.3902,11.202 L -42.3737,11.2679 L -42.1382,12.1453 L -42.1194,12.2107 L -42.0698,12.3733  L -42.0488,12.4381 L -41.7531,13.3007 L -41.7299,13.3646 L -41.6693,13.5235 L -41.644,13.5867 L -41.2922,14.4226  L -41.2642,14.486 L -41.1916,14.6432 L -41.1614,14.7056 L -40.7581,15.5042 L -40.7253,15.5665 L -40.6406,15.7204  L -40.6057,15.7814 L -40.1508,16.5439 L -40.1135,16.6039 L -40.0177,16.7523 L -39.9783,16.811 L -39.4706,17.5397  L -39.4294,17.5968 L -39.3238,17.7374 L -39.2807,17.7928 L -38.7189,18.4891 L -38.6746,18.5421 L -38.5612,18.673  L -38.5149,18.7247 L -37.8975,19.3898 L -37.8508,19.4385 L -37.7317,19.5585 L -37.6831,19.6057 L -37.0084,20.2406  L -36.9599,20.2847 L -36.8372,20.3928 L -36.7875,20.4352 L -36.0562,21.0382 L -36.0049,21.0791 L -35.8752,21.1791  L -35.8225,21.2183 L -35.0452,21.778 L -34.9898,21.8165 L -34.8498,21.9102 L -34.7932,21.9468 L -33.9784,22.4538  L -33.921,22.4882 L -33.7766,22.5715 L -33.7184,22.6038 L -32.8628,23.06 L -32.8045,23.0899 L -32.6577,23.1621  L -32.5985,23.19 L -31.7,23.596 L -31.6416,23.6213 L -31.4945,23.6822 L -31.4352,23.7056 L -30.4928,24.0611  L -30.4351,24.0819 L -30.2897,24.1317 L -30.2311,24.1508 L -29.2423,24.4558 L -29.1858,24.4724 L -29.0437,24.5116  L -28.9866,24.5265 L -27.9516,24.7801 L -27.8968,24.7927 L -27.7595,24.8223 L -27.7045,24.8334 L -26.629,25.0337  L -26.5686,25.0439 L -26.4173,25.0674 L -26.3566,25.0758 L -24.0846,25.3564 L -24.011,25.3641 L -23.8263,25.38  L -23.7522,25.385 L -21.6106,25.4893 L -21.5284,25.4917 L -21.3231,25.4932 z M -23.349,13.8634 L -24.6961,13.6973 L -25.5069,13.5353 L -26.2475,13.3206 L -26.9278,13.0546 L -27.552,12.7391  L -28.1288,12.3723 L -28.6634,11.9519 L -29.1617,11.4731 L -29.6172,10.9414 L -30.0017,10.3828 L -30.3096,9.79794  L -30.5533,9.1646 L -30.7333,8.47192 L -30.8467,7.71031 L -30.8882,6.87296 L -30.8516,5.95708 L -30.7278,4.93166  L -30.6703,4.59206 L -30.601,4.23003 L -30.5254,3.87727 L -30.4433,3.53329 L -30.3558,3.2009 L -30.2617,2.87607  L -30.1617,2.56042 L -30.0517,2.24187 L -29.5017,0.719208 L -28.9508,-0.777954 L -28.3953,-2.25989 L -27.8454,-3.69907  L -27.2922,-5.11948 L -26.7403,-6.50851 L -26.188,-7.87082 L -25.6521,-9.16618 L -25.0059,-10.5619 L -24.321,-11.8125  L -23.5881,-12.9448 L -22.8096,-13.9611 L -21.9866,-14.8654 L -21.1182,-15.6633 L -20.2027,-16.3596 L -19.232,-16.9616  L -18.2102,-17.4719 L -17.151,-17.8872 L -16.053,-18.2077 L -14.911,-18.4341 L -13.7211,-18.5654 L -12.4783,-18.5999  L -11.18,-18.535 L -9.83305,-18.3689 L -9.02196,-18.2068 L -8.28123,-17.9921 L -7.60196,-17.7265 L -6.97716,-17.4106  L -6.40076,-17.044 L -5.86621,-16.6236 L -5.3679,-16.1445 L -4.91245,-15.6128 L -4.52757,-15.0538 L -4.21956,-14.4689  L -3.97583,-13.8357 L -3.7957,-13.1429 L -3.68231,-12.3815 L -3.64084,-11.5446 L -3.67737,-10.6287 L -3.80122,-9.60298  L -3.8587,-9.26329 L -3.92784,-8.9021 L -4.00363,-8.54868 L -4.08531,-8.20618 L -4.17357,-7.87126 L -4.26741,-7.54726  L -4.36696,-7.23305 L -4.48053,-6.90408 L -5.0184,-5.36964 L -5.55602,-3.87691 L -6.1022,-2.40109 L -6.64775,-0.967072  L -7.19952,0.443466 L -7.75487,1.82375 L -8.31757,3.18301 L -8.87117,4.48222 L -9.52295,5.88997 L -10.2081,7.14087  L -10.9408,8.27274 L -11.7193,9.28903 L -12.5426,10.1936 L -13.4111,10.9915 L -14.3266,11.6877 L -15.2977,12.29  L -16.3191,12.8002 L -17.3784,13.2156 L -18.4767,13.5362 L -19.618,13.7625 L -20.8083,13.8938 L -22.0508,13.9282  z M 7.74985,29.6868 L 7.98643,29.6799 L 8.08113,29.6749 L 8.08928,29.6742 L 8.18137,29.665 L 8.411,29.6367  L 8.50189,29.6233 L 8.5146,29.6211 L 8.60381,29.6038 L 8.82425,29.5559 L 8.91226,29.5346 L 8.9341,29.5288  L 9.0183,29.5045 L 9.22789,29.4389 L 9.31067,29.4109 L 9.34454,29.3987 L 9.42177,29.3689 L 9.612,29.2911  L 9.68745,29.2584 L 9.73499,29.2366 L 9.80438,29.2032 L 9.97603,29.1164 L 10.0435,29.0806 L 10.1046,29.0468  L 10.1681,29.0101 L 10.3243,28.9158 L 10.3862,28.8768 L 10.4449,28.8384 L 10.5086,28.795 L 10.6658,28.6832  L 10.7276,28.6374 L 10.7698,28.6049 L 10.8337,28.5536 L 10.9902,28.4224 L 11.0521,28.3683 L 11.0804,28.3425  L 11.1428,28.2832 L 11.2962,28.131 L 11.3563,28.0686 L 11.3739,28.0496 L 11.4333,27.9823 L 11.5784,27.8104  L 11.6348,27.7404 L 11.6458,27.7261 L 11.7004,27.6517 L 11.8322,27.4631 L 11.8831,27.3866 L 11.8906,27.3747  L 11.9374,27.2969 L 12.0497,27.1 L 12.0929,27.0201 L 12.0999,27.0065 L 12.1395,26.9244 L 12.2343,26.7164  L 12.2703,26.6322 L 12.3055,26.5446 L 12.3113,26.5299 L 12.3254,26.4939 L 12.3309,26.4798 L 18.0773,11.4963  L 30.1693,13.4115 L 30.2009,13.4162 L 30.2806,13.4276 L 30.3127,13.4319 L 32.1072,13.6571 L 32.1754,13.6645  L 32.3461,13.68 L 32.4144,13.685 L 34.1032,13.7802 L 34.1772,13.783 L 34.3621,13.7866 L 34.4361,13.7866  L 36.0508,13.7581 L 36.1301,13.7551 L 36.328,13.7437 L 36.4069,13.7376 L 37.949,13.5876 L 38.0323,13.5777  L 38.2403,13.5486 L 38.3233,13.5352 L 39.7955,13.2658 L 39.8817,13.2481 L 40.0959,13.199 L 40.181,13.1776  L 41.5869,12.7901 L 41.6737,12.7641 L 41.8891,12.6941 L 41.9748,12.6641 L 43.3189,12.1588 L 43.4041,12.1245  L 43.6153,12.0338 L 43.6991,11.9956 L 44.9816,11.3736 L 45.0666,11.3298 L 45.2766,11.2152 L 45.3596,11.1673  L 46.5686,10.4306 L 46.6523,10.3767 L 46.8581,10.2367 L 46.9391,10.1787 L 48.0684,9.32574 L 48.1455,9.26443  L 48.3342,9.10675 L 48.408,9.04193 L 49.4644,8.06708 L 49.5329,8.00081 L 49.7,7.83112 L 49.7653,7.76163  L 50.7515,6.66006 L 50.8105,6.59106 L 50.954,6.41531 L 51.0098,6.34372 L 51.9268,5.11069 L 51.9762,5.04118  L 52.0958,4.86508 L 52.1421,4.79372 L 52.9892,3.42513 L 53.0294,3.35719 L 53.1266,3.18535 L 53.1642,3.11577  L 53.9398,1.60838 L 53.9718,1.54332 L 54.0489,1.37914 L 54.0786,1.31288 L 54.7791,-0.331772 L 54.8055,-0.397003  L 54.8687,-0.561218 L 54.8929,-0.627335 L 55.0227,-1.00372 L 55.0282,-1.01961 L 55.0417,-1.0601 L 55.0472,-1.07664  L 55.1806,-1.48576 L 55.1863,-1.50354 L 55.2003,-1.54781 L 55.2058,-1.56548 L 55.3251,-1.95602 L 55.331,-1.97557  L 55.3453,-2.02428 L 55.351,-2.0437 L 55.456,-2.41412 L 55.4618,-2.43503 L 55.4764,-2.48863 L 55.4822,-2.51065  L 55.573,-2.86049 L 55.579,-2.88383 L 55.5936,-2.94299 L 55.5993,-2.96695 L 55.6762,-3.29561 L 55.682,-3.32146  L 55.6965,-3.38718 L 55.7022,-3.41389 L 55.7655,-3.72174 L 55.7713,-3.75104 L 55.7851,-3.82393 L 55.7904,-3.85295  L 55.8371,-4.12027 L 55.8452,-4.17038 L 55.8639,-4.29601 L 55.8708,-4.34633 L 55.9724,-5.17291 L 55.98,-5.24609  L 55.9957,-5.42906 L 56.0006,-5.5023 L 56.0383,-6.27405 L 56.0406,-6.35231 L 56.0425,-6.54811 L 56.0417,-6.62646  L 56.02,-7.36244 L 56.0159,-7.44496 L 56.0012,-7.651 L 55.9937,-7.73332 L 55.9145,-8.4364 L 55.903,-8.52187  L 55.8697,-8.73454 L 55.8546,-8.81921 L 55.7194,-9.49203 L 55.7,-9.57834 L 55.6469,-9.79317 L 55.6237,-9.87877  L 55.4328,-10.5258 L 55.4056,-10.6109 L 55.3328,-10.8225 L 55.3017,-10.9066 L 55.0546,-11.5318 L 55.0199,-11.6141  L 54.9288,-11.8176 L 54.8906,-11.8981 L 54.5812,-12.5139 L 54.5448,-12.5829 L 54.4506,-12.7535 L 54.4116,-12.8209  L 54.0442,-13.429 L 54.0076,-13.4872 L 53.9135,-13.6315 L 53.8748,-13.6887 L 53.4637,-14.2738 L 53.4229,-14.3299  L 53.3185,-14.468 L 53.2759,-14.5223 L 52.8259,-15.0769 L 52.7815,-15.1298 L 52.6682,-15.2599 L 52.6219,-15.3113  L 52.1314,-15.837 L 52.0841,-15.8861 L 51.9637,-16.0065 L 51.9148,-16.0539 L 51.3825,-16.5517 L 51.3331,-16.5964  L 51.2077,-16.706 L 51.1569,-16.749 L 50.581,-17.2198 L 50.5302,-17.26 L 50.4019,-17.3581 L 50.35,-17.3965  L 49.7285,-17.8409 L 49.6775,-17.8762 L 49.5483,-17.9626 L 49.496,-17.9964 L 48.8238,-18.4164 L 48.7769,-18.4449  L 48.6587,-18.5143 L 48.611,-18.5414 L 47.8948,-18.9361 L 47.8512,-18.9595 L 47.7416,-19.0164 L 47.6975,-19.0386  L 46.9528,-19.4022 L 46.9086,-19.4232 L 46.7977,-19.474 L 46.7533,-19.4937 L 45.9838,-19.824 L 45.9393,-19.8425  L 45.8281,-19.8871 L 45.7837,-19.9043 L 44.9881,-20.2015 L 44.9442,-20.2174 L 44.8335,-20.2558 L 44.7889,-20.2707  L 43.968,-20.5343 L 43.9246,-20.5477 L 43.8153,-20.5801 L 43.7711,-20.5926 L 42.9224,-20.823 L 42.8796,-20.8341  L 42.7721,-20.8607 L 42.7289,-20.8709 L 41.8538,-21.0673 L 41.8116,-21.0763 L 41.7067,-21.0975 L 41.6648,-21.1055  L 40.7419,-21.2715 L 40.7218,-21.275 L 40.6704,-21.2837 L 40.6494,-21.2871 L 23.3809,-24.0222 L 23.3354,-24.0288  L 23.2217,-24.0442 L 23.1759,-24.0498 L 23.1185,-24.0562 L 23.0266,-24.0643 L 22.7957,-24.0793 L 22.7027,-24.0832  L 22.6944,-24.0834 L 22.6004,-24.0829 L 22.3648,-24.0761 L 22.2695,-24.0711 L 22.2614,-24.0705 L 22.1695,-24.0614  L 21.937,-24.0327 L 21.8443,-24.0191 L 21.8314,-24.0169 L 21.7424,-23.9996 L 21.5218,-23.9515 L 21.4345,-23.9304  L 21.4125,-23.9245 L 21.3286,-23.9003 L 21.1214,-23.8354 L 21.0395,-23.8079 L 21.0057,-23.7957 L 20.9282,-23.7659  L 20.737,-23.6877 L 20.6609,-23.6548 L 20.6129,-23.6327 L 20.5439,-23.5995 L 20.3726,-23.513 L 20.305,-23.4772  L 20.2442,-23.4435 L 20.1804,-23.4066 L 20.023,-23.3117 L 19.961,-23.2727 L 19.9025,-23.2345 L 19.8386,-23.1909  L 19.6821,-23.0795 L 19.6205,-23.0339 L 19.5783,-23.0014 L 19.5145,-22.9501 L 19.3574,-22.8185 L 19.2955,-22.7644  L 19.2672,-22.7386 L 19.2044,-22.6789 L 19.0506,-22.5262 L 18.9906,-22.464 L 18.9731,-22.445 L 18.9139,-22.378  L 18.77,-22.2075 L 18.7133,-22.1372 L 18.7023,-22.1229 L 18.6487,-22.0498 L 18.5174,-21.8621 L 18.4668,-21.7861  L 18.4591,-21.7741 L 18.4114,-21.6948 L 18.2973,-21.4948 L 18.2536,-21.414 L 18.2466,-21.4004 L 18.207,-21.3184  L 18.113,-21.1117 L 18.0774,-21.0286 L 18.0417,-20.9397 L 18.0361,-20.9256 L 18.0232,-20.8927 L 18.0183,-20.8802  L 1.05339,23.1815 L 1.01834,23.2802 L 0.937225,23.529 L 0.882858,23.7311 L 0.828186,23.987 L 0.795212,24.1938  L 0.767593,24.454 L 0.756424,24.6631 L 0.756165,24.9248 L 0.766907,25.1338 L 0.793991,25.3941 L 0.826523,25.6008  L 0.880661,25.8569 L 0.934692,26.0593 L 1.01532,26.3082 L 1.09007,26.5036 L 1.19626,26.7428 L 1.29109,26.9294  L 1.42169,27.1561 L 1.53558,27.3319 L 1.68918,27.5437 L 1.82074,27.7065 L 1.99565,27.9012 L 2.14355,28.0494  L 2.33784,28.2247 L 2.50041,28.3566 L 2.71196,28.5106 L 2.88736,28.6248 L 3.11385,28.7559 L 3.30038,28.8512  L 3.53932,28.9578 L 3.73454,29.033 L 3.98335,29.1141 L 4.18663,29.1687 L 4.44504,29.2238 L 4.54892,29.2431  L 6.96722,29.6261 L 7.01257,29.6327 L 7.12619,29.6481 L 7.17186,29.6537 L 7.22942,29.6601 L 7.32204,29.6683  L 7.55417,29.6833 L 7.64545,29.6871 L 7.65349,29.6873 z M 34.2099,2.28073 L 33.1359,2.20505 L 31.9655,2.05266 L 22.2841,0.519287 L 27.0291,-11.801 L 38.4863,-9.98636  L 39.432,-9.81512 L 40.2623,-9.62268 L 41.0009,-9.40764 L 41.6472,-9.17393 L 42.2002,-8.92699 L 42.6601,-8.6736  L 43.0318,-8.41995 L 43.3203,-8.17386 L 43.5384,-7.93684 L 43.7045,-7.70079 L 43.8331,-7.45229 L 43.9323,-7.17499  L 44.0024,-6.85257 L 44.0383,-6.4711 L 44.0314,-6.02243 L 43.9685,-5.46761 L 43.9282,-5.23312 L 43.8739,-4.96043  L 43.8124,-4.6886 L 43.7437,-4.41843 L 43.6672,-4.14722 L 43.5842,-3.87932 L 43.4925,-3.60849 L 43.4039,-3.36687  L 43.0257,-2.47006 L 42.6211,-1.69551 L 42.1801,-1.00806 L 41.7025,-0.399857 L 41.1885,0.134705 L 40.6337,0.603531  L 40.0329,1.01204 L 39.3747,1.36641 L 38.6562,1.66797 L 37.8824,1.91374 L 37.0546,2.10022 L 36.1681,2.2254  L 35.2202,2.28658 z M 78.2266,40.8492 L 78.4632,40.8423 L 78.5579,40.8373 L 78.566,40.8367 L 78.6573,40.8276 L 78.885,40.7995  L 78.9767,40.7861 L 78.9895,40.7839 L 79.0789,40.7666 L 79.3034,40.7177 L 79.3921,40.6962 L 79.4138,40.6905  L 79.4978,40.6661 L 79.705,40.6012 L 79.7874,40.5734 L 79.8212,40.5612 L 79.8978,40.5316 L 80.0882,40.4538  L 80.1642,40.4208 L 80.2119,40.399 L 80.2809,40.3657 L 80.4528,40.2788 L 80.5208,40.2428 L 80.5821,40.2088  L 80.6452,40.1723 L 80.8002,40.0787 L 80.8615,40.0402 L 80.9203,40.0018 L 80.9841,39.9583 L 81.1415,39.8465  L 81.2039,39.8004 L 81.2464,39.7676 L 81.3102,39.7163 L 81.4675,39.5846 L 81.5287,39.5311 L 81.5569,39.5055  L 81.62,39.4456 L 81.7732,39.2935 L 81.8329,39.2317 L 81.8505,39.2126 L 81.9102,39.1451 L 82.0547,38.9739  L 82.1108,38.9044 L 82.1217,38.8902 L 82.1764,38.8159 L 82.3082,38.6274 L 82.359,38.5512 L 82.3664,38.5394  L 82.4136,38.4609 L 82.5264,38.2634 L 82.5695,38.1839 L 82.5764,38.1705 L 82.6166,38.0874 L 82.7117,37.8786  L 82.7478,37.7943 L 82.7892,37.6911 L 82.797,37.6715 L 83.5893,35.6628 L 83.6252,35.5645 L 83.7083,35.3164  L 83.7644,35.1147 L 83.8211,34.8592 L 83.8558,34.6527 L 83.8855,34.3927 L 83.8984,34.1839 L 83.9008,33.9223  L 83.8918,33.7129 L 83.8668,33.4525 L 83.836,33.2455 L 83.7839,32.989 L 83.7316,32.7863 L 83.6531,32.5367  L 83.5799,32.3406 L 83.4756,32.1006 L 83.3822,31.913 L 83.2534,31.6852 L 83.1412,31.5088 L 82.9894,31.2957  L 82.859,31.1317 L 82.6857,30.9356 L 82.539,30.7862 L 82.3462,30.6093 L 82.1848,30.4762 L 81.9745,30.3204  L 81.8,30.2048 L 81.5746,30.0718 L 81.3889,29.9751 L 81.1508,29.8664 L 80.9562,29.7897 L 80.7081,29.7065  L 80.4973,29.6485 L 80.2191,29.588 L 80.1072,29.567 L 59.7177,26.3376 L 63.6539,16.0094 L 83.4324,19.142  L 83.4776,19.1486 L 83.5904,19.1638 L 83.6354,19.1694 L 83.6943,19.176 L 83.7871,19.1842 L 84.0191,19.1993  L 84.1113,19.2032 L 84.1242,19.2034 L 84.2163,19.203 L 84.4443,19.1969 L 84.5341,19.1924 L 84.5499,19.1912  L 84.6406,19.1826 L 84.8636,19.1562 L 84.953,19.1436 L 84.976,19.1398 L 85.0616,19.1239 L 85.2755,19.0791  L 85.3608,19.0593 L 85.3949,19.0506 L 85.4745,19.0285 L 85.6731,18.9689 L 85.7523,18.9433 L 85.7999,18.9269  L 85.8729,18.9 L 86.0541,18.8293 L 86.126,18.7996 L 86.1879,18.7727 L 86.2537,18.7426 L 86.4169,18.6643  L 86.4817,18.6318 L 86.5551,18.5933 L 86.6175,18.5591 L 86.7715,18.4712 L 86.8323,18.4351 L 86.8987,18.394  L 86.9641,18.3517 L 87.1252,18.2431 L 87.1886,18.1985 L 87.2342,18.1652 L 87.3005,18.1145 L 87.4633,17.9845  L 87.5271,17.9314 L 87.5559,17.9064 L 87.6221,17.8462 L 87.7837,17.6926 L 87.847,17.6298 L 87.8631,17.6131  L 87.9256,17.5451 L 88.0779,17.3714 L 88.1366,17.3013 L 88.1442,17.2919 L 88.2025,17.2151 L 88.3422,17.022  L 88.3961,16.9437 L 88.3995,16.9384 L 88.4516,16.8542 L 88.5762,16.6412 L 88.6245,16.5536 L 88.6269,16.5489  L 88.6683,16.4644 L 88.768,16.2481 L 88.8058,16.1608 L 88.8419,16.0717 L 88.8564,16.0352 L 89.6484,14.0275  L 89.6843,13.9291 L 89.7675,13.681 L 89.8235,13.4793 L 89.8802,13.2239 L 89.9149,13.0174 L 89.9446,12.7574  L 89.9575,12.5485 L 89.9599,12.2868 L 89.9509,12.0777 L 89.926,11.8172 L 89.8951,11.6101 L 89.8431,11.3537  L 89.7907,11.1508 L 89.7121,10.9012 L 89.639,10.7053 L 89.5348,10.4653 L 89.4414,10.2778 L 89.3126,10.0499  L 89.2003,9.87341 L 89.0484,9.66029 L 88.9182,9.49634 L 88.7448,9.30026 L 88.5981,9.15085 L 88.4053,8.97398  L 88.2439,8.84082 L 88.0336,8.68506 L 87.8591,8.56941 L 87.6337,8.43649 L 87.4481,8.33974 L 87.21,8.23111  L 87.0153,8.1543 L 86.7672,8.07114 L 86.5564,8.01311 L 86.2783,7.95264 L 86.1663,7.93163 L 67.8547,5.03136  L 71.6131,-4.73959 L 92.9673,-1.35742 L 93.0124,-1.3508 L 93.1252,-1.33556 L 93.1702,-1.33 L 93.2298,-1.32332  L 93.3225,-1.31511 L 93.554,-1.30002 L 93.646,-1.29614 L 93.6589,-1.2959 L 93.7509,-1.29626 L 93.9791,-1.30243  L 94.0699,-1.30695 L 94.0859,-1.30811 L 94.1762,-1.31673 L 94.4005,-1.34328 L 94.4904,-1.35599 L 94.5137,-1.35982  L 94.5986,-1.3757 L 94.8109,-1.42015 L 94.8952,-1.43973 L 94.9292,-1.44841 L 95.0092,-1.47058 L 95.2075,-1.53  L 95.2868,-1.5556 L 95.3342,-1.57196 L 95.4067,-1.59865 L 95.5888,-1.6696 L 95.6615,-1.69957 L 95.7235,-1.72661  L 95.7894,-1.75673 L 95.9531,-1.83524 L 96.0181,-1.86786 L 96.0912,-1.90628 L 96.1534,-1.94032 L 96.3076,-2.0284  L 96.369,-2.06491 L 96.4349,-2.10574 L 96.4999,-2.14777 L 96.6608,-2.25624 L 96.7242,-2.30086 L 96.77,-2.33438  L 96.8367,-2.38539 L 97.0005,-2.51633 L 97.0651,-2.57014 L 97.0939,-2.5952 L 97.1594,-2.65479 L 97.3199,-2.8075  L 97.3831,-2.87038 L 97.3992,-2.88708 L 97.4607,-2.95404 L 97.6115,-3.12576 L 97.6711,-3.19695 L 97.6786,-3.20634  L 97.7377,-3.28424 L 97.883,-3.48557 L 97.9407,-3.56995 L 97.9439,-3.575 L 97.9915,-3.65234 L 98.1095,-3.85439  L 98.1553,-3.93738 L 98.1577,-3.94188 L 98.2004,-4.0287 L 98.3029,-4.25061 L 98.3417,-4.34029 L 98.3804,-4.43619  L 98.3908,-4.46237 L 99.1836,-6.47099 L 99.2195,-6.56943 L 99.3027,-6.81754 L 99.3587,-7.01904 L 99.4155,-7.27448  L 99.4503,-7.48114 L 99.4801,-7.74112 L 99.493,-7.94987 L 99.4954,-8.21155 L 99.4864,-8.42088 L 99.4615,-8.68138  L 99.4307,-8.88828 L 99.3788,-9.14473 L 99.3264,-9.34764 L 99.2479,-9.59726 L 99.1747,-9.79329 L 99.0706,-10.0333  L 98.9773,-10.2207 L 98.8486,-10.4485 L 98.7363,-10.6251 L 98.5845,-10.8383 L 98.4542,-11.0023 L 98.2809,-11.1984  L 98.1343,-11.3478 L 97.9415,-11.5247 L 97.7799,-11.6581 L 97.5696,-11.8139 L 97.3953,-11.9294 L 97.17,-12.0624  L 96.9844,-12.1591 L 96.7464,-12.2678 L 96.5514,-12.3448 L 96.3033,-12.4279 L 96.0926,-12.486 L 95.8139,-12.5466  L 95.7018,-12.5677 L 67.9641,-16.9609 L 67.9184,-16.9676 L 67.8047,-16.9829 L 67.7596,-16.9885 L 67.7021,-16.9949  L 67.6097,-17.0031 L 67.3788,-17.0181 L 67.2859,-17.0219 L 67.2777,-17.0221 L 67.1836,-17.0216 L 66.9481,-17.0148  L 66.8565,-17.0101 L 66.8483,-17.0095 L 66.7526,-17.0001 L 66.5201,-16.9714 L 66.4276,-16.9578 L 66.4146,-16.9556  L 66.3257,-16.9383 L 66.1052,-16.8902 L 66.0161,-16.8687 L 65.9941,-16.8628 L 65.912,-16.839 L 65.7047,-16.7742  L 65.6222,-16.7464 L 65.5884,-16.7342 L 65.5115,-16.7046 L 65.3203,-16.6264 L 65.2444,-16.5936 L 65.1963,-16.5716  L 65.1271,-16.5383 L 64.9558,-16.4517 L 64.888,-16.4158 L 64.8272,-16.3822 L 64.7637,-16.3454 L 64.6063,-16.2505  L 64.5437,-16.2111 L 64.4852,-16.1728 L 64.422,-16.1297 L 64.2655,-16.0184 L 64.2033,-15.9724 L 64.1612,-15.9399  L 64.0976,-15.8888 L 63.9406,-15.7572 L 63.8787,-15.7031 L 63.8504,-15.6773 L 63.7879,-15.6179 L 63.6346,-15.4658  L 63.5745,-15.4035 L 63.5569,-15.3845 L 63.4976,-15.3173 L 63.3527,-15.1456 L 63.2963,-15.0757 L 63.2854,-15.0614  L 63.2312,-14.9877 L 63.1004,-14.8006 L 63.0494,-14.724 L 63.0419,-14.7121 L 62.9946,-14.6335 L 62.8801,-14.4327  L 62.836,-14.3512 L 62.8291,-14.3376 L 62.7898,-14.2562 L 62.6961,-14.0503 L 62.6605,-13.9671 L 62.6248,-13.8782  L 62.6198,-13.8655 L 62.6069,-13.8326 L 62.6015,-13.8189 L 45.6366,30.2428 L 45.6015,30.3415 L 45.5204,30.5903  L 45.4661,30.7924 L 45.4114,31.0483 L 45.3784,31.2551 L 45.3508,31.5153 L 45.3396,31.7244 L 45.3394,31.9861  L 45.3501,32.1952 L 45.3772,32.4555 L 45.4097,32.6622 L 45.4639,32.9182 L 45.5179,33.1204 L 45.5985,33.3694  L 45.6733,33.5649 L 45.7795,33.8041 L 45.8743,33.9907 L 46.005,34.2175 L 46.1188,34.3931 L 46.2724,34.605  L 46.404,34.7678 L 46.5789,34.9625 L 46.7268,35.1107 L 46.9211,35.286 L 47.0836,35.4179 L 47.2952,35.5719  L 47.4707,35.6861 L 47.6972,35.8172 L 47.8835,35.9124 L 48.1225,36.0191 L 48.3178,36.0943 L 48.5666,36.1754  L 48.7697,36.23 L 49.0281,36.285 L 49.1321,36.3044 L 77.444,40.7885 L 77.4894,40.7952 L 77.603,40.8105  L 77.6486,40.8161 L 77.7061,40.8226 L 77.7988,40.8307 L 78.031,40.8457 L 78.1222,40.8496 L 78.1303,40.8497  z "
     stroke="black"
     fill="lightgray"
     stroke-width="0.5"
     id="path3564"
     style="fill:none;stroke-width:0.1;stroke-dasharray:none" />
</svg>
