<?xml version="1.0" encoding="UTF-8" standalone="no"?>
<svg
   width="238mm"
   height="108mm"
   viewBox="-119 -54 238 108"
   version="1.1"
   id="svg1178"
   sodipodi:docname="pcb_outline.svg"
   inkscape:version="1.2.2 (732a01da63, 2022-12-09)"
   xmlns:inkscape="http://www.inkscape.org/namespaces/inkscape"
   xmlns:sodipodi="http://sodipodi.sourceforge.net/DTD/sodipodi-0.dtd"
   xmlns="http://www.w3.org/2000/svg"
   xmlns:svg="http://www.w3.org/2000/svg">
  <defs
     id="defs1182" />
  <sodipodi:namedview
     id="namedview1180"
     pagecolor="#505050"
     bordercolor="#eeeeee"
     borderopacity="1"
     inkscape:showpageshadow="0"
     inkscape:pageopacity="0"
     inkscape:pagecheckerboard="0"
     inkscape:deskcolor="#505050"
     inkscape:document-units="mm"
     showgrid="false"
     inkscape:zoom="1.6241859"
     inkscape:cx="449.76378"
     inkscape:cy="203.7944"
     inkscape:window-width="1920"
     inkscape:window-height="1027"
     inkscape:window-x="-8"
     inkscape:window-y="-8"
     inkscape:window-maximized="1"
     inkscape:current-layer="svg1178" />
  <title
     id="title1174">OpenSCAD Model</title>
  <path
     d=" M 47.3813,-49.1244 L 43.7456,-49.7954 L 43.7119,-49.8015 L 43.6602,-49.8106 L 43.6224,-49.817 L 39.9395,-50.4317  L 39.9041,-50.4374 L 39.8557,-50.4451 L 39.8206,-50.4505 L 36.0852,-51.0097 L 36.0486,-51.015 L 35.9978,-51.0222  L 35.9697,-51.0261 L 32.1868,-51.5289 L 32.1543,-51.5331 L 32.1081,-51.5389 L 32.076,-51.5427 L 28.2546,-51.9879  L 28.2222,-51.9916 L 28.1757,-51.9966 L 28.1367,-52.0007 L 24.2928,-52.3865 L 24.2544,-52.3902 L 24.2109,-52.3943  L 24.1723,-52.3977 L 20.2988,-52.7251 L 20.2559,-52.7285 L 20.2168,-52.7315 L 20.1778,-52.7344 L 16.2765,-53.003  L 16.2399,-53.0054 L 16.1992,-53.0079 L 16.1638,-53.0099 L 12.2366,-53.2195 L 12.1984,-53.2214 L 12.1571,-53.2233  L 12.1253,-53.2246 L 8.18478,-53.3745 L 8.14943,-53.3757 L 8.11078,-53.3769 L 8.07182,-53.378 L 4.12119,-53.468  L 4.08844,-53.4686 L 4.04491,-53.4693 L 4.00655,-53.4697 L 0.0602417,-53.4996 L 0.0184937,-53.4998 L -0.0184937,-53.4998  L -0.0602417,-53.4996 L -4.00655,-53.4697 L -4.04491,-53.4693 L -4.08844,-53.4686 L -4.12119,-53.468 L -8.07182,-53.378  L -8.11078,-53.3769 L -8.14943,-53.3757 L -8.18478,-53.3745 L -12.1253,-53.2246 L -12.1571,-53.2233 L -12.1984,-53.2214  L -12.2366,-53.2195 L -16.1638,-53.0099 L -16.1992,-53.0079 L -16.2399,-53.0054 L -16.2765,-53.003 L -20.1778,-52.7344  L -20.2168,-52.7315 L -20.2559,-52.7285 L -20.2988,-52.7251 L -24.1723,-52.3977 L -24.2109,-52.3943 L -24.2544,-52.3902  L -24.2928,-52.3865 L -28.1367,-52.0007 L -28.1757,-51.9966 L -28.2222,-51.9916 L -28.2546,-51.9879 L -32.076,-51.5427  L -32.1081,-51.5389 L -32.1543,-51.5331 L -32.1868,-51.5289 L -35.9697,-51.0261 L -35.9978,-51.0222 L -36.0486,-51.015  L -36.0852,-51.0097 L -39.8206,-50.4505 L -39.8557,-50.4451 L -39.9041,-50.4374 L -39.9395,-50.4317 L -43.6224,-49.817  L -43.6602,-49.8106 L -43.7119,-49.8015 L -43.7456,-49.7954 L -47.3813,-49.1244 L -47.4112,-49.1187 L -47.4688,-49.1076  L -47.5046,-49.1005 L -51.0734,-48.377 L -51.1113,-48.3691 L -51.166,-48.3575 L -51.2001,-48.3501 L -54.7121,-47.5721  L -54.755,-47.5624 L -54.8032,-47.5512 L -54.8421,-47.542 L -58.1919,-46.7347 L -58.4186,-46.6738 L -58.6842,-46.5949  L -59.1284,-46.4371 L -59.3605,-46.3407 L -59.7851,-46.1378 L -60.0058,-46.0176 L -60.407,-45.7713 L -60.6141,-45.6287  L -60.9872,-45.3419 L -61.1781,-45.1786 L -61.5195,-44.8541 L -61.6922,-44.6718 L -61.9978,-44.3134 L -62.1505,-44.1139  L -62.4168,-43.7257 L -62.548,-43.5112 L -62.7723,-43.0972 L -62.8803,-42.8703 L -63.0599,-42.4356 L -63.1438,-42.1981  L -63.2769,-41.7471 L -63.3354,-41.5027 L -63.4209,-41.0393 L -63.4543,-40.7837 L -63.479,-40.492 L -63.4848,-40.4399  L -63.4991,-40.3362 L -63.5187,-40.2336 L -63.5437,-40.1319 L -63.5741,-40.0316 L -63.6096,-39.9332 L -63.6502,-39.8368  L -63.6958,-39.7426 L -63.7463,-39.6508 L -63.8015,-39.5619 L -63.8613,-39.476 L -63.9255,-39.3934 L -63.994,-39.3141  L -64.0665,-39.2386 L -64.1428,-39.167 L -64.2228,-39.0995 L -64.3061,-39.0364 L -64.3927,-38.9776 L -64.4825,-38.9233  L -64.5748,-38.8739 L -64.6693,-38.8295 L -64.7663,-38.79 L -64.8652,-38.7556 L -64.9657,-38.7265 L -65.0677,-38.7026  L -65.1708,-38.6841 L -65.2746,-38.6711 L -65.379,-38.6635 L -65.4835,-38.6614 L -65.5881,-38.6647 L -65.6926,-38.6736  L -65.7963,-38.6878 L -65.8989,-38.7075 L -66.0006,-38.7325 L -66.1009,-38.7629 L -66.1994,-38.7984 L -66.2957,-38.839  L -66.3899,-38.8846 L -66.5037,-38.9492 L -66.6298,-39.0321 L -66.599,-39.0789 L -66.6138,-39.0766 L -66.6393,-39.0384  L -66.64,-39.0388 L -66.6782,-39.0664 L -66.679,-39.0662 L -66.6832,-39.0694 L -66.6829,-39.0697 L -66.6867,-39.0725  L -66.6869,-39.0722 L -66.8014,-39.1579 L -66.9833,-39.2821 L -67.1374,-39.3814 L -67.5459,-39.6155 L -67.686,-39.6863  L -68.1167,-39.8765 L -68.2732,-39.936 L -68.6307,-40.0551 L -68.7257,-40.0823 L -68.8615,-40.119 L -68.9055,-40.1302  L -69.1051,-40.176 L -69.2851,-40.213 L -69.4865,-40.2496 L -71.5984,-40.5841 L -71.7037,-40.5996 L -71.7924,-40.6115  L -71.896,-40.6243 L -71.9191,-40.6269 L -72.1264,-40.6451 L -72.3108,-40.6571 L -72.5003,-40.665 L -72.6927,-40.664  L -72.8802,-40.6587 L -73.0764,-40.6484 L -73.2641,-40.6297 L -73.4498,-40.6068 L -73.6422,-40.5785 L -73.8256,-40.5429  L -74.0022,-40.5044 L -74.1893,-40.4591 L -74.3668,-40.4078 L -74.5324,-40.356 L -74.7155,-40.2943 L -74.8846,-40.2292  L -75.0382,-40.1664 L -75.209,-40.0924 L -75.221,-40.087 L -75.3766,-40.0121 L -75.513,-39.9432 L -75.6661,-39.8621  L -75.6938,-39.8468 L -75.8372,-39.7638 L -75.9626,-39.6882 L -76.1034,-39.5997 L -76.1305,-39.5819 L -76.2725,-39.485  L -76.3978,-39.3959 L -76.5376,-39.2924 L -76.5485,-39.284 L -76.6914,-39.1691 L -76.8166,-39.0642 L -76.955,-38.9433  L -77.0938,-38.8113 L -77.2174,-38.6886 L -77.3441,-38.5574 L -77.4733,-38.4111 L -77.589,-38.274 L -77.7073,-38.1273  L -77.8215,-37.9717 L -77.9251,-37.8235 L -78.0315,-37.6637 L -78.1296,-37.5006 L -78.2213,-37.34 L -78.3124,-37.1714  L -78.3951,-37 L -78.4699,-36.8356 L -78.5499,-36.6486 L -78.5752,-36.5854 L -78.5884,-36.5523 L -78.5978,-36.5285  L -78.6108,-36.4951 L -80.8352,-30.7177 L -80.8553,-30.6694 L -80.8979,-30.5738 L -80.9456,-30.4805 L -80.998,-30.3899  L -81.0551,-30.3022 L -81.1167,-30.2176 L -81.1826,-30.1363 L -81.2528,-30.0586 L -81.3268,-29.9847 L -81.4047,-29.9147  L -81.4862,-29.8489 L -81.5709,-29.7874 L -81.6587,-29.7306 L -81.7494,-29.6783 L -81.8427,-29.6309 L -81.9384,-29.5884  L -82.0362,-29.551 L -82.1357,-29.5188 L -82.2369,-29.4918 L -82.3393,-29.4701 L -82.4426,-29.4539 L -82.5467,-29.443  L -82.6513,-29.4376 L -82.756,-29.4377 L -82.8605,-29.4433 L -82.9646,-29.4544 L -83.068,-29.4709 L -83.1703,-29.4927  L -83.2715,-29.5199 L -83.371,-29.5524 L -83.4685,-29.59 L -83.5641,-29.6326 L -83.6574,-29.6803 L -83.748,-29.7327  L -83.8357,-29.7898 L -83.9203,-29.8514 L -84.0016,-29.9173 L -84.0793,-29.9875 L -84.1532,-30.0615 L -84.2232,-30.1394  L -84.3039,-30.2419 L -84.3921,-30.3704 L -84.4337,-30.4364 L -84.5487,-30.6356 L -84.6854,-30.846 L -84.9624,-31.2273  L -85.1204,-31.4224 L -85.4355,-31.7723 L -85.6131,-31.9499 L -85.963,-32.265 L -86.1581,-32.423 L -86.5394,-32.7  L -86.7499,-32.8367 L -87.1574,-33.072 L -87.3818,-33.1863 L -87.8116,-33.3777 L -88.0462,-33.4678 L -88.494,-33.6132  L -88.7366,-33.6782 L -89.1974,-33.7762 L -89.4452,-33.8154 L -89.9141,-33.8647 L -90.1645,-33.8778 L -90.6355,-33.8778  L -90.8859,-33.8647 L -91.3548,-33.8154 L -91.6026,-33.7762 L -92.0634,-33.6782 L -92.306,-33.6132 L -92.7538,-33.4677  L -92.9883,-33.3777 L -93.418,-33.1865 L -93.6647,-33.0608 L -93.8708,-32.949 L -94.7307,-32.4528 L -94.7946,-32.4153  L -94.8751,-32.367 L -94.9369,-32.3293 L -97.1283,-30.9687 L -97.1943,-30.9269 L -97.2778,-30.873 L -97.3405,-30.8318  L -99.4155,-29.4426 L -99.4811,-29.3978 L -99.5668,-29.3381 L -99.6363,-29.2888 L -101.583,-27.8804 L -101.654,-27.8276  L -101.742,-27.7612 L -101.812,-27.7079 L -103.636,-26.277 L -103.709,-26.2188 L -103.803,-26.1417 L -103.871,-26.0848  L -105.567,-24.6373 L -105.644,-24.5703 L -105.737,-24.4875 L -105.811,-24.4196 L -107.377,-22.9596 L -107.454,-22.8864  L -107.552,-22.7909 L -107.625,-22.7172 L -109.063,-21.2441 L -109.14,-21.1632 L -109.239,-21.057 L -109.314,-20.9739  L -110.62,-19.4948 L -110.697,-19.4048 L -110.796,-19.2866 L -110.873,-19.1922 L -112.047,-17.7102 L -112.124,-17.6098  L -112.224,-17.476 L -112.298,-17.3743 L -113.34,-15.8918 L -113.417,-15.7784 L -113.513,-15.6326 L -113.586,-15.5183  L -114.498,-14.0382 L -114.572,-13.9148 L -114.664,-13.7538 L -114.734,-13.6274 L -115.516,-12.1533 L -115.585,-12.0181  L -115.672,-11.8405 L -115.736,-11.7038 L -116.392,-10.2372 L -116.454,-10.0907 L -116.531,-9.8998 L -116.589,-9.75076  L -117.12,-8.29214 L -117.174,-8.13408 L -117.24,-7.9301 L -117.289,-7.77025 L -117.697,-6.32266 L -117.741,-6.15422  L -117.793,-5.93901 L -117.831,-5.77016 L -118.121,-4.32954 L -118.152,-4.15396 L -118.189,-3.92863 L -118.213,-3.75432  L -118.386,-2.31888 L -118.404,-2.1394 L -118.423,-1.90953 L -118.433,-1.72922 L -118.491,-0.297531 L -118.495,-0.116119  L -118.495,0.116119 L -118.491,0.297531 L -118.433,1.72922 L -118.423,1.90953 L -118.404,2.1394 L -118.386,2.31888  L -118.213,3.75432 L -118.189,3.92863 L -118.152,4.15396 L -118.121,4.32939 L -117.831,5.77046 L -117.793,5.93933  L -117.741,6.15422 L -117.697,6.32266 L -117.289,7.77025 L -117.24,7.9301 L -117.174,8.13408 L -117.12,8.29214  L -116.589,9.75076 L -116.531,9.89984 L -116.454,10.0907 L -116.392,10.2372 L -115.736,11.7038 L -115.672,11.8405  L -115.585,12.0181 L -115.516,12.1533 L -114.733,13.6281 L -114.664,13.7533 L -114.572,13.9145 L -114.498,14.0389  L -113.586,15.5179 L -113.513,15.6326 L -113.417,15.7787 L -113.34,15.892 L -112.298,17.3743 L -112.224,17.476  L -112.124,17.6098 L -112.047,17.7102 L -110.873,19.1922 L -110.796,19.2866 L -110.697,19.4048 L -110.62,19.4948  L -109.314,20.9739 L -109.239,21.057 L -109.14,21.1632 L -109.063,21.2441 L -107.625,22.7172 L -107.552,22.7909  L -107.454,22.8864 L -107.377,22.9596 L -105.811,24.4196 L -105.737,24.4875 L -105.644,24.5703 L -105.567,24.6373  L -103.871,26.0848 L -103.803,26.1417 L -103.709,26.2188 L -103.636,26.277 L -101.812,27.7079 L -101.742,27.7612  L -101.654,27.8276 L -101.583,27.8804 L -99.6357,29.2892 L -99.5671,29.3379 L -99.4811,29.3978 L -99.4155,29.4426  L -97.3405,30.8318 L -97.2778,30.873 L -97.1938,30.9272 L -97.1288,30.9683 L -94.9366,32.3295 L -94.874,32.3677  L -94.7935,32.4159 L -94.7329,32.4515 L -92.4222,33.7848 L -92.3625,33.8186 L -92.2843,33.8621 L -92.2242,33.895  L -89.7994,35.1969 L -89.7428,35.2268 L -89.6685,35.2653 L -89.6089,35.2956 L -87.0778,36.5616 L -87.0214,36.5893  L -86.9471,36.6252 L -86.8924,36.6512 L -84.2495,37.8834 L -84.197,37.9075 L -84.1243,37.9402 L -84.0734,37.9628  L -81.3258,39.1574 L -81.275,39.1791 L -81.2076,39.2074 L -81.1543,39.2294 L -78.3091,40.3829 L -78.2568,40.4038  L -78.1955,40.4278 L -78.145,40.4472 L -75.1975,41.5612 L -75.1517,41.5782 L -75.087,41.6018 L -75.042,41.618  L -72.0042,42.6875 L -71.9558,42.7043 L -71.8971,42.7242 L -71.8541,42.7386 L -68.7211,43.765 L -68.6801,43.7782  L -68.6224,43.7965 L -68.5752,43.8111 L -65.3631,44.789 L -65.321,44.8016 L -65.2648,44.8181 L -65.2171,44.8318  L -61.9278,45.7606 L -61.887,45.7718 L -61.8315,45.7869 L -61.7895,45.7981 L -58.422,46.6779 L -58.3786,46.689  L -58.3249,46.7025 L -58.2835,46.7126 L -54.8421,47.542 L -54.8032,47.5512 L -54.755,47.5624 L -54.7121,47.5721  L -51.2,48.3501 L -51.166,48.3575 L -51.1113,48.3691 L -51.0734,48.377 L -47.5046,49.1005 L -47.4688,49.1076  L -47.4112,49.1187 L -47.3813,49.1244 L -43.7456,49.7954 L -43.7119,49.8015 L -43.66,49.8106 L -43.6224,49.817  L -39.9395,50.4317 L -39.9041,50.4374 L -39.8557,50.4451 L -39.8206,50.4505 L -36.0852,51.0097 L -36.0485,51.015  L -35.9998,51.0219 L -35.9689,51.0262 L -32.1868,51.5289 L -32.1543,51.5331 L -32.1081,51.5389 L -32.076,51.5427  L -28.2546,51.9879 L -28.2222,51.9916 L -28.1757,51.9966 L -28.1367,52.0007 L -24.2928,52.3865 L -24.2544,52.3902  L -24.2109,52.3943 L -24.1723,52.3977 L -20.2988,52.7251 L -20.2559,52.7285 L -20.2168,52.7315 L -20.1778,52.7344  L -16.2765,53.003 L -16.2399,53.0054 L -16.1992,53.0079 L -16.1638,53.0099 L -12.2366,53.2195 L -12.1984,53.2214  L -12.1571,53.2233 L -12.1253,53.2246 L -8.18478,53.3745 L -8.14943,53.3757 L -8.11078,53.3769 L -8.07182,53.378  L -4.12119,53.468 L -4.08844,53.4686 L -4.04491,53.4693 L -4.00655,53.4697 L -0.0602417,53.4996 L -0.0184937,53.4998  L 0.0184937,53.4998 L 0.0602417,53.4996 L 4.00655,53.4697 L 4.04491,53.4693 L 4.08844,53.4686 L 4.12119,53.468  L 8.07182,53.378 L 8.11078,53.3769 L 8.14943,53.3757 L 8.18478,53.3745 L 12.1253,53.2246 L 12.1571,53.2233  L 12.1984,53.2214 L 12.2366,53.2195 L 16.1638,53.0099 L 16.1992,53.0079 L 16.2399,53.0054 L 16.2765,53.003  L 20.1778,52.7344 L 20.2168,52.7315 L 20.2559,52.7285 L 20.2988,52.7251 L 24.1723,52.3977 L 24.2109,52.3943  L 24.2544,52.3902 L 24.2928,52.3865 L 28.1367,52.0007 L 28.1757,51.9966 L 28.2222,51.9916 L 28.2546,51.9879  L 32.076,51.5427 L 32.1081,51.5389 L 32.1543,51.5331 L 32.1868,51.5289 L 35.9689,51.0262 L 35.9998,51.0219  L 36.0485,51.015 L 36.0852,51.0097 L 39.8206,50.4505 L 39.8557,50.4451 L 39.9041,50.4374 L 39.9395,50.4317  L 43.6224,49.817 L 43.66,49.8106 L 43.7119,49.8015 L 43.7456,49.7954 L 47.3785,49.1249 L 47.4181,49.1174  L 47.4631,49.1087 L 47.5078,49.0999 L 47.9447,49.0113 L 48.1749,48.9583 L 48.4436,48.889 L 48.8923,48.7479  L 49.1282,48.6599 L 49.5601,48.4724 L 49.7849,48.3605 L 50.1948,48.129 L 50.4071,47.9939 L 50.7902,47.7211  L 50.987,47.5647 L 51.3399,47.253 L 51.5191,47.0771 L 51.8376,46.73 L 51.9977,46.5361 L 52.278,46.1578  L 52.4168,45.9485 L 52.656,45.543 L 52.772,45.3205 L 52.9679,44.8916 L 53.0599,44.6584 L 53.2096,44.212  L 53.277,43.9695 L 53.3792,43.5102 L 53.4204,43.265 L 53.4754,42.7753 L 53.4927,42.4716 L 53.5,42.2154  L 53.5,42.066 L 53.4938,41.8295 L 53.4794,41.5535 L 53.4267,41.0523 L 53.4226,41.0001 L 53.4171,40.8956  L 53.4171,40.7909 L 53.4226,40.6864 L 53.4335,40.5823 L 53.4499,40.4789 L 53.4716,40.3766 L 53.4987,40.2755  L 53.5311,40.1759 L 53.5686,40.0782 L 53.6111,39.9825 L 53.6586,39.8893 L 53.711,39.7987 L 53.768,39.7109  L 53.8295,39.6261 L 53.8954,39.5448 L 53.9654,39.467 L 54.0395,39.393 L 54.1172,39.3229 L 54.1986,39.257  L 54.2832,39.1956 L 54.371,39.1386 L 54.4618,39.0861 L 54.5551,39.0386 L 54.6505,38.9961 L 54.7482,38.9586  L 54.8478,38.9262 L 54.9489,38.8991 L 55.0513,38.8774 L 55.1547,38.861 L 55.2588,38.8501 L 55.3633,38.8446  L 55.468,38.8446 L 55.5725,38.8501 L 55.6507,38.8572 L 55.7027,38.8641 L 55.7286,38.8678 L 77.1973,42.2682  L 77.3011,42.2834 L 77.3904,42.2954 L 77.4941,42.3082 L 77.5161,42.3107 L 77.7251,42.3291 L 77.9111,42.3411  L 78.0968,42.3489 L 78.2943,42.3479 L 78.4837,42.3423 L 78.6773,42.3321 L 78.8635,42.3135 L 79.0455,42.2911  L 79.2352,42.2633 L 79.4203,42.2274 L 79.6,42.1882 L 79.7894,42.1425 L 79.967,42.091 L 80.1331,42.039  L 80.3154,41.9774 L 80.4846,41.9123 L 80.6373,41.8498 L 80.8077,41.7759 L 80.8194,41.7706 L 80.9744,41.6959  L 81.1129,41.6259 L 81.2644,41.5456 L 81.2948,41.5288 L 81.435,41.4476 L 81.5599,41.3723 L 81.6974,41.2859  L 81.7251,41.2678 L 81.8684,41.1701 L 81.9942,41.0807 L 82.1346,40.9769 L 82.1456,40.9684 L 82.289,40.8531  L 82.4152,40.7474 L 82.5513,40.6287 L 82.6922,40.4947 L 82.8144,40.3735 L 82.9426,40.2407 L 83.0708,40.0956  L 83.1862,39.959 L 83.3038,39.8131 L 83.4185,39.6571 L 83.5244,39.5056 L 83.6295,39.3478 L 83.7277,39.1847  L 83.8176,39.0272 L 83.9074,38.8614 L 83.9908,38.6889 L 84.0672,38.5212 L 84.1484,38.3317 L 84.1834,38.2444  L 84.1941,38.2174 L 84.9749,36.238 L 85.0556,36.0167 L 85.114,35.8425 L 85.24,35.389 L 85.2741,35.2357  L 85.352,34.771 L 85.3698,34.6154 L 85.3988,34.1453 L 85.4003,33.9887 L 85.3799,33.5176 L 85.36,33.3094  L 85.3605,33.3087 L 85.3542,33.242 L 85.3497,33.1375 L 85.3507,33.0328 L 85.3572,32.9285 L 85.3691,32.8245  L 85.3865,32.7211 L 85.4093,32.6189 L 85.4373,32.5182 L 85.4706,32.4189 L 85.5091,32.3215 L 85.5526,32.2263  L 85.6009,32.1336 L 85.6541,32.0435 L 85.7121,31.9561 L 85.7744,31.872 L 85.8411,31.7913 L 85.9118,31.7142  L 85.9865,31.641 L 86.0649,31.5717 L 86.1469,31.5066 L 86.2322,31.4459 L 86.3206,31.3897 L 86.4118,31.3382  L 86.5054,31.2917 L 86.6014,31.25 L 86.6995,31.2134 L 86.7994,31.182 L 86.9007,31.1559 L 87.0033,31.1351  L 87.1069,31.1198 L 87.2111,31.1098 L 87.3156,31.1053 L 87.4203,31.1064 L 87.5247,31.1128 L 87.6287,31.1248  L 87.732,31.1422 L 87.8342,31.1649 L 87.935,31.1929 L 88.0342,31.2262 L 88.1317,31.2647 L 88.2269,31.3082  L 88.3379,31.3677 L 88.4632,31.4453 L 88.5244,31.4864 L 88.5394,31.4973 L 88.75,31.634 L 89.1574,31.8692  L 89.3818,31.9836 L 89.8116,32.175 L 90.0462,32.265 L 90.494,32.4105 L 90.7366,32.4755 L 91.1974,32.5734  L 91.4452,32.6127 L 91.9141,32.662 L 92.1645,32.6751 L 92.6355,32.6751 L 92.8859,32.662 L 93.3548,32.6127  L 93.6026,32.5734 L 94.0634,32.4755 L 94.306,32.4105 L 94.754,32.265 L 94.9808,32.1779 L 95.4751,31.953  L 95.802,31.7798 L 96.0687,31.6266 L 97.1296,30.9678 L 97.1933,30.9275 L 97.2756,30.8744 L 97.3418,30.831  L 99.4155,29.4426 L 99.4811,29.3978 L 99.5671,29.3379 L 99.6357,29.2892 L 101.583,27.8804 L 101.654,27.8276  L 101.742,27.7612 L 101.812,27.7079 L 103.636,26.277 L 103.709,26.2188 L 103.803,26.1417 L 103.871,26.0848  L 105.567,24.6373 L 105.644,24.5703 L 105.737,24.4875 L 105.811,24.4196 L 107.377,22.9596 L 107.454,22.8864  L 107.552,22.7909 L 107.625,22.7172 L 109.063,21.2441 L 109.14,21.1632 L 109.239,21.057 L 109.314,20.9739  L 110.62,19.4948 L 110.697,19.4048 L 110.796,19.2866 L 110.873,19.1922 L 112.047,17.7102 L 112.124,17.6098  L 112.224,17.476 L 112.298,17.3743 L 113.34,15.892 L 113.417,15.7787 L 113.513,15.6326 L 113.586,15.5179  L 114.498,14.0389 L 114.572,13.9145 L 114.664,13.7533 L 114.733,13.6281 L 115.516,12.1533 L 115.585,12.0181  L 115.672,11.8405 L 115.736,11.7038 L 116.392,10.2372 L 116.454,10.0907 L 116.531,9.89984 L 116.589,9.75076  L 117.12,8.29214 L 117.174,8.13408 L 117.24,7.9301 L 117.289,7.77025 L 117.697,6.32266 L 117.741,6.15422  L 117.793,5.93933 L 117.831,5.77046 L 118.121,4.32939 L 118.152,4.15396 L 118.189,3.92863 L 118.213,3.75432  L 118.386,2.31888 L 118.404,2.1394 L 118.423,1.90953 L 118.433,1.72922 L 118.491,0.297531 L 118.495,0.116119  L 118.495,-0.116119 L 118.491,-0.297531 L 118.433,-1.72922 L 118.423,-1.90953 L 118.404,-2.1394 L 118.386,-2.31888  L 118.213,-3.75432 L 118.189,-3.92863 L 118.152,-4.15396 L 118.121,-4.32954 L 117.831,-5.77016 L 117.793,-5.93901  L 117.741,-6.15422 L 117.697,-6.32266 L 117.289,-7.77025 L 117.24,-7.9301 L 117.174,-8.13408 L 117.12,-8.29214  L 116.589,-9.75076 L 116.531,-9.8998 L 116.454,-10.0907 L 116.392,-10.2372 L 115.736,-11.7038 L 115.672,-11.8405  L 115.585,-12.0181 L 115.516,-12.1533 L 114.734,-13.6274 L 114.664,-13.7538 L 114.572,-13.9148 L 114.498,-14.0382  L 113.586,-15.5183 L 113.513,-15.6326 L 113.417,-15.7784 L 113.34,-15.8918 L 112.298,-17.3743 L 112.224,-17.476  L 112.124,-17.6098 L 112.047,-17.7102 L 110.873,-19.1922 L 110.796,-19.2866 L 110.697,-19.4048 L 110.62,-19.4948  L 109.314,-20.9739 L 109.239,-21.057 L 109.14,-21.1632 L 109.063,-21.2441 L 107.625,-22.7172 L 107.552,-22.7909  L 107.454,-22.8864 L 107.377,-22.9596 L 105.811,-24.4196 L 105.737,-24.4875 L 105.644,-24.5703 L 105.567,-24.6373  L 103.871,-26.0848 L 103.803,-26.1417 L 103.709,-26.2188 L 103.636,-26.277 L 101.812,-27.7079 L 101.742,-27.7612  L 101.654,-27.8276 L 101.583,-27.8804 L 99.6363,-29.2888 L 99.5668,-29.3381 L 99.4811,-29.3978 L 99.4155,-29.4426  L 97.3405,-30.8318 L 97.2778,-30.873 L 97.1943,-30.9269 L 97.1283,-30.9687 L 94.9366,-32.3295 L 94.874,-32.3677  L 94.7939,-32.4157 L 94.7329,-32.4515 L 92.4222,-33.7848 L 92.3625,-33.8186 L 92.2843,-33.8621 L 92.2242,-33.895  L 89.7994,-35.1969 L 89.7428,-35.2268 L 89.6685,-35.2653 L 89.6089,-35.2956 L 87.0778,-36.5616 L 87.0214,-36.5893  L 86.9471,-36.6252 L 86.8924,-36.6512 L 84.2495,-37.8834 L 84.197,-37.9075 L 84.1243,-37.9402 L 84.0734,-37.9628  L 81.3258,-39.1574 L 81.275,-39.1791 L 81.2076,-39.2074 L 81.1543,-39.2294 L 78.3091,-40.3829 L 78.2568,-40.4038  L 78.1955,-40.4278 L 78.145,-40.4472 L 75.1975,-41.5612 L 75.1517,-41.5782 L 75.087,-41.6018 L 75.042,-41.618  L 72.0042,-42.6875 L 71.9558,-42.7043 L 71.8971,-42.7242 L 71.8541,-42.7386 L 68.7214,-43.7649 L 68.68,-43.7783  L 68.6224,-43.7965 L 68.5752,-43.8111 L 65.3631,-44.789 L 65.321,-44.8016 L 65.2648,-44.8181 L 65.2171,-44.8318  L 61.9278,-45.7606 L 61.887,-45.7718 L 61.8315,-45.7869 L 61.7895,-45.7981 L 58.422,-46.6779 L 58.3786,-46.689  L 58.3249,-46.7025 L 58.2835,-46.7126 L 54.8421,-47.542 L 54.8032,-47.5512 L 54.755,-47.5624 L 54.7121,-47.5721  L 51.2001,-48.3501 L 51.166,-48.3575 L 51.1113,-48.3691 L 51.0734,-48.377 L 47.5046,-49.1005 L 47.4688,-49.1076  L 47.4112,-49.1187 z M 58.3344,-10.6195 L 58.2298,-10.6251 L 58.1258,-10.6362 L 58.0224,-10.6526 L 57.9201,-10.6745 L 57.8189,-10.7017  L 57.7194,-10.7342 L 57.6218,-10.7717 L 57.5262,-10.8144 L 57.4329,-10.862 L 57.3423,-10.9145 L 57.2546,-10.9716  L 57.17,-11.0332 L 57.0887,-11.0991 L 57.011,-11.1692 L 56.9371,-11.2433 L 56.8672,-11.3212 L 56.8013,-11.4027  L 56.7399,-11.4874 L 56.683,-11.5752 L 56.6308,-11.6659 L 56.5855,-11.7543 L 56.547,-11.8398 L 56.5287,-11.883  L 56.4578,-12.0626 L 56.3799,-12.2473 L 56.3068,-12.4106 L 56.2209,-12.5914 L 55.9299,-13.1706 L 55.849,-13.3241  L 55.7731,-13.4616 L 55.6854,-13.6133 L 55.3365,-14.1907 L 55.2549,-14.3207 L 55.1793,-14.4366 L 55.0923,-14.5651  L 54.7007,-15.1224 L 54.6098,-15.2472 L 54.5257,-15.3584 L 54.4296,-15.4812 L 54.0013,-16.009 L 53.9016,-16.1276  L 53.8113,-16.2313 L 53.7071,-16.347 L 53.2396,-16.8481 L 53.1329,-16.9586 L 53.038,-17.0536 L 52.9264,-17.1616  L 52.4187,-17.6364 L 52.3091,-17.7355 L 52.2074,-17.8245 L 52.0933,-17.921 L 51.543,-18.3708 L 51.4284,-18.4614  L 51.3255,-18.5401 L 51.2093,-18.6261 L 50.6138,-19.0519 L 50.4992,-19.1311 L 50.3948,-19.201 L 50.2787,-19.276  L 49.6286,-19.6823 L 49.5256,-19.7447 L 49.4303,-19.8007 L 49.3226,-19.862 L 48.6297,-20.2438 L 48.5321,-20.296  L 48.4437,-20.3419 L 48.3439,-20.3922 L 47.6219,-20.7448 L 47.5242,-20.791 L 47.4324,-20.8331 L 47.3344,-20.8766  L 46.5869,-21.1975 L 46.4856,-21.2396 L 46.3979,-21.2747 L 46.2979,-21.3134 L 45.5243,-21.6025 L 45.4242,-21.6386  L 45.3362,-21.6691 L 45.2363,-21.7025 L 44.4383,-21.9587 L 44.3392,-21.9893 L 44.2526,-22.015 L 44.1532,-22.0432  L 43.3257,-22.2678 L 43.2309,-22.2924 L 43.1432,-22.3141 L 43.0452,-22.3373 L 42.1934,-22.5284 L 42.0986,-22.5486  L 42.0129,-22.5659 L 41.9206,-22.5836 L 41.0128,-22.7468 L 40.9693,-22.7544 L 40.9241,-22.762 L 40.8774,-22.7697  L 23.6276,-25.5018 L 23.5247,-25.5169 L 23.4329,-25.5293 L 23.3312,-25.5418 L 23.3074,-25.5444 L 23.1013,-25.5626  L 22.9159,-25.5747 L 22.7264,-25.5826 L 22.5339,-25.5816 L 22.3463,-25.5762 L 22.15,-25.5659 L 21.9641,-25.5474  L 21.7761,-25.5242 L 21.5845,-25.496 L 21.4014,-25.4605 L 21.2236,-25.4217 L 21.0386,-25.377 L 20.8597,-25.3253  L 20.6936,-25.2733 L 20.5127,-25.2124 L 20.3417,-25.1466 L 20.1884,-25.0839 L 20.0178,-25.01 L 20.0059,-25.0046  L 19.8501,-24.9296 L 19.7137,-24.8607 L 19.5612,-24.78 L 19.5331,-24.7644 L 19.3901,-24.6817 L 19.2634,-24.6053  L 19.1244,-24.5179 L 19.0974,-24.5002 L 18.9536,-24.4021 L 18.8282,-24.3129 L 18.69,-24.2106 L 18.6787,-24.2019  L 18.5356,-24.0869 L 18.4101,-23.9817 L 18.2718,-23.8609 L 18.1321,-23.7281 L 18.0091,-23.606 L 17.8805,-23.4726  L 17.7534,-23.3287 L 17.6381,-23.1921 L 17.5193,-23.0446 L 17.4066,-22.8912 L 17.3015,-22.7409 L 17.1965,-22.5833  L 17.0967,-22.4175 L 17.0057,-22.258 L 16.9148,-22.0897 L 16.8324,-21.919 L 16.7571,-21.7537 L 16.6769,-21.5663  L 16.652,-21.5042 L 16.6381,-21.4693 L 16.6271,-21.4412 L 16.6162,-21.4132 L 13.6919,-13.8181 L 13.6718,-13.7698  L 13.6292,-13.6742 L 13.5815,-13.5809 L 13.5291,-13.4903 L 13.472,-13.4026 L 13.4104,-13.318 L 13.3444,-13.2367  L 13.2743,-13.159 L 13.2003,-13.0851 L 13.1224,-13.0152 L 13.0409,-12.9493 L 12.9561,-12.8878 L 12.8684,-12.831  L 12.7777,-12.7787 L 12.6844,-12.7313 L 12.5887,-12.6888 L 12.4909,-12.6514 L 12.3913,-12.6192 L 12.2901,-12.5922  L 12.1877,-12.5705 L 12.0845,-12.5543 L 11.9804,-12.5434 L 11.8758,-12.538 L 11.7711,-12.5381 L 11.6666,-12.5437  L 11.5625,-12.5548 L 11.4591,-12.5713 L 11.3568,-12.5931 L 11.2556,-12.6203 L 11.1561,-12.6528 L 11.0585,-12.6904  L 10.963,-12.733 L 10.8697,-12.7807 L 10.7791,-12.8331 L 10.6914,-12.8902 L 10.6067,-12.9518 L 10.5255,-13.0177  L 10.4478,-13.0879 L 10.3738,-13.1619 L 10.3039,-13.2398 L 10.238,-13.3213 L 10.1766,-13.406 L 10.1197,-13.4938  L 10.0675,-13.5845 L 10.02,-13.6778 L 9.97755,-13.7735 L 9.94014,-13.8713 L 9.9079,-13.9708 L 9.87752,-14.0887  L 9.85114,-14.2249 L 9.84032,-14.2934 L 9.77165,-14.8536 L 9.75076,-15.0033 L 9.73,-15.1357 L 9.7041,-15.2847  L 9.54353,-16.1246 L 9.51215,-16.275 L 9.48254,-16.4057 L 9.44659,-16.5529 L 9.22987,-17.3794 L 9.18903,-17.5251  L 9.1505,-17.6541 L 9.10422,-17.8 L 8.83278,-18.6081 L 8.78017,-18.7561 L 8.73157,-18.8857 L 8.67413,-19.0311  L 8.35139,-19.8085 L 8.2858,-19.9587 L 8.22523,-20.0908 L 8.15456,-20.2379 L 7.78189,-20.9785 L 7.70477,-21.125  L 7.63422,-21.2532 L 7.55116,-21.3977 L 7.1284,-22.1032 L 7.03984,-22.245 L 6.96013,-22.3675 L 6.86671,-22.5054  L 6.39137,-23.1802 L 6.29437,-23.3127 L 6.20555,-23.4295 L 6.10356,-23.5586 L 5.57426,-24.2041 L 5.46988,-24.3268  L 5.37431,-24.4352 L 5.26566,-24.5541 L 4.67972,-25.1723 L 4.56972,-25.2844 L 4.47047,-25.382 L 4.35698,-25.4899  L 3.71167,-26.0822 L 3.59837,-26.1827 L 3.49739,-26.2693 L 3.38049,-26.3663 L 2.67773,-26.9294 L 2.55855,-27.0216  L 2.45123,-27.1019 L 2.32959,-27.1897 L 1.57648,-27.7146 L 1.44975,-27.7997 L 1.33591,-27.8735 L 1.20602,-27.9545  L 0.408478,-28.4333 L 0.279297,-28.5079 L 0.163834,-28.5721 L 0.0314484,-28.6429 L -0.813522,-29.0768 L -0.943893,-29.1411  L -1.05876,-29.1955 L -1.19066,-29.2554 L -2.08661,-29.6451 L -2.21649,-29.6992 L -2.32901,-29.7441 L -2.45915,-29.7937  L -3.40877,-30.139 L -3.53336,-30.1823 L -3.64415,-30.2189 L -3.7709,-30.2588 L -4.77451,-30.5584 L -4.89365,-30.5922  L -5.00235,-30.6214 L -5.12271,-30.6519 L -6.18436,-30.9056 L -6.29744,-30.9311 L -6.4019,-30.9532 L -6.51672,-30.9759  L -7.62964,-31.1808 L -7.7448,-31.2005 L -7.84541,-31.2164 L -7.96045,-31.233 L -9.33173,-31.4131 L -9.45399,-31.4275  L -9.56332,-31.4388 L -9.68637,-31.4498 L -11.0191,-31.5509 L -11.1495,-31.5589 L -11.2655,-31.5644 L -11.3929,-31.5685  L -12.6927,-31.5922 L -12.8305,-31.5927 L -12.9487,-31.5913 L -13.082,-31.5877 L -14.3495,-31.5349 L -14.4885,-31.5269  L -14.6126,-31.5179 L -14.7509,-31.5057 L -15.9872,-31.3772 L -16.1287,-31.3602 L -16.2554,-31.343 L -16.3958,-31.3216  L -17.6021,-31.1181 L -17.746,-31.0914 L -17.8727,-31.0658 L -18.013,-31.035 L -19.194,-30.7561 L -19.3353,-30.7203  L -19.4624,-30.6859 L -19.6024,-30.6454 L -20.7626,-30.2899 L -20.8917,-30.2482 L -21.0058,-30.2094 L -21.1366,-30.1626  L -22.2717,-29.7375 L -22.3911,-29.6908 L -22.4972,-29.6476 L -22.6175,-29.5965 L -23.7139,-29.1125 L -23.8341,-29.0572  L -23.9399,-29.0068 L -24.0578,-28.9484 L -25.1138,-28.4063 L -25.2323,-28.3432 L -25.3339,-28.2872 L -25.4511,-28.2203  L -26.4671,-27.6201 L -26.5818,-27.55 L -26.6819,-27.4868 L -26.794,-27.4136 L -27.7719,-26.7544 L -27.8816,-26.678  L -27.978,-26.6088 L -28.0857,-26.5289 L -29.0253,-25.8109 L -29.129,-25.7291 L -29.2207,-25.6546 L -29.3226,-25.5694  L -30.2254,-24.791 L -30.324,-24.7034 L -30.4101,-24.6248 L -30.5046,-24.5358 L -31.3712,-23.6962 L -31.4097,-23.6608  L -31.4886,-23.592 L -31.571,-23.5275 L -31.6566,-23.4673 L -31.7454,-23.4116 L -31.8368,-23.3607 L -31.9307,-23.3147  L -32.027,-23.2737 L -32.1254,-23.2377 L -32.2255,-23.2069 L -32.3271,-23.1814 L -32.4298,-23.1613 L -32.5333,-23.1466  L -32.6375,-23.1373 L -32.7421,-23.1335 L -32.8467,-23.1351 L -32.9513,-23.1423 L -33.0552,-23.1548 L -33.1584,-23.1729  L -33.2604,-23.1963 L -33.361,-23.2249 L -33.4601,-23.2589 L -33.5571,-23.2979 L -33.652,-23.342 L -33.7445,-23.3909  L -33.8343,-23.4447 L -33.9213,-23.5032 L -34.005,-23.566 L -34.0852,-23.6332 L -34.1619,-23.7044 L -34.2347,-23.7796  L -34.3035,-23.8585 L -34.3681,-23.9408 L -34.4283,-24.0265 L -34.4839,-24.1152 L -34.5348,-24.2066 L -34.5808,-24.3006  L -34.6218,-24.3969 L -34.6578,-24.4953 L -34.6886,-24.5953 L -34.7141,-24.6969 L -34.7342,-24.7996 L -34.7489,-24.9031  L -34.7582,-25.0074 L -34.7621,-25.1119 L -34.7604,-25.2166 L -34.7533,-25.3211 L -34.7407,-25.425 L -34.7227,-25.5282  L -34.6993,-25.6302 L -34.673,-25.7238 L -34.6445,-25.809 L -34.6293,-25.8513 L -34.0824,-27.2716 L -34.0032,-27.4946  L -33.9464,-27.6687 L -33.8242,-28.1228 L -33.7914,-28.2768 L -33.7172,-28.7415 L -33.7007,-28.8976 L -33.6755,-29.3684  L -33.6754,-29.525 L -33.6996,-29.9955 L -33.7157,-30.1508 L -33.7891,-30.6171 L -33.8214,-30.7702 L -33.9429,-31.2252  L -33.9912,-31.3745 L -34.1594,-31.8141 L -34.2233,-31.9579 L -34.4365,-32.3775 L -34.5148,-32.5134 L -34.7711,-32.909  L -34.863,-33.0357 L -35.1593,-33.4024 L -35.2644,-33.5193 L -35.4676,-33.723 L -35.5035,-33.7609 L -35.5735,-33.8388  L -35.6395,-33.9204 L -35.7009,-34.0051 L -35.7578,-34.0929 L -35.81,-34.1836 L -35.8574,-34.2768 L -35.8999,-34.3725  L -35.9373,-34.4702 L -35.9695,-34.5698 L -35.9966,-34.6711 L -36.0182,-34.7735 L -36.0345,-34.8767 L -36.0453,-34.9808  L -36.0507,-35.0855 L -36.0506,-35.1902 L -36.045,-35.2947 L -36.034,-35.3988 L -36.0175,-35.5021 L -35.9956,-35.6045  L -35.9685,-35.7055 L -35.936,-35.805 L -35.8984,-35.9027 L -35.8558,-35.9983 L -35.8081,-36.0916 L -35.7557,-36.1822  L -35.6986,-36.2699 L -35.637,-36.3545 L -35.571,-36.4358 L -35.5009,-36.5135 L -35.4269,-36.5873 L -35.3491,-36.6573  L -35.2675,-36.7233 L -35.1827,-36.7847 L -35.095,-36.8415 L -35.0043,-36.8938 L -34.911,-36.9412 L -34.8154,-36.9837  L -34.7177,-37.0211 L -34.6181,-37.0533 L -34.5132,-37.0811 L -34.4034,-37.1039 L -34.3482,-37.1138 L -34.0848,-37.1532  L -34.0768,-37.1544 L -34.0605,-37.1567 L -34.0522,-37.1578 L -30.4156,-37.6413 L -30.3913,-37.6443 L -30.3835,-37.6452  L -26.7043,-38.0739 L -26.6959,-38.0748 L -26.68,-38.0765 L -22.959,-38.4501 L -22.9355,-38.4523 L -22.9277,-38.453  L -19.1822,-38.7695 L -19.159,-38.7713 L -19.1512,-38.7719 L -15.3804,-39.0315 L -15.3577,-39.033 L -15.3496,-39.0334  L -11.5582,-39.2358 L -11.5354,-39.2369 L -11.5276,-39.2372 L -7.71732,-39.3822 L -7.68686,-39.3831 L -3.87042,-39.4701  L -3.86272,-39.4702 L -3.84753,-39.4704 L -0.0151978,-39.4996 L 0.00759888,-39.4996 L 0.0151978,-39.4996 L 3.84753,-39.4704  L 3.86272,-39.4702 L 3.87042,-39.4701 L 7.68686,-39.3831 L 7.71732,-39.3822 L 11.5276,-39.2372 L 11.5507,-39.2362  L 11.5582,-39.2358 L 15.3496,-39.0334 L 15.3731,-39.032 L 15.3804,-39.0315 L 19.1512,-38.7719 L 19.1745,-38.7701  L 19.1822,-38.7695 L 22.9277,-38.453 L 22.9512,-38.4508 L 22.959,-38.4501 L 26.68,-38.0765 L 26.6959,-38.0748  L 26.7043,-38.0739 L 30.3835,-37.6452 L 30.4074,-37.6423 L 30.4156,-37.6413 L 34.0522,-37.1578 L 34.0848,-37.1532  L 37.6747,-36.6158 L 37.6997,-36.6118 L 37.7079,-36.6105 L 41.2453,-36.0201 L 41.2536,-36.0187 L 41.2705,-36.0157  L 41.2791,-36.0142 L 44.7608,-35.3716 L 44.7699,-35.3699 L 44.7871,-35.3666 L 44.7952,-35.3649 L 48.2169,-34.6712  L 48.2253,-34.6695 L 48.2429,-34.6658 L 48.2521,-34.6638 L 51.605,-33.921 L 51.6143,-33.9189 L 51.6323,-33.9147  L 51.641,-33.9126 L 54.9239,-33.1215 L 54.9331,-33.1192 L 54.9516,-33.1146 L 54.9609,-33.1122 L 58.168,-32.2744  L 58.1776,-32.2718 L 58.1965,-32.2667 L 58.2059,-32.2641 L 61.3318,-31.3815 L 61.3414,-31.3787 L 61.3609,-31.373  L 61.3708,-31.37 L 64.4116,-30.4442 L 64.4216,-30.4412 L 64.4417,-30.4348 L 64.4518,-30.4315 L 67.4009,-29.4653  L 67.4117,-29.4618 L 67.4324,-29.4547 L 67.4425,-29.4512 L 70.2988,-28.4455 L 70.3091,-28.4419 L 70.3306,-28.4341  L 70.3417,-28.4299 L 73.0983,-27.3881 L 73.1097,-27.3837 L 73.1319,-27.375 L 73.1427,-27.3707 L 75.7959,-26.2949  L 75.8075,-26.2902 L 75.8305,-26.2805 L 75.8419,-26.2756 L 78.3873,-25.1689 L 78.3993,-25.1637 L 78.4231,-25.1529  L 78.435,-25.1475 L 80.8692,-24.0125 L 80.8819,-24.0065 L 80.9066,-23.9946 L 80.9187,-23.9886 L 83.2363,-22.8294  L 83.2488,-22.8231 L 83.2745,-22.8098 L 83.2878,-22.8028 L 85.486,-21.6225 L 85.4996,-21.6151 L 85.5263,-21.6002  L 85.5394,-21.5928 L 87.6144,-20.3955 L 87.6283,-20.3873 L 87.6561,-20.3707 L 87.67,-20.3623 L 89.6181,-19.1526  L 89.6325,-19.1435 L 89.6613,-19.1249 L 89.6758,-19.1154 L 90.0897,-18.8383 L 90.1325,-18.808 L 90.2163,-18.7453  L 90.2966,-18.6783 L 90.3734,-18.6072 L 90.4463,-18.5323 L 90.5152,-18.4535 L 90.5801,-18.3711 L 90.6404,-18.2856  L 90.6962,-18.197 L 90.7472,-18.1057 L 90.7934,-18.0118 L 90.8347,-17.9156 L 90.8708,-17.8173 L 90.9017,-17.7173  L 90.9274,-17.6158 L 90.9477,-17.5131 L 90.9626,-17.4097 L 90.9721,-17.3054 L 90.9762,-17.2007 L 90.9747,-17.0961  L 90.9677,-16.9916 L 90.9553,-16.8876 L 90.9375,-16.7845 L 90.9143,-16.6825 L 90.8858,-16.5818 L 90.8521,-16.4827  L 90.8132,-16.3856 L 90.7693,-16.2905 L 90.7205,-16.1978 L 90.6669,-16.1079 L 90.6086,-16.0209 L 90.5459,-15.9371  L 90.4789,-15.8568 L 90.4078,-15.78 L 90.3329,-15.7071 L 90.2541,-15.6382 L 90.1717,-15.5733 L 90.0862,-15.513  L 89.9976,-15.4572 L 89.9062,-15.4062 L 89.8124,-15.36 L 89.7162,-15.3187 L 89.6179,-15.2826 L 89.5179,-15.2516  L 89.4164,-15.226 L 89.3137,-15.2056 L 89.2103,-15.1907 L 89.106,-15.1812 L 89.0013,-15.1772 L 88.8967,-15.1787  L 88.7991,-15.1848 L 88.709,-15.1949 L 88.6641,-15.201 L 68.2095,-18.4407 L 68.1092,-18.4554 L 68.0147,-18.4682  L 67.917,-18.4802 L 67.8916,-18.483 L 67.6834,-18.5014 L 67.4991,-18.5134 L 67.3098,-18.5213 L 67.1172,-18.5203  L 66.9284,-18.5149 L 66.7417,-18.5053 L 66.545,-18.4858 L 66.3602,-18.4631 L 66.1678,-18.4348 L 65.984,-18.3991  L 65.8076,-18.3606 L 65.6178,-18.3146 L 65.4435,-18.2642 L 65.278,-18.2124 L 65.0949,-18.1507 L 64.9254,-18.0855  L 64.7716,-18.0226 L 64.6005,-17.9485 L 64.5898,-17.9436 L 64.4338,-17.8686 L 64.2967,-17.7993 L 64.1438,-17.7184  L 64.1161,-17.703 L 63.9727,-17.6201 L 63.8473,-17.5444 L 63.7066,-17.4559 L 63.6794,-17.4382 L 63.5374,-17.3412  L 63.4122,-17.2522 L 63.2723,-17.1486 L 63.2616,-17.1404 L 63.1189,-17.0257 L 62.9927,-16.9199 L 62.8551,-16.7997  L 62.7155,-16.667 L 62.5934,-16.5457 L 62.4645,-16.4122 L 62.337,-16.2677 L 62.2209,-16.1302 L 62.1026,-15.9834  L 61.9888,-15.8284 L 61.8846,-15.6795 L 61.7783,-15.5198 L 61.6805,-15.3571 L 61.5887,-15.1963 L 61.4968,-15.0261  L 61.4152,-14.8571 L 61.3399,-14.6915 L 61.26,-14.5048 L 61.2349,-14.4422 L 61.2215,-14.4086 L 61.2122,-14.3848  L 61.1992,-14.3514 L 60.2552,-11.8995 L 60.2351,-11.8512 L 60.1924,-11.7556 L 60.1448,-11.6623 L 60.0924,-11.5717  L 60.0353,-11.484 L 59.9737,-11.3994 L 59.9077,-11.3181 L 59.8376,-11.2404 L 59.7635,-11.1665 L 59.6857,-11.0965  L 59.6042,-11.0307 L 59.5194,-10.9692 L 59.4317,-10.9124 L 59.341,-10.8601 L 59.2476,-10.8127 L 59.152,-10.7702  L 59.0542,-10.7328 L 58.9546,-10.7005 L 58.8534,-10.6736 L 58.751,-10.6519 L 58.6478,-10.6357 L 58.5437,-10.6248  L 58.439,-10.6194 z M -56.7388,-13.0735 L -56.8434,-13.079 L -56.9475,-13.0901 L -57.0508,-13.1066 L -57.1532,-13.1284 L -57.2543,-13.1556  L -57.3538,-13.1881 L -57.4514,-13.2256 L -57.547,-13.2683 L -57.6403,-13.3159 L -57.7309,-13.3684 L -57.8185,-13.4254  L -57.9032,-13.487 L -57.9845,-13.553 L -58.0622,-13.6231 L -58.1362,-13.6972 L -58.2061,-13.7751 L -58.2719,-13.8565  L -58.3334,-13.9412 L -58.3903,-14.0291 L -58.4425,-14.1198 L -58.4899,-14.213 L -58.5324,-14.3087 L -58.5697,-14.4058  L -58.6015,-14.504 L -58.6162,-14.5535 L -63.23,-31.7412 L -63.2423,-31.7921 L -63.2641,-31.8945 L -63.2805,-31.9977  L -63.2915,-32.1018 L -63.297,-32.2065 L -63.2971,-32.3111 L -63.2916,-32.4157 L -63.2807,-32.5198 L -63.2644,-32.6231  L -63.2427,-32.7255 L -63.2157,-32.8267 L -63.1833,-32.9263 L -63.1459,-33.0239 L -63.1034,-33.1196 L -63.0558,-33.213  L -63.0035,-33.3037 L -62.9467,-33.3913 L -62.8852,-33.476 L -62.8193,-33.5575 L -62.7493,-33.6353 L -62.6753,-33.7094  L -62.5975,-33.7794 L -62.5163,-33.8452 L -62.4317,-33.9068 L -62.3437,-33.964 L -62.2531,-34.0164 L -62.16,-34.0638  L -62.0644,-34.1065 L -61.9667,-34.144 L -61.8672,-34.1764 L -61.766,-34.2036 L -61.6636,-34.2254 L -61.5604,-34.2418  L -61.4563,-34.2528 L -61.3517,-34.2583 L -61.247,-34.2584 L -61.1424,-34.2529 L -61.0383,-34.242 L -60.935,-34.2257  L -60.8326,-34.204 L -60.7314,-34.1769 L -60.6319,-34.1446 L -60.5342,-34.1072 L -60.4386,-34.0647 L -60.345,-34.0171  L -60.2972,-33.9895 L -60.2955,-33.9899 L -59.8424,-33.7283 L -59.6182,-33.6141 L -59.1884,-33.4227 L -58.9538,-33.3326  L -58.506,-33.1871 L -58.2634,-33.1221 L -57.8026,-33.0242 L -57.5548,-32.9849 L -57.0859,-32.9357 L -56.8355,-32.9225  L -56.3645,-32.9225 L -56.1231,-32.9352 L -55.5723,-32.9983 L -55.3204,-33.043 L -55.2473,-33.0602 L -55.2005,-33.0701  L -54.9233,-33.1216 L -51.6408,-33.9127 L -51.6321,-33.9147 L -51.6142,-33.9189 L -51.6049,-33.921 L -50.5199,-34.1614  L -50.4685,-34.1714 L -50.3652,-34.1886 L -50.2613,-34.2004 L -50.1568,-34.2068 L -50.052,-34.2077 L -49.9474,-34.2031  L -49.8434,-34.1931 L -49.7398,-34.1776 L -49.6373,-34.1567 L -49.536,-34.1305 L -49.436,-34.099 L -49.338,-34.0623  L -49.2421,-34.0206 L -49.1485,-33.9739 L -49.0573,-33.9223 L -48.969,-33.866 L -48.8839,-33.8053 L -48.8019,-33.7401  L -48.7235,-33.6707 L -48.6489,-33.5973 L -48.5782,-33.5202 L -48.5116,-33.4394 L -48.4493,-33.3552 L -48.3916,-33.2679  L -48.3385,-33.1777 L -48.2902,-33.0848 L -48.2468,-32.9897 L -48.2085,-32.8923 L -48.1752,-32.793 L -48.1473,-32.6921  L -48.1246,-32.5899 L -48.1074,-32.4866 L -48.0956,-32.3827 L -48.0892,-32.2782 L -48.0883,-32.1734 L -48.0929,-32.0688  L -48.1029,-31.9648 L -48.1184,-31.8612 L -48.1393,-31.7587 L -48.1655,-31.6574 L -48.1898,-31.5775 L -48.2102,-31.519  L -48.2208,-31.4902 L -54.8181,-14.3535 L -54.8382,-14.3052 L -54.8808,-14.2096 L -54.9285,-14.1163 L -54.9809,-14.0257  L -55.0379,-13.9381 L -55.0995,-13.8534 L -55.1656,-13.7721 L -55.2357,-13.6944 L -55.3097,-13.6205 L -55.3876,-13.5505  L -55.469,-13.4847 L -55.5537,-13.4232 L -55.6416,-13.3663 L -55.7323,-13.3141 L -55.8256,-13.2667 L -55.9212,-13.2242  L -56.0191,-13.1867 L -56.1187,-13.1545 L -56.2197,-13.1275 L -56.3221,-13.1059 L -56.4256,-13.0896 L -56.5297,-13.0787  L -56.6341,-13.0734 z M -98.0248,11.6463 L -98.1294,11.6407 L -98.2336,11.6296 L -98.337,11.6131 L -98.4393,11.5912 L -98.5404,11.564  L -98.6398,11.5316 L -98.7374,11.494 L -98.8331,11.4513 L -98.9263,11.4036 L -99.0168,11.3513 L -99.1046,11.2942  L -99.1892,11.2325 L -99.2705,11.1666 L -99.3513,11.0934 L -99.431,11.0128 L -99.4697,10.9713 L -99.9722,10.4022  L -99.9895,10.382 L -100.024,10.341 L -100.041,10.3202 L -100.919,9.21089 L -100.937,9.18828 L -100.971,9.14264  L -100.987,9.11961 L -101.738,8.05176 L -101.755,8.02682 L -101.789,7.97626 L -101.805,7.95062 L -102.435,6.92891  L -102.451,6.9012 L -102.483,6.84554 L -102.498,6.81758 L -103.015,5.84502 L -103.03,5.81476 L -103.06,5.75391  L -103.074,5.72331 L -103.486,4.80269 L -103.5,4.7701 L -103.526,4.70427 L -103.539,4.67104 L -103.856,3.80023  L -103.868,3.76512 L -103.891,3.6946 L -103.902,3.65918 L -104.135,2.83415 L -104.145,2.79713 L -104.163,2.72264  L -104.171,2.68517 L -104.329,1.89853 L -104.336,1.85985 L -104.349,1.78224 L -104.354,1.74332 L -104.446,0.984009  L -104.45,0.944244 L -104.456,0.864685 L -104.458,0.82489 L -104.488,0.0802307 L -104.489,0.0401154 L -104.489,-0.0401154  L -104.488,-0.0802307 L -104.458,-0.82489 L -104.456,-0.864685 L -104.45,-0.944244 L -104.446,-0.984009 L -104.354,-1.74332  L -104.349,-1.78224 L -104.336,-1.85985 L -104.329,-1.89853 L -104.171,-2.68517 L -104.163,-2.72264 L -104.145,-2.79713  L -104.135,-2.83415 L -103.902,-3.65918 L -103.891,-3.6946 L -103.868,-3.76512 L -103.856,-3.80023 L -103.539,-4.67104  L -103.526,-4.70427 L -103.5,-4.7701 L -103.486,-4.80269 L -103.074,-5.72331 L -103.06,-5.75391 L -103.03,-5.81476  L -103.015,-5.84502 L -102.498,-6.81758 L -102.483,-6.84554 L -102.451,-6.9012 L -102.435,-6.92891 L -101.805,-7.95062  L -101.789,-7.97626 L -101.755,-8.02682 L -101.738,-8.05176 L -100.987,-9.11961 L -100.971,-9.14264 L -100.937,-9.18828  L -100.919,-9.21089 L -100.041,-10.3202 L -100.024,-10.341 L -99.9895,-10.382 L -99.9722,-10.4022 L -98.9623,-11.546  L -98.9455,-11.5646 L -98.9114,-11.6013 L -98.8941,-11.6195 L -97.7496,-12.7918 L -97.733,-12.8084 L -97.6994,-12.8412  L -97.6825,-12.8574 L -96.4021,-14.0512 L -96.3859,-14.066 L -96.353,-14.0953 L -96.3364,-14.1098 L -94.9196,-15.3188  L -94.9038,-15.332 L -94.8719,-15.3582 L -94.8557,-15.3711 L -93.3037,-16.5885 L -93.2883,-16.6003 L -93.2573,-16.6236  L -93.2418,-16.6351 L -91.5547,-17.8559 L -91.5399,-17.8664 L -91.51,-17.8872 L -91.4949,-17.8975 L -89.6758,-19.1154  L -89.6613,-19.1249 L -89.6325,-19.1435 L -89.6181,-19.1526 L -88.9903,-19.5424 L -88.9451,-19.5689 L -88.8534,-19.6194  L -88.7592,-19.665 L -88.6627,-19.7056 L -88.5643,-19.7411 L -88.4642,-19.7714 L -88.3625,-19.7964 L -88.2597,-19.8161  L -88.1559,-19.8304 L -88.0516,-19.8392 L -87.9471,-19.8426 L -87.8425,-19.8405 L -87.7381,-19.8329 L -87.6342,-19.8198  L -87.5311,-19.8013 L -87.4292,-19.7775 L -87.3287,-19.7484 L -87.2298,-19.714 L -87.1328,-19.6745 L -87.0381,-19.63  L -86.9458,-19.5806 L -86.8563,-19.5264 L -86.7697,-19.4677 L -86.6863,-19.4045 L -86.6063,-19.3369 L -86.5299,-19.2653  L -86.4574,-19.1898 L -86.389,-19.1107 L -86.3247,-19.0279 L -86.265,-18.942 L -86.2097,-18.8531 L -86.1593,-18.7614  L -86.1136,-18.6672 L -86.073,-18.5707 L -86.0375,-18.4723 L -86.0072,-18.3722 L -85.9822,-18.2705 L -85.9625,-18.1677  L -85.9482,-18.0639 L -85.9394,-17.9596 L -85.936,-17.8551 L -85.9381,-17.7505 L -85.9457,-17.6461 L -85.9588,-17.5422  L -85.9773,-17.4391 L -86.0011,-17.3372 L -86.0271,-17.2457 L -86.0544,-17.1648 L -86.0689,-17.1247 L -95.5636,7.53531  L -95.6427,7.75787 L -95.6994,7.9317 L -95.8217,8.38661 L -95.8545,8.53999 L -95.9287,9.00511 L -95.9452,9.16104  L -95.9704,9.63182 L -95.9704,9.6498 L -95.9718,9.70212 L -95.9774,9.80664 L -95.9885,9.91087 L -96.005,10.0142  L -96.0268,10.1166 L -96.054,10.2176 L -96.0865,10.317 L -96.1241,10.4147 L -96.1668,10.5104 L -96.2144,10.6036  L -96.2668,10.6941 L -96.3239,10.7818 L -96.3855,10.8665 L -96.4515,10.9478 L -96.5217,11.0255 L -96.5958,11.0994  L -96.6736,11.1693 L -96.755,11.2351 L -96.8397,11.2966 L -96.9276,11.3535 L -97.0183,11.4057 L -97.1116,11.4532  L -97.2074,11.4957 L -97.3051,11.5331 L -97.4045,11.5652 L -97.5057,11.5922 L -97.6083,11.6139 L -97.7117,11.6302  L -97.8156,11.641 L -97.9202,11.6464 z M -22.0729,12.4245 L -22.1116,12.4233 L -23.1469,12.3716 L -23.183,12.3691 L -23.2554,12.3629 L -23.2917,12.3591  L -24.3829,12.2245 L -24.4199,12.2193 L -24.4935,12.2074 L -24.5301,12.2008 L -25.0674,12.0935 L -25.1087,12.0843  L -25.1912,12.0641 L -25.2322,12.0532 L -25.6776,11.9241 L -25.7209,11.9105 L -25.8067,11.8813 L -25.8492,11.8658  L -26.2262,11.7184 L -26.2701,11.7 L -26.357,11.6611 L -26.4,11.6407 L -26.7215,11.4782 L -26.7649,11.4549  L -26.8504,11.4062 L -26.8925,11.3809 L -27.1762,11.2005 L -27.2176,11.1727 L -27.299,11.115 L -27.3391,11.0851  L -27.5997,10.8802 L -27.6378,10.8486 L -27.7126,10.7835 L -27.7493,10.7501 L -28,10.5091 L -28.0341,10.4747  L -28.1006,10.4043 L -28.1329,10.3683 L -28.3578,10.1059 L -28.3911,10.0649 L -28.4554,9.98123 L -28.4865,9.93852  L -28.6486,9.70308 L -28.6806,9.65343 L -28.7418,9.55228 L -28.7709,9.50078 L -28.8867,9.28079 L -28.9124,9.22821  L -28.9608,9.12158 L -28.9834,9.06754 L -29.0822,8.8109 L -29.101,8.75749 L -29.1356,8.64983 L -29.1514,8.59557  L -29.2346,8.27509 L -29.2466,8.2233 L -29.2679,8.11902 L -29.2771,8.06653 L -29.3377,7.65976 L -29.3437,7.61101  L -29.3534,7.51324 L -29.357,7.46423 L -29.3823,6.95502 L -29.3835,6.91032 L -29.3839,6.82097 L -29.3831,6.77631  L -29.3584,6.15739 L -29.356,6.11723 L -29.3496,6.03725 L -29.3456,5.99742 L -29.2486,5.19398 L -29.2455,5.17059  L -29.2387,5.12369 L -29.235,5.10017 L -29.1976,4.87926 L -29.1958,4.86877 L -29.192,4.8476 L -29.19,4.8369  L -29.1352,4.55081 L -29.1331,4.54001 L -29.1287,4.51826 L -29.1264,4.50732 L -29.0671,4.23064 L -29.0646,4.21947  L -29.0595,4.1971 L -29.0569,4.1859 L -28.9937,3.92105 L -28.991,3.90967 L -28.9853,3.88699 L -28.9824,3.8757  L -28.9161,3.62415 L -28.9128,3.61212 L -28.9063,3.58864 L -28.9031,3.57718 L -28.833,3.33517 L -28.8295,3.32347  L -28.8223,3.2997 L -28.8186,3.28763 L -28.7453,3.05634 L -28.7413,3.04408 L -28.7333,3.01979 L -28.7292,3.00775  L -28.6397,2.7485 L -28.6325,2.72818 L -28.0902,1.22702 L -27.5423,-0.262192 L -26.9925,-1.72859 L -26.4485,-3.1526  L -25.8972,-4.56796 L -25.3473,-5.95204 L -24.8018,-7.29762 L -24.7977,-7.30786 L -24.2937,-8.52588 L -24.2856,-8.54478  L -24.2691,-8.58258 L -24.2606,-8.60147 L -23.6944,-9.82431 L -23.6797,-9.85475 L -23.6493,-9.91498 L -23.6337,-9.94476  L -23.0671,-10.9793 L -23.0489,-11.0111 L -23.0113,-11.0742 L -22.9919,-11.1054 L -22.4042,-12.0133 L -22.382,-12.0462  L -22.3364,-12.1109 L -22.3129,-12.1428 L -21.7089,-12.9313 L -21.6824,-12.9643 L -21.6282,-13.0293 L -21.6004,-13.0612  L -20.9825,-13.7401 L -20.9517,-13.7724 L -20.8887,-13.8358 L -20.8565,-13.8667 L -20.2231,-14.4487 L -20.1882,-14.4793  L -20.117,-14.5389 L -20.0807,-14.5678 L -19.4271,-15.0649 L -19.3886,-15.0928 L -19.3103,-15.1466 L -19.2705,-15.1726  L -18.5783,-15.6019 L -18.5387,-15.6253 L -18.4584,-15.6701 L -18.4177,-15.6916 L -17.6803,-16.0599 L -17.6399,-16.0789  L -17.5582,-16.1153 L -17.5168,-16.1326 L -16.7496,-16.4334 L -16.7074,-16.4488 L -16.6226,-16.4778 L -16.58,-16.4912  L -15.781,-16.7245 L -15.7383,-16.7359 L -15.6525,-16.7569 L -15.6094,-16.7664 L -14.7668,-16.9335 L -14.7247,-16.9409  L -14.6399,-16.9539 L -14.5973,-16.9596 L -13.6995,-17.0587 L -13.6586,-17.0623 L -13.5766,-17.068 L -13.5356,-17.0699  L -12.5727,-17.0967 L -12.5338,-17.097 L -12.4561,-17.0961 L -12.4174,-17.0949 L -11.3822,-17.0432 L -11.3459,-17.0407  L -11.2734,-17.0345 L -11.2372,-17.0307 L -10.1461,-16.8961 L -10.1093,-16.8909 L -10.0357,-16.879 L -9.99896,-16.8724  L -9.4617,-16.7651 L -9.42012,-16.7558 L -9.33762,-16.7357 L -9.29669,-16.7247 L -8.85139,-16.5956 L -8.80829,-16.5821  L -8.7225,-16.5529 L -8.67982,-16.5374 L -8.30345,-16.3902 L -8.25943,-16.3717 L -8.17245,-16.3328 L -8.1295,-16.3124  L -7.80789,-16.1498 L -7.76454,-16.1265 L -7.67905,-16.0779 L -7.6369,-16.0525 L -7.35345,-15.8722 L -7.31204,-15.8444  L -7.23055,-15.7867 L -7.19046,-15.7567 L -6.93016,-15.552 L -6.89189,-15.5204 L -6.81702,-15.4552 L -6.78041,-15.4217  L -6.52982,-15.1808 L -6.49571,-15.1464 L -6.42928,-15.076 L -6.39694,-15.0401 L -6.17152,-14.7769 L -6.13838,-14.7361  L -6.0742,-14.6526 L -6.04317,-14.61 L -5.88058,-14.3739 L -5.84853,-14.3242 L -5.7874,-14.2231 L -5.75833,-14.1717  L -5.64247,-13.9517 L -5.61665,-13.899 L -5.56822,-13.7922 L -5.54561,-13.7383 L -5.44695,-13.482 L -5.42812,-13.4286  L -5.39351,-13.3209 L -5.37773,-13.2666 L -5.29437,-12.9459 L -5.28236,-12.8941 L -5.26111,-12.7898 L -5.25186,-12.7374  L -5.19133,-12.3309 L -5.18529,-12.2822 L -5.1756,-12.1844 L -5.17195,-12.1353 L -5.14674,-11.6267 L -5.14554,-11.582  L -5.14511,-11.4926 L -5.14589,-11.448 L -5.17058,-10.829 L -5.17299,-10.7888 L -5.17941,-10.7088 L -5.18343,-10.6689  L -5.2805,-9.86505 L -5.28362,-9.84158 L -5.29041,-9.79471 L -5.29408,-9.7713 L -5.33134,-9.55098 L -5.33316,-9.54054  L -5.33699,-9.51927 L -5.339,-9.50844 L -5.3938,-9.22223 L -5.39597,-9.21123 L -5.40036,-9.18959 L -5.40259,-9.17896  L -5.4619,-8.90236 L -5.46432,-8.89136 L -5.46938,-8.86903 L -5.472,-8.85771 L -5.53491,-8.59393 L -5.53775,-8.58232  L -5.54347,-8.55954 L -5.54636,-8.54837 L -5.61314,-8.29488 L -5.61629,-8.28323 L -5.62276,-8.25983 L -5.62608,-8.24806  L -5.696,-8.00665 L -5.69946,-7.99496 L -5.7067,-7.97108 L -5.71046,-7.95889 L -5.78358,-7.72813 L -5.78766,-7.71558  L -5.7957,-7.69131 L -5.79967,-7.67958 L -5.89861,-7.39307 L -6.43036,-5.87614 L -6.4346,-5.86426 L -6.96339,-4.396  L -6.9682,-4.38281 L -7.50529,-2.93163 L -7.50989,-2.91943 L -8.04514,-1.51254 L -8.05034,-1.49907 L -8.59216,-0.113983  L -8.59766,-0.100143 L -9.13968,1.24706 L -9.14725,1.26555 L -9.69865,2.59746 L -9.70477,2.61201 L -10.2301,3.84494  L -10.2363,3.85909 L -10.2488,3.88724 L -10.2551,3.90125 L -10.8345,5.15251 L -10.8491,5.18283 L -10.8795,5.24307  L -10.8953,5.27299 L -11.4619,6.30751 L -11.4802,6.33948 L -11.5178,6.4025 L -11.5371,6.43355 L -12.1246,7.3412  L -12.1468,7.37401 L -12.1924,7.43872 L -12.2159,7.47063 L -12.82,8.25916 L -12.8463,8.29214 L -12.9006,8.35712  L -12.9285,8.3891 L -13.5467,9.06828 L -13.5775,9.10066 L -13.6405,9.16396 L -13.6727,9.19487 L -14.3061,9.77684  L -14.341,9.80746 L -14.4123,9.86705 L -14.4486,9.89601 L -15.1022,10.3931 L -15.1407,10.4209 L -15.2189,10.4748  L -15.2587,10.5007 L -15.9513,10.9304 L -15.9908,10.9536 L -16.0711,10.9985 L -16.1119,11.02 L -16.8491,11.3882  L -16.8896,11.4073 L -16.9714,11.4437 L -17.0126,11.4609 L -17.78,11.7618 L -17.822,11.7772 L -17.9068,11.8062  L -17.9496,11.8197 L -18.7484,12.0529 L -18.7912,12.0644 L -18.877,12.0854 L -18.92,12.0949 L -19.7626,12.2619  L -19.8047,12.2693 L -19.8895,12.2824 L -19.9321,12.288 L -20.8299,12.3871 L -20.8708,12.3907 L -20.9528,12.3964  L -20.9938,12.3984 L -21.9564,12.4251 L -21.9953,12.4254 z M 34.3315,0.781418 L 34.2992,0.780716 L 34.2347,0.778259 L 34.2025,0.776505 L 33.3447,0.716064 L 33.3152,0.713531  L 33.2563,0.707626 L 33.2271,0.704254 L 32.207,0.571426 L 32.1934,0.56958 L 32.1661,0.565643 L 32.1523,0.563553  L 26.7925,-0.285355 L 26.7411,-0.294891 L 26.6387,-0.31665 L 26.5375,-0.34375 L 26.438,-0.376099 L 26.3403,-0.413589  L 26.2447,-0.456161 L 26.1514,-0.503723 L 26.0607,-0.556061 L 25.973,-0.613022 L 25.8883,-0.674545 L 25.807,-0.740417  L 25.7292,-0.810455 L 25.6551,-0.884506 L 25.5851,-0.962296 L 25.5192,-1.04366 L 25.4577,-1.12834 L 25.4007,-1.21603  L 25.3484,-1.30667 L 25.3008,-1.40002 L 25.2583,-1.49565 L 25.2208,-1.59331 L 25.1884,-1.69286 L 25.1613,-1.79404  L 25.1396,-1.89642 L 25.1232,-1.99977 L 25.1123,-2.10387 L 25.1068,-2.20839 L 25.1068,-2.31306 L 25.1123,-2.41759  L 25.1232,-2.52168 L 25.1396,-2.62503 L 25.1613,-2.72742 L 25.1886,-2.8291 L 25.2213,-2.92969 L 25.239,-2.97954  L 27.4114,-8.62004 L 27.4315,-8.66841 L 27.4742,-8.76398 L 27.5217,-8.8571 L 27.5742,-8.94769 L 27.6314,-9.03557  L 27.693,-9.12018 L 27.7588,-9.20128 L 27.8289,-9.27899 L 27.9031,-9.35297 L 27.9809,-9.42293 L 28.0625,-9.4888  L 28.1472,-9.55022 L 28.2349,-9.60704 L 28.3257,-9.65929 L 28.4191,-9.70676 L 28.5147,-9.74922 L 28.6124,-9.78658  L 28.7119,-9.81882 L 28.8133,-9.84584 L 28.9157,-9.86748 L 29.0189,-9.88371 L 29.123,-9.89455 L 29.2277,-9.89992  L 29.3323,-9.8998 L 29.4362,-9.89426 L 29.5392,-9.88338 L 29.5906,-9.8766 L 38.214,-8.51079 L 38.225,-8.50899  L 38.2468,-8.50529 L 38.2575,-8.5034 L 39.0808,-8.35432 L 39.1048,-8.3497 L 39.1524,-8.33987 L 39.1761,-8.33467  L 39.8287,-8.1834 L 39.8557,-8.17676 L 39.9094,-8.16272 L 39.9362,-8.15532 L 40.4747,-7.99855 L 40.5051,-7.98917  L 40.5656,-7.96944 L 40.5957,-7.95909 L 41.0168,-7.80682 L 41.0509,-7.79381 L 41.1186,-7.76649 L 41.1522,-7.7522  L 41.2999,-7.68625 L 41.3471,-7.66368 L 41.4403,-7.61606 L 41.5309,-7.56357 L 41.6187,-7.50645 L 41.7032,-7.44485  L 41.7845,-7.37889 L 41.8622,-7.30876 L 41.9361,-7.23466 L 42.0061,-7.1568 L 42.0719,-7.07538 L 42.1333,-6.99069  L 42.1902,-6.90285 L 42.2425,-6.81201 L 42.2899,-6.71869 L 42.3323,-6.62308 L 42.3697,-6.52531 L 42.402,-6.42575  L 42.4289,-6.32462 L 42.4506,-6.22229 L 42.4668,-6.1189 L 42.4777,-6.01465 L 42.483,-5.91011 L 42.4829,-5.80545  L 42.4773,-5.70093 L 42.4673,-5.60381 L 42.4537,-5.51427 L 42.4459,-5.4697 L 42.4118,-5.29842 L 42.4091,-5.28566  L 42.4037,-5.25996 L 42.4008,-5.24702 L 42.3595,-5.06438 L 42.3566,-5.05209 L 42.3505,-5.0267 L 42.3473,-5.0136  L 42.3012,-4.83218 L 42.2978,-4.81902 L 42.291,-4.79385 L 42.2877,-4.78186 L 42.2358,-4.59775 L 42.2323,-4.5858  L 42.225,-4.56107 L 42.2211,-4.54828 L 42.1646,-4.36606 L 42.1608,-4.35388 L 42.1529,-4.32954 L 42.1489,-4.31738  L 42.0861,-4.13194 L 42.082,-4.11992 L 42.0735,-4.0959 L 42.0692,-4.08391 L 42.0241,-3.96109 L 42.0157,-3.9389  L 41.9983,-3.89485 L 41.9894,-3.87299 L 41.6995,-3.1857 L 41.6827,-3.14804 L 41.6477,-3.07365 L 41.6294,-3.03693  L 41.3638,-2.52838 L 41.3424,-2.48949 L 41.2977,-2.41246 L 41.2744,-2.37433 L 41.0075,-1.95833 L 40.9808,-1.91882  L 40.9257,-1.84125 L 40.8972,-1.80318 L 40.6311,-1.46426 L 40.5992,-1.42566 L 40.5335,-1.3501 L 40.4997,-1.31314  L 40.2326,-1.03542 L 40.1959,-0.99913 L 40.1205,-0.928452 L 40.0819,-0.894058 L 39.8053,-0.660309 L 39.7645,-0.627609  L 39.6813,-0.564484 L 39.639,-0.534058 L 39.339,-0.330078 L 39.2956,-0.302185 L 39.2074,-0.248627 L 39.1625,-0.222961  L 38.8125,-0.0344849 L 38.7695,-0.0126648 L 38.6824,0.0289154 L 38.6384,0.0486755 L 38.2206,0.224045 L 38.1788,0.240494  L 38.0945,0.2715 L 38.052,0.286057 L 37.572,0.438538 L 37.5307,0.450668 L 37.4477,0.47316 L 37.4059,0.483521  L 36.8637,0.605637 L 36.8239,0.613754 L 36.744,0.628357 L 36.704,0.634842 L 36.0899,0.721573 L 36.0523,0.726166  L 35.9768,0.733917 L 35.939,0.737076 L 35.2462,0.781784 L 35.2112,0.783432 L 35.141,0.785492 L 35.1058,0.785904  z M 0.00759888,39.4996 L -0.0151978,39.4996 L -3.84753,39.4704 L -3.86272,39.4702 L -3.87042,39.4701 L -7.68686,39.3831  L -7.71732,39.3822 L -11.5276,39.2372 L -11.5507,39.2362 L -11.5582,39.2358 L -15.3496,39.0334 L -15.3731,39.032  L -15.3804,39.0315 L -19.1512,38.7719 L -19.1745,38.7701 L -19.1822,38.7695 L -22.9277,38.453 L -22.9512,38.4508  L -22.959,38.4501 L -26.68,38.0765 L -26.6959,38.0748 L -26.7043,38.0739 L -30.3835,37.6452 L -30.4074,37.6423  L -30.4156,37.6413 L -34.0522,37.1578 L -34.0848,37.1532 L -37.6747,36.6158 L -37.6997,36.6118 L -37.7079,36.6105  L -41.2453,36.0201 L -41.2536,36.0187 L -41.2705,36.0157 L -41.2791,36.0142 L -44.7608,35.3716 L -44.7699,35.3699  L -44.7871,35.3666 L -44.7952,35.3649 L -48.2169,34.6712 L -48.2253,34.6695 L -48.2429,34.6658 L -48.2521,34.6638  L -51.605,33.921 L -51.6143,33.9189 L -51.6323,33.9147 L -51.641,33.9126 L -54.9239,33.1215 L -54.9331,33.1192  L -54.9516,33.1146 L -54.9609,33.1122 L -58.168,32.2744 L -58.1776,32.2718 L -58.1965,32.2667 L -58.2059,32.2641  L -61.3318,31.3815 L -61.3414,31.3787 L -61.3609,31.373 L -61.3708,31.37 L -64.4116,30.4442 L -64.4216,30.4412  L -64.4417,30.4348 L -64.4518,30.4315 L -67.4009,29.4653 L -67.4117,29.4618 L -67.4324,29.4547 L -67.4425,29.4512  L -70.2988,28.4455 L -70.3091,28.4419 L -70.3306,28.4341 L -70.3417,28.4299 L -73.0983,27.3881 L -73.1097,27.3837  L -73.1319,27.375 L -73.1427,27.3707 L -75.7959,26.2949 L -75.8075,26.2902 L -75.8305,26.2805 L -75.8419,26.2756  L -78.3873,25.1689 L -78.3993,25.1637 L -78.4231,25.1529 L -78.435,25.1475 L -80.8692,24.0125 L -80.8819,24.0065  L -80.9066,23.9946 L -80.9187,23.9886 L -83.2363,22.8294 L -83.2488,22.8231 L -83.2745,22.8098 L -83.2878,22.8028  L -85.486,21.6225 L -85.4996,21.6151 L -85.5263,21.6002 L -85.5394,21.5928 L -87.6144,20.3955 L -87.6283,20.3873  L -87.6561,20.3707 L -87.67,20.3623 L -88.571,19.8028 L -88.6147,19.774 L -88.7007,19.7142 L -88.7833,19.65  L -88.8625,19.5816 L -88.9379,19.5092 L -89.0095,19.4328 L -89.0771,19.3528 L -89.1403,19.2693 L -89.1991,19.1826  L -89.2533,19.0931 L -89.3026,19.0009 L -89.3471,18.9062 L -89.3866,18.8093 L -89.421,18.7104 L -89.4501,18.6098  L -89.474,18.5078 L -89.4924,18.4048 L -89.5055,18.3009 L -89.5131,18.1966 L -89.5152,18.0919 L -89.5119,17.9874  L -89.503,17.8831 L -89.4888,17.7793 L -89.4691,17.6765 L -89.444,17.5749 L -89.4137,17.4747 L -89.3782,17.3763  L -89.3376,17.2798 L -89.2919,17.1855 L -89.2414,17.0938 L -89.1862,17.0049 L -89.1264,16.919 L -89.0622,16.8364  L -88.9938,16.7572 L -88.9214,16.6818 L -88.845,16.6102 L -88.765,16.5426 L -88.6815,16.4793 L -88.5948,16.4205  L -88.5053,16.3663 L -88.4131,16.317 L -88.3184,16.2725 L -88.2215,16.233 L -88.1226,16.1987 L -88.022,16.1695  L -87.9201,16.1457 L -87.817,16.1272 L -87.7132,16.1142 L -87.6279,16.1071 L -87.5614,16.1045 L -87.528,16.1037  L -87.4097,16.103 L -87.2197,16.0975 L -87.0262,16.0872 L -86.8399,16.0686 L -86.6579,16.0462 L -86.473,16.0192  L -86.2829,15.9824 L -86.1039,15.9435 L -85.9115,15.8969 L -85.7368,15.8463 L -85.5714,15.7944 L -85.3886,15.7328  L -85.2191,15.6675 L -85.0656,15.6047 L -84.8965,15.5314 L -84.8853,15.5262 L -84.729,15.451 L -84.5907,15.3811  L -84.4381,15.3002 L -84.4089,15.284 L -84.2681,15.2025 L -84.1433,15.1272 L -84.0052,15.0404 L -83.9782,15.0228  L -83.8337,14.9242 L -83.7074,14.8344 L -83.567,14.7304 L -83.5567,14.7225 L -83.4134,14.6072 L -83.288,14.5022  L -83.1521,14.3834 L -83.0116,14.2499 L -82.8895,14.1286 L -82.7591,13.9935 L -82.633,13.8506 L -82.5168,13.7129  L -82.3966,13.5638 L -82.2836,13.4095 L -82.1781,13.2586 L -82.0736,13.1016 L -81.9749,12.9375 L -81.8855,12.7806  L -81.7963,12.6159 L -81.7123,12.4421 L -81.6366,12.2759 L -81.5559,12.0873 L -81.5305,12.0241 L -81.5191,11.9955  L -81.5055,11.9607 L -81.4938,11.9307 L -74.8163,-5.45668 L -74.7962,-5.50504 L -74.7536,-5.60065 L -74.7061,-5.69394  L -74.6537,-5.78458 L -74.5967,-5.87233 L -74.5352,-5.957 L -74.4694,-6.03827 L -74.3993,-6.11604 L -74.3253,-6.19008  L -74.2475,-6.26012 L -74.1661,-6.326 L -74.0814,-6.38751 L -73.9935,-6.44453 L -73.9029,-6.49686 L -73.8096,-6.54434  L -73.714,-6.5869 L -73.6163,-6.62437 L -73.5168,-6.65671 L -73.4156,-6.68379 L -73.3132,-6.70554 L -73.2099,-6.72189  L -73.1058,-6.73282 L -73.0012,-6.73828 L -72.8966,-6.73827 L -72.7921,-6.73277 L -72.688,-6.72182 L -72.5845,-6.7054  L -72.4821,-6.68361 L -72.3811,-6.65652 L -72.2815,-6.62416 L -72.1838,-6.58664 L -72.0882,-6.54405 L -71.9949,-6.49649  L -71.9043,-6.44414 L -71.8165,-6.38713 L -71.7319,-6.32559 L -71.6506,-6.25978 L -71.5728,-6.18974 L -71.4988,-6.11568  L -71.4287,-6.03787 L -71.3629,-5.9565 L -71.3013,-5.87181 L -71.2443,-5.78397 L -71.192,-5.6933 L -71.1445,-5.60007  L -71.102,-5.50444 L -71.0643,-5.40631 L -71.0318,-5.30594 L -71.0168,-5.25533 L -65.6078,15.0136 L -65.5892,15.0816  L -65.5737,15.1363 L -65.5548,15.2012 L -65.4363,15.5981 L -65.3746,15.7889 L -65.3158,15.9578 L -65.2463,16.144  L -65.1474,16.392 L -65.0517,16.6144 L -64.9612,16.81 L -64.8535,17.0273 L -64.7746,17.1762 L -64.6296,17.4296  L -64.4933,17.6508 L -64.3324,17.8939 L -64.2906,17.9529 L -64.0809,18.2258 L -63.8855,18.4607 L -63.6546,18.7177  L -63.6531,18.7192 L -63.4857,18.8831 L -63.3451,19.0136 L -63.0442,19.2693 L -62.9527,19.3405 L -62.8532,19.4152  L -62.6635,19.545 L -62.5104,19.6438 L -62.1018,19.8781 L -61.9618,19.9489 L -61.5306,20.1394 L -61.3744,20.1988  L -61.0171,20.3179 L -60.9217,20.3453 L -60.7853,20.3822 L -60.7397,20.3938 L -60.541,20.4393 L -60.3626,20.476  L -60.159,20.513 L -58.0471,20.8475 L -57.9442,20.8626 L -57.8538,20.8748 L -57.7518,20.8874 L -57.7274,20.8901  L -57.5212,20.9083 L -57.3365,20.9204 L -57.1403,20.9284 L -56.9542,20.9273 L -56.7651,20.9219 L -56.5724,20.9118  L -56.3806,20.8927 L -56.1948,20.8698 L -55.9998,20.841 L -55.8198,20.8059 L -55.6444,20.7676 L -55.4595,20.7229  L -55.2799,20.671 L -55.1117,20.6184 L -54.928,20.5564 L -54.7594,20.4914 L -54.6078,20.4293 L -54.4368,20.3552  L -54.425,20.3498 L -54.2702,20.2753 L -54.1318,20.2053 L -53.9802,20.125 L -53.9499,20.1082 L -53.8094,20.0269  L -53.6846,19.9516 L -53.5472,19.8652 L -53.5195,19.8471 L -53.3755,19.749 L -53.2494,19.6594 L -53.1096,19.5559  L -53.0989,19.5477 L -52.9553,19.4323 L -52.8297,19.327 L -52.6935,19.2082 L -52.5529,19.0746 L -52.4303,18.953  L -52.2997,18.8176 L -52.1743,18.6756 L -52.0597,18.5399 L -51.9434,18.396 L -51.8277,18.2385 L -51.7214,18.0867  L -51.6141,17.9256 L -51.5166,17.7635 L -51.4257,17.6042 L -51.3356,17.4376 L -51.2523,17.2652 L -51.1769,17.0996  L -51.0962,16.911 L -51.0723,16.8515 L -51.0577,16.8147 L -51.05,16.7953 L -51.0362,16.7598 L -48.064,9.04045  L -48.0439,8.99213 L -48.0012,8.89656 L -47.9536,8.80338 L -47.9012,8.71277 L -47.844,8.62494 L -47.7824,8.54033  L -47.7165,8.45905 L -47.6463,8.38133 L -47.5723,8.3075 L -47.4945,8.23753 L -47.4131,8.17174 L -47.3283,8.11029  L -47.2404,8.0533 L -47.1497,8.00107 L -47.0564,7.95369 L -46.9608,7.91121 L -46.863,7.87379 L -46.7634,7.84155  L -46.6624,7.81459 L -46.56,7.79292 L -46.4565,7.77663 L -46.3524,7.76579 L -46.2478,7.76042 L -46.1432,7.76053  L -46.0387,7.76611 L -45.9346,7.77716 L -45.8312,7.79364 L -45.7289,7.81551 L -45.6277,7.84273 L -45.5282,7.87518  L -45.4306,7.91277 L -45.335,7.95543 L -45.2418,8.00302 L -45.1512,8.05545 L -45.0634,8.11263 L -44.9788,8.17424  L -44.8975,8.2402 L -44.8198,8.31033 L -44.7459,8.38432 L -44.676,8.46217 L -44.6102,8.54358 L -44.5487,8.62833  L -44.4917,8.71629 L -44.4395,8.80699 L -44.3921,8.90022 L -44.3497,8.9959 L -44.3122,9.09366 L -44.28,9.19324  L -44.2501,9.30879 L -44.2242,9.44049 L -44.2135,9.50685 L -44.1573,9.9491 L -44.1358,10.0978 L -44.1141,10.2322  L -44.0871,10.3827 L -43.9183,11.2413 L -43.8859,11.3926 L -43.8552,11.5249 L -43.8181,11.6729 L -43.5913,12.5181  L -43.5492,12.6645 L -43.5095,12.7948 L -43.462,12.9412 L -43.1775,13.7711 L -43.1255,13.9147 L -43.077,14.0418  L -43.02,14.1841 L -42.6814,14.9886 L -42.6184,15.1313 L -42.5607,15.2563 L -42.4921,15.398 L -42.1053,16.1641  L -42.0314,16.3043 L -41.963,16.4286 L -41.885,16.5647 L -41.4483,17.2968 L -41.3642,17.4323 L -41.2873,17.5513  L -41.1991,17.6829 L -40.7113,18.3829 L -40.6185,18.5112 L -40.5338,18.6241 L -40.4375,18.7478 L -39.8975,19.4171  L -39.797,19.5373 L -39.7068,19.6416 L -39.6021,19.7584 L -39.0084,20.398 L -38.9032,20.5074 L -38.8078,20.6035  L -38.6991,20.7094 L -38.0483,21.3217 L -37.9392,21.4211 L -37.841,21.5076 L -37.7285,21.6034 L -37.0232,22.185  L -36.9079,22.2769 L -36.8044,22.3568 L -36.6861,22.4449 L -35.9348,22.9858 L -35.811,23.0718 L -35.6988,23.147  L -35.5708,23.2297 L -34.7853,23.7184 L -34.6558,23.796 L -34.5409,23.8622 L -34.4094,23.9352 L -33.5824,24.3762  L -33.4522,24.4429 L -33.3343,24.5009 L -33.2012,24.5637 L -32.3319,24.9564 L -32.201,25.0131 L -32.0831,25.062  L -31.9494,25.1148 L -31.0366,25.4591 L -30.9067,25.5059 L -30.7906,25.5457 L -30.6578,25.5889 L -29.6997,25.8845  L -29.571,25.9221 L -29.4584,25.9532 L -29.3289,25.987 L -28.3216,26.2338 L -28.1995,26.2619 L -28.0892,26.2857  L -27.9644,26.3108 L -26.9189,26.5054 L -26.7827,26.5287 L -26.6617,26.5474 L -26.5259,26.5663 L -24.2861,26.8429  L -24.1224,26.86 L -23.9736,26.8728 L -23.8056,26.8841 L -21.7045,26.9866 L -21.5192,26.9918 L -21.3559,26.993  L -21.1692,26.9906 L -19.1974,26.9247 L -18.995,26.9133 L -18.8146,26.8991 L -18.6136,26.8787 L -16.7663,26.6492  L -16.5491,26.6168 L -16.3561,26.5831 L -16.1407,26.5402 L -14.4165,26.1521 L -14.189,26.0946 L -13.9886,26.0384  L -13.7643,25.9691 L -12.1546,25.4255 L -11.925,25.3408 L -11.7223,25.2598 L -11.4977,25.1629 L -9.9944,24.4648  L -9.7708,24.3533 L -9.57359,24.248 L -9.3569,24.1245 L -7.93288,23.259 L -7.75217,23.1431 L -7.59326,23.0358  L -7.41699,22.9105 L -6.04648,21.8858 L -5.90561,21.7761 L -5.78188,21.6757 L -5.645,21.56 L -4.3318,20.4046  L -4.20273,20.2865 L -4.09026,20.1795 L -3.96494,20.0555 L -3.13594,19.2029 L -3.09843,19.1663 L -3.02164,19.0952  L -2.94133,19.0282 L -2.85753,18.9655 L -2.77048,18.9072 L -2.68057,18.8536 L -2.588,18.8048 L -2.49298,18.7609  L -2.39574,18.722 L -2.29665,18.6883 L -2.19608,18.6598 L -2.09401,18.6366 L -1.99081,18.6187 L -1.88689,18.6063  L -1.78235,18.5994 L -1.67767,18.5979 L -1.57315,18.6019 L -1.46892,18.6114 L -1.36526,18.6263 L -1.26259,18.6467  L -1.16116,18.6723 L -1.06116,18.7033 L -0.96286,18.7394 L -0.866653,18.7806 L -0.772766,18.8268 L -0.681396,18.8779  L -0.592911,18.9336 L -0.50737,18.9939 L -0.425034,19.0587 L -0.346268,19.1276 L -0.271179,19.2006 L -0.200058,19.2774  L -0.133133,19.3577 L -0.0704193,19.4415 L -0.0121307,19.5286 L 0.0414734,19.6185 L 0.0902863,19.7111 L 0.134201,19.8061  L 0.173111,19.9033 L 0.206848,20.0024 L 0.235321,20.103 L 0.25853,20.2051 L 0.276367,20.3083 L 0.288773,20.4122  L 0.295731,20.5167 L 0.297195,20.6214 L 0.293182,20.7259 L 0.283707,20.8302 L 0.268784,20.9338 L 0.248459,21.0365  L 0.220535,21.1451 L 0.18428,21.2592 L 0.164444,21.3157 L -0.336884,22.6178 L -0.415924,22.8402 L -0.472641,23.0143  L -0.59494,23.4687 L -0.627838,23.6228 L -0.70192,24.0874 L -0.718475,24.2434 L -0.743637,24.7142 L -0.743774,24.8707  L -0.719604,25.3412 L -0.703369,25.4971 L -0.630188,25.9624 L -0.597672,26.1161 L -0.476242,26.5712 L -0.427795,26.7208  L -0.259689,27.1599 L -0.195908,27.3036 L 0.0173492,27.7233 L 0.0957642,27.8594 L 0.351959,28.2548 L 0.443954,28.3817  L 0.740036,28.7481 L 0.844879,28.8648 L 1.17758,29.1981 L 1.29422,29.3034 L 1.65985,29.6001 L 1.78679,29.6925  L 2.18124,29.9492 L 2.31715,30.0279 L 2.73705,30.2423 L 2.87984,30.3061 L 3.3194,30.4753 L 3.46843,30.5239  L 3.92572,30.6468 L 4.10623,30.6853 L 4.34041,30.7287 L 6.72076,31.1058 L 6.82359,31.1208 L 6.91397,31.133  L 7.01691,31.1457 L 7.03983,31.1483 L 7.24821,31.1666 L 7.4343,31.1787 L 7.62004,31.1865 L 7.81757,31.1855  L 8.00685,31.1799 L 8.20053,31.1697 L 8.38744,31.151 L 8.57245,31.1281 L 8.76067,31.1005 L 8.94501,31.0647  L 9.12112,31.0264 L 9.30859,30.9811 L 9.48772,30.9293 L 9.65462,30.8771 L 9.83879,30.815 L 10.0089,30.7494  L 10.1609,30.6872 L 10.33,30.6139 L 10.3429,30.608 L 10.4983,30.5332 L 10.6353,30.4639 L 10.7886,30.3827  L 10.8156,30.3677 L 10.9592,30.2846 L 11.0833,30.2097 L 11.2223,30.1223 L 11.2505,30.1039 L 11.3939,30.006  L 11.5189,29.9171 L 11.6593,29.8132 L 11.669,29.8057 L 11.8125,29.6904 L 11.9383,29.5849 L 12.0757,29.4649  L 12.215,29.3324 L 12.3374,29.2109 L 12.4664,29.0773 L 12.5938,28.933 L 12.7107,28.7945 L 12.8283,28.6486  L 12.9431,28.4921 L 13.0488,28.3408 L 13.1545,28.1818 L 13.2513,28.0208 L 13.3411,27.8634 L 13.4314,27.6965  L 13.5142,27.5251 L 13.5898,27.3591 L 13.6707,27.1702 L 13.6955,27.1085 L 13.7108,27.0699 L 13.7205,27.0451  L 13.7328,27.0134 L 18.4626,14.6806 L 18.4826,14.6322 L 18.5251,14.5366 L 18.5726,14.4433 L 18.625,14.3526  L 18.6819,14.2648 L 18.7434,14.1801 L 18.8093,14.0987 L 18.8794,14.0209 L 18.9533,13.9469 L 19.0311,13.8768  L 19.1124,13.8109 L 19.1971,13.7494 L 19.2848,13.6924 L 19.3754,13.64 L 19.4687,13.5924 L 19.5643,13.5498  L 19.662,13.5123 L 19.7616,13.4799 L 19.8627,13.4528 L 19.9651,13.431 L 20.0684,13.4146 L 20.1725,13.4036  L 20.2771,13.3981 L 20.3817,13.3981 L 20.4864,13.4035 L 20.5908,13.4145 L 20.6429,13.4214 L 29.925,14.8915  L 29.9992,14.9026 L 30.0619,14.9116 L 30.1325,14.921 L 31.9045,15.1434 L 32.0561,15.1598 L 32.1933,15.1723  L 32.3475,15.1836 L 34.0004,15.2768 L 34.1659,15.2831 L 34.3151,15.2859 L 34.4808,15.2861 L 36.0577,15.2582  L 36.2365,15.2515 L 36.3935,15.2424 L 36.5724,15.2286 L 38.0729,15.0826 L 38.2616,15.0603 L 38.4273,15.0371  L 38.6142,15.0069 L 40.043,14.7454 L 40.2383,14.7052 L 40.4091,14.6662 L 40.6004,14.6179 L 41.9639,14.2421  L 42.1587,14.1837 L 42.3312,14.1276 L 42.5241,14.0601 L 43.8251,13.571 L 44.0166,13.4939 L 44.1862,13.4211  L 44.3744,13.3351 L 45.6149,12.7335 L 45.8058,12.6353 L 45.9737,12.5436 L 46.1608,12.4357 L 47.3148,11.7324  L 47.3602,11.7064 L 47.4523,11.6567 L 47.547,11.6118 L 47.6438,11.572 L 47.7424,11.5373 L 47.8429,11.5078  L 47.9448,11.4836 L 48.0477,11.4648 L 48.1514,11.4514 L 48.2558,11.4435 L 48.3606,11.441 L 48.4652,11.444  L 48.5694,11.4525 L 48.6732,11.4664 L 48.7761,11.4857 L 48.8778,11.5104 L 48.9781,11.5404 L 49.0767,11.5756  L 49.1734,11.6159 L 49.2677,11.6612 L 49.3594,11.7113 L 49.4485,11.7662 L 49.5348,11.8258 L 49.6177,11.8897  L 49.697,11.9578 L 49.7728,12.0301 L 49.8447,12.1063 L 49.9125,12.186 L 49.9759,12.2691 L 50.035,12.3555  L 50.0895,12.4449 L 50.1392,12.537 L 50.1841,12.6317 L 50.2239,12.7285 L 50.2585,12.8272 L 50.288,12.9276  L 50.3122,13.0295 L 50.331,13.1325 L 50.3444,13.2361 L 50.3524,13.3405 L 50.3549,13.4453 L 50.3519,13.55  L 50.3434,13.6542 L 50.3295,13.7579 L 50.3102,13.8609 L 50.2855,13.9626 L 50.26,14.0499 L 50.2351,14.1228  L 50.222,14.1589 L 44.2463,29.679 L 44.1673,29.9015 L 44.1106,30.0755 L 43.9883,30.53 L 43.9554,30.6841  L 43.8813,31.1487 L 43.8647,31.3047 L 43.8396,31.7755 L 43.8394,31.9319 L 43.8636,32.4026 L 43.8799,32.5591  L 43.953,33.0234 L 43.9856,33.1776 L 44.0223,33.3152 L 44.0345,33.3661 L 44.0561,33.4685 L 44.0724,33.5719  L 44.0832,33.676 L 44.0886,33.7807 L 44.0885,33.8853 L 44.0829,33.9897 L 44.0718,34.0938 L 44.0554,34.1971  L 44.0335,34.2995 L 44.0063,34.4007 L 43.9738,34.5002 L 43.9362,34.5979 L 43.8935,34.6935 L 43.8459,34.7866  L 43.7935,34.8772 L 43.7364,34.9649 L 43.6748,35.0495 L 43.6088,35.1309 L 43.5387,35.2086 L 43.4646,35.2825  L 43.3867,35.3524 L 43.3053,35.4182 L 43.2206,35.4797 L 43.1327,35.5366 L 43.042,35.5888 L 42.9486,35.6363  L 42.853,35.6787 L 42.7553,35.7161 L 42.6557,35.7483 L 42.5676,35.7725 L 42.4913,35.7897 L 42.4529,35.7976  L 41.2791,36.0142 L 41.2535,36.0187 L 41.2453,36.0201 L 37.7079,36.6105 L 37.6831,36.6145 L 37.6747,36.6158  L 34.0848,37.1532 L 34.0522,37.1578 L 30.4156,37.6413 L 30.3913,37.6443 L 30.3835,37.6452 L 26.7043,38.0739  L 26.6959,38.0748 L 26.68,38.0765 L 22.959,38.4501 L 22.9355,38.4523 L 22.9277,38.453 L 19.1822,38.7695  L 19.159,38.7713 L 19.1512,38.7719 L 15.3804,39.0315 L 15.3577,39.033 L 15.3496,39.0334 L 11.5582,39.2358  L 11.5354,39.2369 L 11.5276,39.2372 L 7.71732,39.3822 L 7.68686,39.3831 L 3.87042,39.4701 L 3.86272,39.4702  L 3.84753,39.4704 L 0.0151978,39.4996 z M 93.1949,16.064 L 93.0906,16.0569 L 92.9866,16.0444 L 92.8834,16.0264 L 92.7814,16.003 L 92.6808,15.9744  L 92.5818,15.9405 L 92.4846,15.9014 L 92.3897,15.8574 L 92.2972,15.8084 L 92.2074,15.7547 L 92.1204,15.6963  L 92.0367,15.6335 L 91.9565,15.5664 L 91.8798,15.4952 L 91.8069,15.4199 L 91.738,15.341 L 91.6735,15.2588  L 91.6133,15.1732 L 91.5576,15.0845 L 91.5067,14.993 L 91.4606,14.899 L 91.4196,14.8027 L 91.3836,14.7044  L 91.3528,14.6044 L 91.3273,14.5029 L 91.3071,14.4002 L 91.2924,14.2966 L 91.283,14.1923 L 91.2792,14.0877  L 91.2808,13.983 L 91.2909,13.8558 L 91.3125,13.7067 L 91.326,13.6324 L 91.3332,13.6004 L 91.4111,13.136  L 91.4289,12.9803 L 91.458,12.5096 L 91.4594,12.3531 L 91.4391,11.8823 L 91.4242,11.7267 L 91.3547,11.2605  L 91.3235,11.1066 L 91.2057,10.6502 L 91.1587,10.5009 L 90.994,10.0599 L 90.9315,9.91577 L 90.7214,9.49402  L 90.6443,9.35748 L 90.3915,8.96034 L 90.3005,8.83261 L 90.0074,8.4637 L 89.9034,8.3461 L 89.5733,8.00983  L 89.4578,7.90392 L 89.0948,7.60437 L 88.9684,7.5108 L 88.5762,7.2509 L 88.4407,7.17101 L 88.023,6.95331  L 87.8803,6.88817 L 87.4424,6.71547 L 87.2955,6.66623 L 86.8216,6.53572 L 86.6248,6.49294 L 86.3727,6.44562  L 72.3613,4.22643 L 72.3099,4.21689 L 72.2075,4.19513 L 72.1063,4.16803 L 72.0067,4.13568 L 71.9091,4.09819  L 71.8135,4.05562 L 71.7201,4.00806 L 71.6295,3.95572 L 71.5418,3.89876 L 71.4571,3.83723 L 71.3757,3.77136  L 71.2979,3.70132 L 71.2239,3.62727 L 71.1539,3.54948 L 71.088,3.46812 L 71.0265,3.38344 L 70.9695,3.29575  L 70.9172,3.20511 L 70.8696,3.11176 L 70.827,3.01613 L 70.7895,2.91847 L 70.7572,2.81892 L 70.7301,2.71774  L 70.7083,2.61536 L 70.692,2.51201 L 70.681,2.40791 L 70.6755,2.30339 L 70.6755,2.19872 L 70.681,2.09419  L 70.692,1.9901 L 70.7083,1.88675 L 70.7301,1.78436 L 70.7573,1.68288 L 70.7899,1.58269 L 70.8075,1.53304  L 71.9963,-1.55763 L 72.0164,-1.60593 L 72.059,-1.70152 L 72.1066,-1.79485 L 72.159,-1.88545 L 72.2161,-1.97318  L 72.2777,-2.05782 L 72.3436,-2.13911 L 72.4137,-2.21686 L 72.4878,-2.29086 L 72.5656,-2.36084 L 72.6469,-2.42653  L 72.7316,-2.48801 L 72.8196,-2.54507 L 72.9103,-2.59734 L 73.0035,-2.64474 L 73.0992,-2.68726 L 73.1968,-2.72467  L 73.2964,-2.75696 L 73.3977,-2.78403 L 73.5001,-2.80571 L 73.6033,-2.82199 L 73.7074,-2.83287 L 73.8121,-2.83829  L 73.9167,-2.83821 L 74.0209,-2.83269 L 74.1243,-2.82178 L 74.1759,-2.81499 L 92.7214,0.122345 L 92.8226,0.137192  L 92.9126,0.149353 L 93.0142,0.161911 L 93.0399,0.16478 L 93.248,0.183228 L 93.433,0.195282 L 93.6244,0.203354  L 93.8139,0.202591 L 93.9966,0.197647 L 94.1864,0.188202 L 94.3751,0.170197 L 94.5551,0.14888 L 94.7465,0.121826  L 94.9263,0.0881958 L 95.098,0.0522461 L 95.2831,0.00930786 L 95.4605,-0.0399017 L 95.6176,-0.0869904 L 95.7973,-0.144974  L 95.8061,-0.148026 L 95.969,-0.207916 L 96.1151,-0.264832 L 96.2791,-0.33252 L 96.3062,-0.344315 L 96.4539,-0.41185  L 96.5851,-0.474777 L 96.7315,-0.548279 L 96.7729,-0.570007 L 96.913,-0.646774 L 97.0357,-0.716812 L 97.1738,-0.799011  L 97.2086,-0.820557 L 97.354,-0.914581 L 97.4841,-1.00229 L 97.6254,-1.10164 L 97.6393,-1.11176 L 97.7897,-1.2269  L 97.9202,-1.33109 L 98.0636,-1.45068 L 98.2094,-1.58333 L 98.3377,-1.70538 L 98.4718,-1.83879 L 98.6028,-1.98135  L 98.7233,-2.11859 L 98.8459,-2.26498 L 98.9685,-2.42639 L 99.0845,-2.58728 L 99.2032,-2.76086 L 99.2978,-2.91481  L 99.3929,-3.07764 L 99.4856,-3.24538 L 99.5722,-3.4216 L 99.6544,-3.59947 L 99.7416,-3.80115 L 99.7729,-3.87848  L 99.7869,-3.91367 L 99.9464,-4.31783 L 99.9669,-4.36603 L 100.01,-4.46124 L 100.059,-4.55392 L 100.112,-4.64409  L 100.17,-4.73148 L 100.232,-4.81557 L 100.299,-4.89622 L 100.369,-4.97336 L 100.444,-5.04672 L 100.523,-5.11603  L 100.605,-5.18108 L 100.69,-5.24181 L 100.778,-5.29803 L 100.869,-5.34952 L 100.963,-5.39613 L 101.059,-5.43781  L 101.157,-5.47443 L 101.257,-5.50583 L 101.358,-5.53192 L 101.461,-5.55273 L 101.565,-5.56818 L 101.669,-5.57812  L 101.773,-5.58261 L 101.878,-5.58163 L 101.982,-5.57518 L 102.086,-5.56326 L 102.189,-5.54591 L 102.292,-5.52319  L 102.393,-5.49516 L 102.492,-5.46188 L 102.589,-5.42343 L 102.684,-5.37996 L 102.777,-5.33165 L 102.867,-5.27847  L 102.955,-5.22055 L 103.039,-5.15823 L 103.119,-5.09164 L 103.197,-5.02087 L 103.27,-4.94612 L 103.339,-4.86768  L 103.404,-4.78578 L 103.465,-4.70053 L 103.521,-4.61217 L 103.573,-4.52103 L 103.621,-4.4238 L 103.665,-4.32051  L 103.686,-4.26822 L 103.856,-3.80026 L 103.868,-3.76508 L 103.891,-3.69453 L 103.902,-3.65918 L 104.135,-2.83415  L 104.145,-2.79713 L 104.163,-2.72264 L 104.171,-2.68517 L 104.329,-1.89853 L 104.336,-1.85985 L 104.349,-1.78224  L 104.354,-1.74332 L 104.446,-0.984009 L 104.45,-0.944244 L 104.456,-0.864685 L 104.458,-0.82489 L 104.488,-0.0802307  L 104.489,-0.0401154 L 104.489,0.0401154 L 104.488,0.0802307 L 104.458,0.82489 L 104.456,0.864685 L 104.45,0.944244  L 104.446,0.984009 L 104.354,1.74332 L 104.349,1.78224 L 104.336,1.85985 L 104.329,1.89853 L 104.171,2.68517  L 104.163,2.72264 L 104.145,2.79713 L 104.135,2.83415 L 103.902,3.65918 L 103.891,3.6946 L 103.868,3.76512  L 103.856,3.80023 L 103.539,4.67104 L 103.526,4.70427 L 103.5,4.7701 L 103.486,4.80269 L 103.074,5.72331  L 103.06,5.75391 L 103.03,5.81476 L 103.015,5.84502 L 102.498,6.81758 L 102.483,6.84554 L 102.451,6.9012  L 102.435,6.92891 L 101.805,7.95062 L 101.789,7.97626 L 101.755,8.02682 L 101.738,8.05176 L 100.987,9.11961  L 100.971,9.14264 L 100.937,9.18828 L 100.919,9.21089 L 100.041,10.3202 L 100.024,10.341 L 99.9895,10.382  L 99.9722,10.4022 L 98.9623,11.546 L 98.9455,11.5646 L 98.9114,11.6013 L 98.8941,11.6195 L 97.7496,12.7918  L 97.733,12.8084 L 97.6994,12.8412 L 97.6825,12.8574 L 96.4021,14.0512 L 96.3859,14.066 L 96.353,14.0953  L 96.3364,14.1098 L 94.9196,15.3188 L 94.9036,15.3322 L 94.8717,15.3583 L 94.8557,15.3711 L 94.5127,15.6401  L 94.4707,15.6713 L 94.3851,15.7315 L 94.2964,15.7872 L 94.2049,15.8381 L 94.1109,15.8842 L 94.0146,15.9253  L 93.9163,15.9613 L 93.8163,15.9921 L 93.7149,16.0175 L 93.6122,16.0377 L 93.5085,16.0525 L 93.4043,16.0618  L 93.2996,16.0657 z M 83.5689,29.2173 L 83.4643,29.2118 L 83.3602,29.2009 L 83.2569,29.1845 L 83.1545,29.1628 L 83.0533,29.1357  L 82.9538,29.1033 L 82.8561,29.0658 L 82.7605,29.0232 L 82.6632,28.9734 L 82.5647,28.9159 L 82.5171,28.8863  L 82.3816,28.8064 L 81.9639,28.5887 L 81.821,28.5234 L 81.3833,28.3508 L 81.2368,28.3017 L 80.7624,28.171  L 80.5655,28.1283 L 80.3136,28.081 L 64.2108,25.5305 L 64.1594,25.521 L 64.057,25.4993 L 63.9558,25.4722  L 63.8563,25.4398 L 63.7586,25.4023 L 63.663,25.3597 L 63.5697,25.3122 L 63.479,25.2598 L 63.3913,25.2029  L 63.3066,25.1414 L 63.2253,25.0755 L 63.1475,25.0054 L 63.0734,24.9314 L 63.0034,24.8536 L 62.9375,24.7722  L 62.876,24.6876 L 62.819,24.5999 L 62.7667,24.5092 L 62.7191,24.4159 L 62.6766,24.3203 L 62.6391,24.2226  L 62.6067,24.123 L 62.5796,24.0219 L 62.5579,23.9195 L 62.5415,23.8161 L 62.5306,23.712 L 62.5251,23.6075  L 62.5251,23.5028 L 62.5306,23.3983 L 62.5415,23.2942 L 62.5579,23.1909 L 62.5796,23.0885 L 62.6064,22.9884  L 62.6379,22.8911 L 62.6548,22.8429 L 64.0438,19.1985 L 64.0637,19.15 L 64.106,19.0543 L 64.1533,18.961  L 64.2054,18.8703 L 64.2622,18.7823 L 64.3235,18.6974 L 64.3893,18.6158 L 64.4592,18.5379 L 64.5329,18.4638  L 64.6105,18.3936 L 64.6917,18.3275 L 64.7762,18.2658 L 64.864,18.2085 L 64.9545,18.156 L 65.0476,18.1082  L 65.1431,18.0654 L 65.2407,18.0277 L 65.3401,17.9951 L 65.4413,17.9678 L 65.5436,17.9458 L 65.6468,17.9292  L 65.7509,17.918 L 65.8556,17.9122 L 65.9603,17.912 L 66.0659,17.9173 L 66.1724,17.9284 L 66.2255,17.9353  L 83.1858,20.6216 L 83.2884,20.6366 L 83.3778,20.6487 L 83.4803,20.6614 L 83.504,20.664 L 83.7128,20.6825  L 83.8988,20.6947 L 84.0564,20.7013 L 84.1086,20.7048 L 84.2128,20.7147 L 84.3165,20.73 L 84.4191,20.7507  L 84.5204,20.7767 L 84.6202,20.8081 L 84.7184,20.8446 L 84.8144,20.8861 L 84.9082,20.9327 L 84.9993,20.9841  L 85.0877,21.0402 L 85.173,21.1008 L 85.2551,21.1658 L 85.3336,21.2351 L 85.4083,21.3083 L 85.4792,21.3853  L 85.546,21.4661 L 85.6084,21.5501 L 85.6662,21.6372 L 85.7195,21.7273 L 85.768,21.8202 L 85.8116,21.9154  L 85.85,22.0125 L 85.8834,22.1118 L 85.9116,22.2128 L 85.9344,22.3149 L 85.9518,22.418 L 85.9639,22.5219  L 85.9704,22.6265 L 85.9715,22.7312 L 85.9671,22.8357 L 85.9573,22.9399 L 85.9419,23.0435 L 85.9212,23.1461  L 85.8984,23.2371 L 85.8745,23.3165 L 85.8617,23.3558 L 85.8455,23.4024 L 85.7144,23.8549 L 85.6572,24.0992  L 85.5741,24.5628 L 85.5418,24.8197 L 85.5096,25.2178 L 85.5029,25.4026 L 85.5,25.565 L 85.5,25.7561  L 85.5062,25.9926 L 85.5206,26.2686 L 85.5699,26.7375 L 85.5966,26.9058 L 85.6034,26.9577 L 85.6144,27.0618  L 85.6198,27.1664 L 85.6198,27.271 L 85.6144,27.3755 L 85.6034,27.4796 L 85.5871,27.583 L 85.5653,27.6854  L 85.5382,27.7866 L 85.5058,27.8861 L 85.4683,27.9838 L 85.4258,28.0794 L 85.3783,28.1727 L 85.3259,28.2633  L 85.2689,28.3511 L 85.2074,28.4358 L 85.1414,28.5173 L 85.0713,28.595 L 84.9976,28.6688 L 84.9198,28.7389  L 84.8383,28.8049 L 84.7536,28.8664 L 84.6657,28.9234 L 84.5751,28.9758 L 84.4819,29.0232 L 84.3863,29.0658  L 84.2886,29.1033 L 84.1891,29.1357 L 84.0879,29.1628 L 83.9855,29.1845 L 83.8822,29.2009 L 83.7781,29.2118  L 83.6735,29.2173 z "
     stroke="black"
     fill="lightgray"
     stroke-width="0.5"
     id="path1176"
     style="fill:none;stroke-width:0.2;stroke-dasharray:none" />
</svg>
