%TF.GenerationSoftware,KiCad,Pcbnew,(7.0.0)*%
%TF.CreationDate,2023-11-20T00:40:35-04:00*%
%TF.ProjectId,nopesign,6e6f7065-7369-4676-9e2e-6b696361645f,rev?*%
%TF.SameCoordinates,Original*%
%TF.FileFunction,Paste,Top*%
%TF.FilePolarity,Positive*%
%FSLAX46Y46*%
G04 Gerber Fmt 4.6, Leading zero omitted, Abs format (unit mm)*
G04 Created by KiCad (PCBNEW (7.0.0)) date 2023-11-20 00:40:35*
%MOMM*%
%LPD*%
G01*
G04 APERTURE LIST*
G04 Aperture macros list*
%AMRoundRect*
0 Rectangle with rounded corners*
0 $1 Rounding radius*
0 $2 $3 $4 $5 $6 $7 $8 $9 X,Y pos of 4 corners*
0 Add a 4 corners polygon primitive as box body*
4,1,4,$2,$3,$4,$5,$6,$7,$8,$9,$2,$3,0*
0 Add four circle primitives for the rounded corners*
1,1,$1+$1,$2,$3*
1,1,$1+$1,$4,$5*
1,1,$1+$1,$6,$7*
1,1,$1+$1,$8,$9*
0 Add four rect primitives between the rounded corners*
20,1,$1+$1,$2,$3,$4,$5,0*
20,1,$1+$1,$4,$5,$6,$7,0*
20,1,$1+$1,$6,$7,$8,$9,0*
20,1,$1+$1,$8,$9,$2,$3,0*%
%AMRotRect*
0 Rectangle, with rotation*
0 The origin of the aperture is its center*
0 $1 length*
0 $2 width*
0 $3 Rotation angle, in degrees counterclockwise*
0 Add horizontal line*
21,1,$1,$2,0,0,$3*%
G04 Aperture macros list end*
%ADD10RoundRect,0.250000X0.364421X0.394110X-0.118542X0.523520X-0.364421X-0.394110X0.118542X-0.523520X0*%
%ADD11RotRect,1.500000X0.900000X80.000000*%
%ADD12RoundRect,0.225000X0.157969X-0.296936X0.311878X0.125926X-0.157969X0.296936X-0.311878X-0.125926X0*%
%ADD13RoundRect,0.225000X-0.296936X-0.157969X0.125926X-0.311878X0.296936X0.157969X-0.125926X0.311878X0*%
%ADD14RoundRect,0.225000X0.296936X0.157969X-0.125926X0.311878X-0.296936X-0.157969X0.125926X-0.311878X0*%
%ADD15RoundRect,0.225000X0.207131X-0.264994X0.285273X0.178170X-0.207131X0.264994X-0.285273X-0.178170X0*%
%ADD16RoundRect,0.225000X-0.268659X0.202355X-0.229439X-0.245933X0.268659X-0.202355X0.229439X0.245933X0*%
%ADD17RoundRect,0.225000X-0.207131X0.264994X-0.285273X-0.178170X0.207131X-0.264994X0.285273X0.178170X0*%
%ADD18RoundRect,0.225000X-0.333843X0.040915X-0.075733X-0.327703X0.333843X-0.040915X0.075733X0.327703X0*%
%ADD19RoundRect,0.225000X0.319856X0.104006X-0.069856X0.329006X-0.319856X-0.104006X0.069856X-0.329006X0*%
%ADD20RoundRect,0.225000X0.017678X-0.335876X0.335876X-0.017678X-0.017678X0.335876X-0.335876X0.017678X0*%
%ADD21RoundRect,0.225000X-0.282120X0.183121X-0.211724X-0.261338X0.282120X-0.183121X0.211724X0.261338X0*%
%ADD22RoundRect,0.225000X0.225112X-0.249900X0.272149X0.197635X-0.225112X0.249900X-0.272149X-0.197635X0*%
%ADD23RotRect,1.500000X0.900000X160.000000*%
%ADD24RoundRect,0.225000X0.268659X-0.202355X0.229439X0.245933X-0.268659X0.202355X-0.229439X-0.245933X0*%
%ADD25RoundRect,0.225000X-0.299648X-0.152762X0.120464X-0.314028X0.299648X0.152762X-0.120464X0.314028X0*%
%ADD26RoundRect,0.225000X-0.183247X0.282038X-0.299716X-0.152629X0.183247X-0.282038X0.299716X0.152629X0*%
%ADD27RoundRect,0.225000X-0.126065X0.311821X-0.323332X-0.092636X0.126065X-0.311821X0.323332X0.092636X0*%
%ADD28RoundRect,0.225000X-0.011663X-0.336138X0.333057X-0.046884X0.011663X0.336138X-0.333057X0.046884X0*%
%ADD29RoundRect,0.225000X-0.070003X0.328975X-0.334506X-0.035083X0.070003X-0.328975X0.334506X0.035083X0*%
%ADD30RoundRect,0.225000X-0.152629X-0.299716X0.282038X-0.183247X0.152629X0.299716X-0.282038X0.183247X0*%
%ADD31RoundRect,0.225000X0.152629X0.299716X-0.282038X0.183247X-0.152629X-0.299716X0.282038X-0.183247X0*%
%ADD32RoundRect,0.225000X-0.335876X-0.017678X-0.017678X-0.335876X0.335876X0.017678X0.017678X0.335876X0*%
%ADD33RoundRect,0.225000X0.275471X0.192979X-0.162996X0.294207X-0.275471X-0.192979X0.162996X-0.294207X0*%
%ADD34RoundRect,0.225000X-0.257604X-0.216253X0.188017X-0.278881X0.257604X0.216253X-0.188017X0.278881X0*%
%ADD35RoundRect,0.225000X0.229329X0.246035X-0.220603X0.253889X-0.229329X-0.246035X0.220603X-0.253889X0*%
%ADD36RoundRect,0.225000X-0.192856X-0.275557X0.253790X-0.220716X0.192856X0.275557X-0.253790X0.220716X0*%
%ADD37RoundRect,0.150000X-0.478667X-0.236716X0.530761X-0.058726X0.478667X0.236716X-0.530761X0.058726X0*%
%ADD38RoundRect,0.250000X-0.163719X-0.511196X0.328685X-0.424372X0.163719X0.511196X-0.328685X0.424372X0*%
%ADD39RotRect,1.500000X0.900000X260.000000*%
%ADD40RoundRect,0.225000X0.104006X-0.319856X0.329006X0.069856X-0.104006X0.319856X-0.329006X-0.069856X0*%
%ADD41RotRect,1.500000X0.900000X240.000000*%
%ADD42RoundRect,0.225000X-0.335527X0.023387X-0.058479X-0.331218X0.335527X-0.023387X0.058479X0.331218X0*%
%ADD43RotRect,1.500000X0.900000X339.000000*%
%ADD44RotRect,1.500000X0.900000X15.000000*%
%ADD45RoundRect,0.225000X-0.178170X-0.285273X0.264994X-0.207131X0.178170X0.285273X-0.264994X0.207131X0*%
%ADD46RoundRect,0.200000X0.236092X-0.244715X0.305552X0.149208X-0.236092X0.244715X-0.305552X-0.149208X0*%
%ADD47RoundRect,0.225000X0.246035X-0.229329X0.253889X0.220603X-0.246035X0.229329X-0.253889X-0.220603X0*%
%ADD48RoundRect,0.225000X0.202355X0.268659X-0.245933X0.229439X-0.202355X-0.268659X0.245933X-0.229439X0*%
%ADD49RotRect,1.500000X0.900000X258.000000*%
%ADD50RotRect,1.500000X0.900000X272.000000*%
%ADD51RotRect,1.500000X0.900000X279.000000*%
%ADD52RotRect,1.500000X0.900000X340.000000*%
%ADD53RoundRect,0.225000X0.245933X0.229439X-0.202355X0.268659X-0.245933X-0.229439X0.202355X-0.268659X0*%
%ADD54RoundRect,0.225000X0.272061X0.197757X-0.168105X0.291317X-0.272061X-0.197757X0.168105X-0.291317X0*%
%ADD55RotRect,1.500000X0.900000X123.000000*%
%ADD56RoundRect,0.225000X0.257700X-0.216138X0.241995X0.233588X-0.257700X0.216138X-0.241995X-0.233588X0*%
%ADD57RotRect,0.650000X0.400000X190.000000*%
%ADD58RotRect,1.500000X0.900000X280.000000*%
%ADD59RoundRect,0.218750X0.311643X-0.309971X0.424876X0.112622X-0.311643X0.309971X-0.424876X-0.112622X0*%
%ADD60RotRect,1.500000X0.900000X320.000000*%
%ADD61RotRect,1.500000X0.900000X269.000000*%
%ADD62RoundRect,0.225000X0.178170X0.285273X-0.264994X0.207131X-0.178170X-0.285273X0.264994X-0.207131X0*%
%ADD63RoundRect,0.225000X0.282038X0.183247X-0.152629X0.299716X-0.282038X-0.183247X0.152629X-0.299716X0*%
%ADD64RotRect,1.500000X0.900000X10.000000*%
%ADD65RoundRect,0.225000X0.183247X-0.282038X0.299716X0.152629X-0.183247X0.282038X-0.299716X-0.152629X0*%
%ADD66RotRect,1.500000X0.900000X167.000000*%
%ADD67RotRect,1.500000X0.900000X253.000000*%
%ADD68RotRect,1.500000X0.900000X128.000000*%
%ADD69RoundRect,0.225000X-0.173293X0.288261X-0.304860X-0.142076X0.173293X-0.288261X0.304860X0.142076X0*%
%ADD70RotRect,1.500000X0.900000X220.000000*%
%ADD71RotRect,1.500000X0.900000X75.000000*%
%ADD72RotRect,1.500000X0.900000X275.000000*%
%ADD73RoundRect,0.225000X0.294207X-0.162996X0.192979X0.275471X-0.294207X0.162996X-0.192979X-0.275471X0*%
%ADD74RotRect,1.500000X0.900000X225.000000*%
%ADD75RotRect,1.500000X0.900000X135.000000*%
%ADD76RotRect,0.600000X1.450000X349.500000*%
%ADD77RotRect,0.300000X1.450000X349.500000*%
%ADD78RotRect,1.500000X0.900000X265.000000*%
%ADD79RoundRect,0.225000X-0.202355X-0.268659X0.245933X-0.229439X0.202355X0.268659X-0.245933X0.229439X0*%
%ADD80RoundRect,0.225000X0.324899X-0.086979X0.120604X0.313974X-0.324899X0.086979X-0.120604X-0.313974X0*%
%ADD81RotRect,1.500000X0.900000X262.000000*%
%ADD82RotRect,1.500000X0.900000X150.000000*%
%ADD83RotRect,1.500000X0.900000X117.000000*%
%ADD84RoundRect,0.225000X-0.333057X-0.046884X0.011663X-0.336138X0.333057X0.046884X-0.011663X0.336138X0*%
%ADD85RotRect,1.500000X0.900000X250.000000*%
%ADD86RotRect,1.500000X0.900000X5.000000*%
%ADD87RotRect,1.500000X0.900000X244.000000*%
%ADD88RotRect,1.500000X0.900000X234.000000*%
%ADD89RotRect,1.500000X0.900000X264.000000*%
%ADD90RoundRect,0.100000X-0.626359X-0.155181X0.643790X-0.044058X0.626359X0.155181X-0.643790X0.044058X0*%
%ADD91RotRect,1.500000X0.900000X255.000000*%
%ADD92RoundRect,0.225000X0.332211X-0.052541X0.087124X0.324861X-0.332211X0.052541X-0.087124X-0.324861X0*%
%ADD93RoundRect,0.225000X0.216138X0.257700X-0.233588X0.241995X-0.216138X-0.257700X0.233588X-0.241995X0*%
%ADD94RotRect,1.500000X0.900000X277.000000*%
%ADD95RotRect,1.500000X0.900000X305.000000*%
%ADD96RotRect,1.500000X0.900000X283.000000*%
%ADD97RotRect,1.500000X0.900000X190.000000*%
%ADD98RoundRect,0.225000X0.052541X0.332211X-0.324861X0.087124X-0.052541X-0.332211X0.324861X-0.087124X0*%
%ADD99RotRect,1.500000X0.900000X213.000000*%
G04 APERTURE END LIST*
D10*
X92667630Y-120995878D03*
X90832370Y-120504122D03*
D11*
X229949628Y-100126259D03*
X233199494Y-100699297D03*
X234050370Y-95873739D03*
X230800504Y-95300701D03*
X217949628Y-98126259D03*
X221199494Y-98699297D03*
X222050370Y-93873739D03*
X218800504Y-93300701D03*
D12*
X228484934Y-50978262D03*
X229015066Y-49521738D03*
D13*
X201021738Y-110984934D03*
X202478262Y-111515066D03*
D14*
X207978262Y-97765066D03*
X206521738Y-97234934D03*
D13*
X211521738Y-82984934D03*
X212978262Y-83515066D03*
D15*
X197365423Y-41763226D03*
X197634577Y-40236774D03*
D16*
X133182454Y-36227949D03*
X133317546Y-37772051D03*
D17*
X183884577Y-69236774D03*
X183615423Y-70763226D03*
D18*
X195055478Y-86115157D03*
X195944522Y-87384843D03*
D15*
X182365423Y-91763226D03*
X182634577Y-90236774D03*
D19*
X258171170Y-100387500D03*
X256828830Y-99612500D03*
D20*
X255701992Y-68798008D03*
X256798008Y-67701992D03*
D21*
X116878763Y-37734542D03*
X117121237Y-39265458D03*
D22*
X181418990Y-39020754D03*
X181581010Y-37479246D03*
D15*
X210115423Y-119513226D03*
X210384577Y-117986774D03*
D17*
X222134577Y-119986774D03*
X221865423Y-121513226D03*
D15*
X215865423Y-97763226D03*
X216134577Y-96236774D03*
D23*
X159633419Y-94962542D03*
X160762085Y-91861557D03*
X165366579Y-93537456D03*
X164237913Y-96638441D03*
X115737913Y-88388441D03*
X116866579Y-85287456D03*
X112262085Y-83611557D03*
X111133419Y-86712542D03*
X104737913Y-72888441D03*
X105866579Y-69787456D03*
X101262085Y-68111557D03*
X100133419Y-71212542D03*
X79737913Y-55888441D03*
X80866579Y-52787456D03*
X76262085Y-51111557D03*
X75133419Y-54212542D03*
D24*
X133317546Y-103272051D03*
X133182454Y-101727949D03*
D25*
X148026475Y-81222265D03*
X149473525Y-81777735D03*
D26*
X138950585Y-61001407D03*
X138549415Y-62498593D03*
D27*
X71589738Y-115053435D03*
X70910262Y-116446565D03*
D13*
X156771738Y-111484934D03*
X158228262Y-112015066D03*
D14*
X119978262Y-77265066D03*
X118521738Y-76734934D03*
D28*
X119406316Y-102248160D03*
X120593684Y-101251840D03*
D14*
X103728262Y-74765066D03*
X102271738Y-74234934D03*
D13*
X77271738Y-57234934D03*
X78728262Y-57765066D03*
D29*
X57705534Y-107623012D03*
X56794466Y-108876988D03*
D13*
X97271738Y-87234934D03*
X98728262Y-87765066D03*
D30*
X88251407Y-92200585D03*
X89748593Y-91799415D03*
D31*
X85248593Y-77799415D03*
X83751407Y-78200585D03*
D14*
X73228262Y-70265066D03*
X71771738Y-69734934D03*
D32*
X44201992Y-71701992D03*
X45298008Y-72798008D03*
D33*
X40755137Y-85674337D03*
X39244863Y-85325663D03*
D34*
X113732542Y-124392141D03*
X115267458Y-124607859D03*
D35*
X146274882Y-127013526D03*
X144725118Y-126986474D03*
D36*
X177730777Y-125594449D03*
X179269223Y-125405551D03*
D37*
X186464815Y-127511957D03*
X186794747Y-129383092D03*
X188870219Y-128052475D03*
D38*
X187314433Y-131664966D03*
X189185567Y-131335034D03*
D39*
X231800370Y-73373739D03*
X228550504Y-72800701D03*
X227699628Y-77626259D03*
X230949494Y-78199297D03*
D40*
X243612500Y-58671170D03*
X244387500Y-57328830D03*
D41*
X242403941Y-56453237D03*
X239546057Y-54803237D03*
X237096057Y-59046761D03*
X239953941Y-60696761D03*
D42*
X243772862Y-110639292D03*
X244727138Y-111860708D03*
D43*
X147304034Y-83081590D03*
X146121420Y-86162405D03*
X150695964Y-87918408D03*
X151878578Y-84837593D03*
D44*
X84206429Y-80540328D03*
X85060532Y-83727883D03*
X89793569Y-82459670D03*
X88939466Y-79272115D03*
D45*
X262486774Y-84134577D03*
X264013226Y-83865423D03*
D14*
X218978262Y-70015066D03*
X217521738Y-69484934D03*
D46*
X103856740Y-124812466D03*
X104143260Y-123187534D03*
D47*
X165236474Y-37524882D03*
X165263526Y-35975118D03*
D48*
X151022051Y-68182454D03*
X149477949Y-68317546D03*
D13*
X107271738Y-61734934D03*
X108728262Y-62265066D03*
D49*
X98410783Y-123446592D03*
X95182896Y-122760483D03*
X94164129Y-127553406D03*
X97392016Y-128239515D03*
D50*
X147063490Y-35743907D03*
X143765500Y-35859076D03*
X143936508Y-40756091D03*
X147234498Y-40640922D03*
D51*
X114533877Y-38322046D03*
X111274506Y-38838279D03*
X112041035Y-43677952D03*
X115300406Y-43161719D03*
D23*
X64237913Y-93888441D03*
X65366579Y-90787456D03*
X60762085Y-89111557D03*
X59633419Y-92212542D03*
D52*
X216262085Y-71361557D03*
X215133419Y-74462542D03*
X219737913Y-76138441D03*
X220866579Y-73037456D03*
D13*
X68228262Y-83265066D03*
X66771738Y-82734934D03*
D11*
X212199628Y-119876259D03*
X215449494Y-120449297D03*
X216300370Y-115623739D03*
X213050504Y-115050701D03*
D53*
X130772051Y-126317546D03*
X129227949Y-126182454D03*
D54*
X98008064Y-121411132D03*
X96491936Y-121088868D03*
D23*
X120737913Y-75388441D03*
X121866579Y-72287456D03*
X117262085Y-70611557D03*
X116133419Y-73712542D03*
D50*
X162563490Y-128743907D03*
X159265500Y-128859076D03*
X159436508Y-133756091D03*
X162734498Y-133640922D03*
D55*
X57200558Y-62453396D03*
X59968171Y-60656087D03*
X57299440Y-56546602D03*
X54531827Y-58343911D03*
D56*
X149277047Y-37024528D03*
X149222953Y-35475472D03*
D57*
X198798438Y-127475158D03*
X198685566Y-126835033D03*
X198572695Y-126194908D03*
X196701560Y-126524840D03*
X196927303Y-127805090D03*
D58*
X193986951Y-125050701D03*
X190737085Y-125623739D03*
X191587961Y-130449297D03*
X194837827Y-129876259D03*
D59*
X90725005Y-125276296D03*
X91274995Y-123223704D03*
D46*
X106856740Y-125312466D03*
X107143260Y-123687534D03*
D60*
X145437407Y-98560855D03*
X143316208Y-101088802D03*
X139562591Y-97939143D03*
X141683790Y-95411196D03*
D44*
X80206429Y-66540328D03*
X81060532Y-69727883D03*
X85793569Y-68459670D03*
X84939466Y-65272115D03*
D61*
X162979963Y-36079169D03*
X159680466Y-36021576D03*
X159594949Y-40920829D03*
X162894446Y-40978422D03*
D45*
X196486774Y-73884577D03*
X198013226Y-73615423D03*
D62*
X188513226Y-125365423D03*
X186986774Y-125634577D03*
D52*
X205762085Y-99111557D03*
X204633419Y-102212542D03*
X209237913Y-103888441D03*
X210366579Y-100787456D03*
D63*
X88998593Y-124700585D03*
X87501407Y-124299415D03*
D64*
X201876259Y-74949628D03*
X202449297Y-78199494D03*
X197623739Y-79050370D03*
X197050701Y-75800504D03*
D65*
X213799415Y-45748593D03*
X214200585Y-44251407D03*
D66*
X41016036Y-83408840D03*
X41758375Y-80193418D03*
X36983962Y-79091158D03*
X36241623Y-82306580D03*
D67*
X83294213Y-119389466D03*
X80138407Y-118424639D03*
X78705785Y-123110532D03*
X81861591Y-124075359D03*
D17*
X245884577Y-75986774D03*
X245615423Y-77513226D03*
D15*
X233615423Y-75513226D03*
X233884577Y-73986774D03*
D68*
X246458152Y-110696467D03*
X249058587Y-108664784D03*
X246041846Y-104803531D03*
X243441411Y-106835214D03*
D13*
X113521738Y-89734934D03*
X114978262Y-90265066D03*
D69*
X85476588Y-120758864D03*
X85023412Y-122241136D03*
D11*
X185949628Y-71126259D03*
X189199494Y-71699297D03*
X190050370Y-66873739D03*
X186800504Y-66300701D03*
D46*
X109643260Y-124187534D03*
X109356740Y-125812466D03*
D70*
X119187407Y-99689143D03*
X117066208Y-97161196D03*
X113312591Y-100310855D03*
X115433790Y-102838802D03*
D30*
X79751407Y-64200585D03*
X81248593Y-63799415D03*
D23*
X169487913Y-83138441D03*
X170616579Y-80037456D03*
X166012085Y-78361557D03*
X164883419Y-81462542D03*
D71*
X141790328Y-58456429D03*
X144977883Y-59310532D03*
X143709670Y-64043569D03*
X140522115Y-63189466D03*
D72*
X130717646Y-36665515D03*
X127430203Y-36953129D03*
X127857266Y-41834483D03*
X131144709Y-41546869D03*
D13*
X172521738Y-71234934D03*
X173978262Y-71765066D03*
D73*
X100924337Y-42255137D03*
X100575663Y-40744863D03*
D74*
X255149137Y-66184314D03*
X252815684Y-63850861D03*
X249350861Y-67315684D03*
X251684314Y-69649137D03*
D75*
X46815684Y-71149137D03*
X49149137Y-68815684D03*
X45684314Y-65350861D03*
X43350861Y-67684314D03*
D23*
X109737913Y-60388441D03*
X110866579Y-57287456D03*
X106262085Y-55611557D03*
X105133419Y-58712542D03*
D76*
X101541563Y-126430467D03*
X102328167Y-126576256D03*
D77*
X103016446Y-126703821D03*
X103999701Y-126886056D03*
X105474583Y-127159410D03*
X106457838Y-127341645D03*
D76*
X107146116Y-127469210D03*
X107932720Y-127614998D03*
X107932720Y-127614998D03*
X107146116Y-127469210D03*
D77*
X105966210Y-127250527D03*
X104982955Y-127068292D03*
X104491328Y-126977174D03*
X103508073Y-126794938D03*
D76*
X102328167Y-126576256D03*
X101541563Y-126430467D03*
D14*
X163228262Y-98765066D03*
X161771738Y-98234934D03*
D72*
X131180189Y-101915515D03*
X127892746Y-102203129D03*
X128319809Y-107084483D03*
X131607252Y-106796869D03*
D78*
X130644709Y-128453129D03*
X127357266Y-128165515D03*
X126930203Y-133046869D03*
X130217646Y-133334483D03*
D52*
X210762085Y-85111557D03*
X209633419Y-88212542D03*
X214237913Y-89888441D03*
X215366579Y-86787456D03*
D79*
X170727949Y-135067546D03*
X172272051Y-134932454D03*
D80*
X126351843Y-66440530D03*
X125648157Y-65059470D03*
D81*
X114974915Y-126553478D03*
X111707031Y-126094207D03*
X111025083Y-130946520D03*
X114292967Y-131405791D03*
D23*
X99737913Y-85888441D03*
X100866579Y-82787456D03*
X96262085Y-81111557D03*
X95133419Y-84212542D03*
D82*
X259296761Y-98653941D03*
X260946761Y-95796057D03*
X256703237Y-93346057D03*
X255053237Y-96203941D03*
D83*
X128142115Y-65432049D03*
X131082436Y-63933881D03*
X128857883Y-59567949D03*
X125917562Y-61066117D03*
D84*
X142906316Y-93751840D03*
X144093684Y-94748160D03*
D23*
X174737913Y-69888441D03*
X175866579Y-66787456D03*
X171262085Y-65111557D03*
X170133419Y-68212542D03*
D44*
X89206429Y-94540328D03*
X90060532Y-97727883D03*
X94793569Y-96459670D03*
X93939466Y-93272115D03*
D85*
X226888441Y-48762085D03*
X223787456Y-47633419D03*
X222111557Y-52237913D03*
X225212542Y-53366579D03*
D86*
X149665515Y-70319809D03*
X149953129Y-73607252D03*
X154834483Y-73180189D03*
X154546869Y-69892746D03*
D87*
X69307018Y-114021266D03*
X66340998Y-112574641D03*
X64192980Y-116978732D03*
X67159000Y-118425357D03*
D39*
X243800370Y-75373739D03*
X240550504Y-74800701D03*
X239699628Y-79626259D03*
X242949494Y-80199297D03*
D11*
X223949628Y-121876259D03*
X227199494Y-122449297D03*
X228050370Y-117623739D03*
X224800504Y-117050701D03*
D23*
X69237913Y-81388441D03*
X70366579Y-78287456D03*
X65762085Y-76611557D03*
X64633419Y-79712542D03*
D52*
X200262085Y-112861557D03*
X199133419Y-115962542D03*
X203737913Y-117638441D03*
X204866579Y-114537456D03*
D23*
X159237913Y-110138441D03*
X160366579Y-107037456D03*
X155762085Y-105361557D03*
X154633419Y-108462542D03*
D61*
X146442506Y-129079169D03*
X143143009Y-129021576D03*
X143057492Y-133920829D03*
X146356989Y-133978422D03*
D23*
X74237913Y-68388441D03*
X75366579Y-65287456D03*
X70762085Y-63611557D03*
X69633419Y-66712542D03*
D88*
X55774951Y-106487753D03*
X53105195Y-104548062D03*
X50225047Y-108512245D03*
X52894803Y-110451936D03*
D89*
X179397055Y-37485892D03*
X176115133Y-37140948D03*
X175602943Y-42014106D03*
X178884865Y-42359050D03*
D14*
X62728262Y-95765066D03*
X61271738Y-95234934D03*
D90*
X165680919Y-127835614D03*
X165737570Y-128483140D03*
X165794222Y-129130667D03*
X165850873Y-129778193D03*
X165907524Y-130425720D03*
X165964175Y-131073247D03*
X166020827Y-131720773D03*
X166077478Y-132368300D03*
X166134129Y-133015826D03*
X166190780Y-133663353D03*
X171893995Y-133164386D03*
X171837344Y-132516860D03*
X171780692Y-131869333D03*
X171724041Y-131221807D03*
X171667390Y-130574280D03*
X171610739Y-129926753D03*
X171554087Y-129279227D03*
X171497436Y-128631700D03*
X171440785Y-127984174D03*
X171384134Y-127336647D03*
D91*
X211977883Y-43810532D03*
X208790328Y-42956429D03*
X207522115Y-47689466D03*
X210709670Y-48543569D03*
D92*
X55172095Y-63649970D03*
X54327905Y-62350030D03*
D39*
X195300370Y-39873739D03*
X192050504Y-39300701D03*
X191199628Y-44126259D03*
X194449494Y-44699297D03*
D93*
X161274528Y-126722953D03*
X159725472Y-126777047D03*
D13*
X167271738Y-84484934D03*
X168728262Y-85015066D03*
D94*
X178126577Y-127367177D03*
X174851175Y-127769345D03*
X175448335Y-132632821D03*
X178723737Y-132230653D03*
D95*
X196006862Y-91560520D03*
X193303660Y-93453323D03*
X190493136Y-89439478D03*
X193196338Y-87546675D03*
D96*
X98556580Y-41241623D03*
X95341158Y-41983962D03*
X96443418Y-46758375D03*
X99658840Y-46016036D03*
D62*
X192763226Y-123365423D03*
X191236774Y-123634577D03*
D63*
X89498593Y-122700585D03*
X88001407Y-122299415D03*
D39*
X180300370Y-90007159D03*
X177050504Y-89434121D03*
X176199628Y-94259679D03*
X179449494Y-94832717D03*
D97*
X263449297Y-81699494D03*
X262876259Y-78449628D03*
X258050701Y-79300504D03*
X258623739Y-82550370D03*
D15*
X100865423Y-124013226D03*
X101134577Y-122486774D03*
D98*
X46649970Y-98577905D03*
X45350030Y-99422095D03*
D99*
X45203396Y-96549440D03*
X43406087Y-93781827D03*
X39296602Y-96450558D03*
X41093911Y-99218171D03*
D15*
X227865423Y-100013226D03*
X228134577Y-98486774D03*
M02*
