M48
; DRILL file {KiCad (7.0.0)} date Mon Nov 20 00:41:25 2023
; FORMAT={-:-/ absolute / metric / decimal}
; #@! TF.CreationDate,2023-11-20T00:41:25-04:00
; #@! TF.GenerationSoftware,Kicad,Pcbnew,(7.0.0)
; #@! TF.FileFunction,Plated,1,2,PTH
FMAT,2
METRIC
; #@! TA.AperFunction,Plated,PTH,ViaDrill
T1C0.400
; #@! TA.AperFunction,Plated,PTH,ViaDrill
T2C0.500
; #@! TA.AperFunction,Plated,PTH,ComponentDrill
T3C0.600
; #@! TA.AperFunction,Plated,PTH,ComponentDrill
T4C0.990
; #@! TA.AperFunction,Plated,PTH,ComponentDrill
T5C1.300
; #@! TA.AperFunction,Plated,PTH,ViaDrill
T6C3.000
%
G90
G05
T1
X56.75Y-90.25
X58.25Y-91.75
X58.75Y-61.5
X64.25Y-64.0
X84.75Y-123.25
X95.25Y-120.75
X103.0Y-122.674
X103.669Y-128.54
X104.75Y-128.5
X106.25Y-131.75
X106.75Y-130.75
X108.5Y-123.5
X113.75Y-125.5
X114.0Y-62.25
X120.0Y-62.75
X121.5Y-73.5
X124.625Y-74.375
X127.75Y-126.0
X135.0Y-97.25
X137.5Y-100.25
X140.5Y-104.0
X142.75Y-105.5
X143.5Y-127.0
X152.5Y-106.0
X155.0Y-107.25
X158.5Y-126.777
X167.5Y-130.5
X170.0Y-131.0
X173.0Y-130.5
X173.5Y-135.0
X176.5Y-132.5
X177.75Y-95.25
X177.75Y-98.0
X180.5Y-125.25
X181.0Y-129.326
X181.0Y-133.5
X181.25Y-131.174
X184.5Y-129.5
X185.0Y-130.5
X185.75Y-126.0
X190.0Y-123.5
X190.5Y-130.75
X192.0Y-126.5
X193.0Y-132.0
X197.0Y-131.5
X197.776Y-126.224
X200.5Y-129.0
X201.25Y-95.25
X205.5Y-86.75
X214.0Y-80.0
X219.25Y-101.75
X219.5Y-97.75
X220.5Y-82.75
X226.25Y-114.0
X226.5Y-116.75
X242.0Y-81.75
X242.0Y-83.75
T2
X37.75Y-77.75
X38.0Y-85.0
X40.5Y-97.5
X43.25Y-70.75
X44.25Y-100.0
X45.0Y-66.5
X51.5Y-109.0
X53.5Y-61.25
X56.0Y-110.0
X56.5Y-57.5
X60.0Y-94.75
X62.25Y-89.75
X65.5Y-82.25
X65.5Y-117.5
X67.25Y-77.25
X70.5Y-69.25
X70.5Y-117.75
X72.25Y-64.25
X76.0Y-56.75
X77.75Y-51.75
X80.0Y-123.5
X82.5Y-63.5
X84.25Y-69.0
X86.515Y-77.493
X87.25Y-125.5
X88.25Y-83.0
X88.5Y-121.0
X89.5Y-119.5
X91.0Y-91.5
X93.25Y-97.0
X95.5Y-127.5
X96.0Y-45.25
X96.0Y-86.75
X97.75Y-81.75
X101.0Y-73.75
X101.25Y-43.5
X102.0Y-125.0
X102.75Y-68.5
X106.0Y-61.25
X107.75Y-56.0
X108.0Y-126.0
X111.75Y-42.0
X112.25Y-89.25
X112.25Y-131.0
X113.75Y-84.25
X114.5Y-99.25
X117.25Y-40.5
X117.25Y-76.25
X118.5Y-103.25
X118.75Y-71.25
X125.0Y-64.0
X127.75Y-40.25
X128.25Y-105.5
X128.5Y-133.25
X129.5Y-61.0
X133.5Y-39.0
X133.5Y-104.5
X139.25Y-59.75
X142.0Y-100.0
X144.0Y-39.25
X144.5Y-60.75
X144.5Y-134.0
X145.0Y-95.5
X149.25Y-87.5
X149.5Y-38.25
X150.75Y-82.25
X152.25Y-68.0
X153.25Y-73.25
X155.5Y-111.0
X157.25Y-106.0
X159.75Y-39.25
X160.494Y-133.756
X160.5Y-97.75
X162.25Y-92.5
X165.25Y-38.75
X166.0Y-84.0
X167.5Y-79.0
X171.25Y-70.75
X172.75Y-65.75
X175.75Y-40.5
X176.5Y-92.75
X181.25Y-40.25
X182.0Y-93.0
X184.25Y-68.0
X189.75Y-68.5
X191.5Y-42.5
X192.25Y-92.0
X196.75Y-88.5
X197.25Y-43.0
X199.25Y-73.25
X200.75Y-78.5
X202.25Y-117.25
X203.75Y-112.0
X207.75Y-103.25
X208.0Y-46.25
X209.25Y-98.25
X210.75Y-116.75
X212.75Y-89.25
X213.5Y-47.0
X214.25Y-84.0
X216.0Y-117.25
X216.25Y-95.0
X218.25Y-75.5
X220.25Y-70.5
X221.75Y-95.5
X222.5Y-118.75
X222.75Y-50.75
X227.75Y-119.25
X228.0Y-52.25
X228.0Y-76.0
X228.5Y-97.0
X233.5Y-76.75
X233.75Y-97.5
X238.0Y-57.75
X240.0Y-78.0
X243.0Y-59.75
X243.0Y-109.5
X245.5Y-78.75
X247.0Y-106.0
X250.5Y-66.25
X254.75Y-69.75
X255.75Y-99.0
X258.0Y-94.25
X259.5Y-79.0
X261.25Y-84.5
T4
X118.525Y-131.972
X123.0Y-132.443
X134.506Y-133.264
X139.0Y-133.5
X150.5Y-134.0
X155.0Y-134.0
T5
X117.532Y-129.364
X124.503Y-130.097
X133.378Y-130.712
X140.379Y-131.079
X149.24Y-131.51
X156.25Y-131.51
T6
X56.0Y-100.0
X66.5Y-60.0
X108.0Y-49.0
X157.0Y-87.0
X199.0Y-121.5
X240.0Y-103.5
X244.0Y-70.0
T3
X99.616Y-130.95G85X99.506Y-131.54
G05
X100.423Y-126.594G85X100.223Y-127.676
G05
X108.111Y-132.525G85X108.002Y-133.115
G05
X108.918Y-128.169G85X108.718Y-129.25
G05
T0
M30
