%TF.GenerationSoftware,KiCad,Pcbnew,(7.0.0)*%
%TF.CreationDate,2023-11-20T00:40:36-04:00*%
%TF.ProjectId,nopesign,6e6f7065-7369-4676-9e2e-6b696361645f,rev?*%
%TF.SameCoordinates,Original*%
%TF.FileFunction,Soldermask,Bot*%
%TF.FilePolarity,Negative*%
%FSLAX46Y46*%
G04 Gerber Fmt 4.6, Leading zero omitted, Abs format (unit mm)*
G04 Created by KiCad (PCBNEW (7.0.0)) date 2023-11-20 00:40:36*
%MOMM*%
%LPD*%
G01*
G04 APERTURE LIST*
G04 Aperture macros list*
%AMHorizOval*
0 Thick line with rounded ends*
0 $1 width*
0 $2 $3 position (X,Y) of the first rounded end (center of the circle)*
0 $4 $5 position (X,Y) of the second rounded end (center of the circle)*
0 Add line between two ends*
20,1,$1,$2,$3,$4,$5,0*
0 Add two circle primitives to create the rounded ends*
1,1,$1,$2,$3*
1,1,$1,$4,$5*%
G04 Aperture macros list end*
%ADD10C,2.575000*%
%ADD11C,2.100000*%
%ADD12C,1.750000*%
%ADD13HorizOval,1.000000X-0.054671X-0.294976X0.054671X0.294976X0*%
%ADD14HorizOval,1.000000X-0.100230X-0.540790X0.100230X0.540790X0*%
%ADD15C,0.650000*%
%ADD16C,0.787400*%
%ADD17C,0.990600*%
G04 APERTURE END LIST*
D10*
X57287500Y-100000000D02*
G75*
G03*
X57287500Y-100000000I-1287500J0D01*
G01*
X67787500Y-60000000D02*
G75*
G03*
X67787500Y-60000000I-1287500J0D01*
G01*
X109287500Y-49000000D02*
G75*
G03*
X109287500Y-49000000I-1287500J0D01*
G01*
X158287500Y-87000000D02*
G75*
G03*
X158287500Y-87000000I-1287500J0D01*
G01*
X245287500Y-70000000D02*
G75*
G03*
X245287500Y-70000000I-1287500J0D01*
G01*
X241287500Y-103500000D02*
G75*
G03*
X241287500Y-103500000I-1287500J0D01*
G01*
X200287500Y-121500000D02*
G75*
G03*
X200287500Y-121500000I-1287500J0D01*
G01*
D11*
X156250000Y-131510000D03*
X149240000Y-131510000D03*
D12*
X155000000Y-134000000D03*
X150500000Y-134000000D03*
D11*
X140378603Y-131078832D03*
X133378210Y-130711957D03*
D12*
X139000000Y-133500000D03*
X134506167Y-133264488D03*
X118524651Y-131972399D03*
X123000000Y-132442777D03*
D11*
X117531830Y-129364334D03*
X124503428Y-130097078D03*
D13*
X108056313Y-132819674D03*
D14*
X108818057Y-128709669D03*
D13*
X99560990Y-131245159D03*
D14*
X100322735Y-127135154D03*
D15*
X107315419Y-128970198D03*
X101632206Y-127916877D03*
D16*
X183452070Y-128153985D03*
X182194430Y-128330734D03*
X183628820Y-129411625D03*
X182371180Y-129588375D03*
X183805570Y-130669266D03*
X182547930Y-130846015D03*
D17*
X181640388Y-127126119D03*
X183652613Y-126843319D03*
X183353500Y-132015281D03*
M02*
